<?xml version="1.0" encoding="UTF-8" standalone="no"?>
<svg
   width="16"
   height="16"
   viewBox="0 0 16 16"
   version="1.1"
   id="svg5"
   inkscape:version="1.1.1 (3bf5ae0d25, 2021-09-20, custom)"
   sodipodi:docname="folder-music.svg"
   xmlns:inkscape="http://www.inkscape.org/namespaces/inkscape"
   xmlns:sodipodi="http://sodipodi.sourceforge.net/DTD/sodipodi-0.dtd"
   xmlns="http://www.w3.org/2000/svg"
   xmlns:svg="http://www.w3.org/2000/svg"
   xmlns:rdf="http://www.w3.org/1999/02/22-rdf-syntax-ns#"
   xmlns:cc="http://creativecommons.org/ns#"
   xmlns:dc="http://purl.org/dc/elements/1.1/">
  <metadata
     id="metadata11">
    <rdf:RDF>
      <cc:Work
         rdf:about="">
        <dc:format>image/svg+xml</dc:format>
        <dc:type
           rdf:resource="http://purl.org/dc/dcmitype/StillImage" />
      </cc:Work>
    </rdf:RDF>
  </metadata>
  <sodipodi:namedview
     id="namedview7"
     pagecolor="#ffffff"
     bordercolor="#666666"
     borderopacity="1.0"
     inkscape:pageshadow="2"
     inkscape:pageopacity="0.0"
     inkscape:pagecheckerboard="0"
     inkscape:document-units="px"
     showgrid="false"
     inkscape:zoom="8.877683"
     inkscape:cx="6.4205942"
     inkscape:cy="10.025138"
     inkscape:window-width="1366"
     inkscape:window-height="707"
     inkscape:window-x="0"
     inkscape:window-y="0"
     inkscape:window-maximized="1"
     inkscape:current-layer="layer1"
     inkscape:document-rotation="0"
     showguides="false">
    <inkscape:grid
       type="xygrid"
       id="grid824" />
  </sodipodi:namedview>
  <defs
     id="defs2" />
  <g
     inkscape:label="Capa 1"
     inkscape:groupmode="layer"
     id="layer1">
    <path
       id="rect2298"
       style="fill:#7037b1;fill-opacity:1;stroke:none;stroke-linecap:round;stroke-linejoin:round"
       d="M 15.000001,1 5,3 v 7.498048 C 4.582742,10.185665 4.063649,10 3.5,10 2.1150001,10 1,11.115 1,12.5 1,13.885 2.1150001,15 3.5,15 4.690899,15 5.681092,14.176009 5.935547,13.064453 l 0.06445,-0.06445 v -0.5 -5.5 l 8.000001,-1 v 4.498047 c 0,0 -0.002,-0.002 -0.002,-0.002 -0.416833,-0.311336 -0.935344,-0.496047 -1.498,-0.496047 -1.385001,0 -2.500001,1.115 -2.500001,2.5 0,1.385 1.115,2.5 2.500001,2.5 1.190899,0 2.181092,-0.823991 2.435547,-1.935547 l 0.06445,-0.06445 z" />
  </g>
</svg>
