<?xml version="1.0" encoding="UTF-8" standalone="no"?>
<svg
   width="16"
   height="16"
   viewBox="0 0 16 16"
   version="1.1"
   id="svg5"
   inkscape:version="1.1.1 (3bf5ae0d25, 2021-09-20, custom)"
   sodipodi:docname="image-x-generic.svg"
   xmlns:inkscape="http://www.inkscape.org/namespaces/inkscape"
   xmlns:sodipodi="http://sodipodi.sourceforge.net/DTD/sodipodi-0.dtd"
   xmlns="http://www.w3.org/2000/svg"
   xmlns:svg="http://www.w3.org/2000/svg"
   xmlns:rdf="http://www.w3.org/1999/02/22-rdf-syntax-ns#"
   xmlns:cc="http://creativecommons.org/ns#"
   xmlns:dc="http://purl.org/dc/elements/1.1/">
  <metadata
     id="metadata11">
    <rdf:RDF>
      <cc:Work
         rdf:about="">
        <dc:format>image/svg+xml</dc:format>
        <dc:type
           rdf:resource="http://purl.org/dc/dcmitype/StillImage" />
      </cc:Work>
    </rdf:RDF>
  </metadata>
  <sodipodi:namedview
     id="namedview7"
     pagecolor="#ffffff"
     bordercolor="#666666"
     borderopacity="1.0"
     inkscape:pageshadow="2"
     inkscape:pageopacity="0.0"
     inkscape:pagecheckerboard="0"
     inkscape:document-units="px"
     showgrid="false"
     inkscape:zoom="12.55494"
     inkscape:cx="5.3365448"
     inkscape:cy="11.310289"
     inkscape:window-width="1366"
     inkscape:window-height="707"
     inkscape:window-x="0"
     inkscape:window-y="0"
     inkscape:window-maximized="1"
     inkscape:current-layer="layer1"
     inkscape:document-rotation="0"
     showguides="false">
    <inkscape:grid
       type="xygrid"
       id="grid824" />
  </sodipodi:namedview>
  <defs
     id="defs2">
    <clipPath
       clipPathUnits="userSpaceOnUse"
       id="clipPath3575">
      <rect
         style="fill:#313131;fill-opacity:1;stroke-linecap:round;stroke-linejoin:round"
         id="rect3577"
         width="14"
         height="12"
         x="1"
         y="2"
         ry="3" />
    </clipPath>
    <clipPath
       clipPathUnits="userSpaceOnUse"
       id="clipPath3579">
      <rect
         style="fill:#313131;fill-opacity:1;stroke-linecap:round;stroke-linejoin:round"
         id="rect3581"
         width="14"
         height="12"
         x="1"
         y="2"
         ry="3" />
    </clipPath>
    <clipPath
       clipPathUnits="userSpaceOnUse"
       id="clipPath3583">
      <rect
         style="fill:#313131;fill-opacity:1;stroke-linecap:round;stroke-linejoin:round"
         id="rect3585"
         width="14"
         height="12"
         x="1"
         y="2"
         ry="3" />
    </clipPath>
  </defs>
  <g
     inkscape:label="Capa 1"
     inkscape:groupmode="layer"
     id="layer1">
    <path
       id="rect1996"
       style="fill:#44b8ea;fill-opacity:1;stroke-linecap:round;stroke-linejoin:round"
       d="M 3 1 C 1.338 1 0 2.338 0 4 L 0 12 C 0 13.662 1.338 15 3 15 L 13 15 C 14.662 15 16 13.662 16 12 L 16 4 C 16 2.338 14.662 1 13 1 L 3 1 z M 4 2 L 12 2 C 13.662 2 15 3.338 15 5 L 15 11 C 15 12.662 13.662 14 12 14 L 4 14 C 2.338 14 1 12.662 1 11 L 1 5 C 1 3.338 2.338 2 4 2 z " />
    <path
       style="fill:#52ed24;fill-opacity:1;stroke:none;stroke-width:0.999999px;stroke-linecap:butt;stroke-linejoin:miter;stroke-opacity:1"
       d="M 4,9 0,14 H 8 Z"
       id="path2525-5"
       sodipodi:nodetypes="cccc"
       clip-path="url(#clipPath3583)" />
    <path
       style="fill:#52ed24;fill-opacity:1;stroke:none;stroke-width:1.22474px;stroke-linecap:butt;stroke-linejoin:miter;stroke-opacity:1"
       d="m 15,8 -5,6 h 10 z"
       id="path2525-5-2"
       sodipodi:nodetypes="cccc"
       clip-path="url(#clipPath3579)" />
    <path
       style="fill:#b6f128;fill-opacity:1;stroke:none;stroke-width:0.999999px;stroke-linecap:butt;stroke-linejoin:miter;stroke-opacity:1"
       d="m 8,10 -4,5 h 8 z"
       id="path2525-5-6"
       sodipodi:nodetypes="cccc"
       clip-path="url(#clipPath3575)" />
    <rect
       style="fill:url(#linearGradient5823);fill-opacity:1;stroke-width:0.680054;stroke-linecap:round;stroke-linejoin:round"
       id="rect5821"
       width="19.000002"
       height="12.000001"
       x="-1.0724607e-06"
       y="6.0862925e-07"
       ry="3.5294106" />
    <rect
       style="fill:#ffde00;fill-opacity:1;stroke-width:1.49999;stroke-linecap:round;stroke-linejoin:round"
       id="rect3658"
       width="3"
       height="3"
       x="9"
       y="4"
       ry="1.5" />
  </g>
</svg>
