<?xml version="1.0" encoding="UTF-8" standalone="no"?>
<svg
   width="16"
   height="16"
   viewBox="0 0 16 16"
   version="1.1"
   id="svg5"
   inkscape:version="1.1.1 (3bf5ae0d25, 2021-09-20, custom)"
   sodipodi:docname="bookmark-new-symbolic.svg"
   xmlns:inkscape="http://www.inkscape.org/namespaces/inkscape"
   xmlns:sodipodi="http://sodipodi.sourceforge.net/DTD/sodipodi-0.dtd"
   xmlns="http://www.w3.org/2000/svg"
   xmlns:svg="http://www.w3.org/2000/svg"
   xmlns:rdf="http://www.w3.org/1999/02/22-rdf-syntax-ns#"
   xmlns:cc="http://creativecommons.org/ns#"
   xmlns:dc="http://purl.org/dc/elements/1.1/">
  <metadata
     id="metadata11">
    <rdf:RDF>
      <cc:Work
         rdf:about="">
        <dc:format>image/svg+xml</dc:format>
        <dc:type
           rdf:resource="http://purl.org/dc/dcmitype/StillImage" />
      </cc:Work>
    </rdf:RDF>
  </metadata>
  <sodipodi:namedview
     id="namedview7"
     pagecolor="#ffffff"
     bordercolor="#666666"
     borderopacity="1.0"
     inkscape:pageshadow="2"
     inkscape:pageopacity="0.0"
     inkscape:pagecheckerboard="0"
     inkscape:document-units="px"
     showgrid="false"
     inkscape:zoom="8.877683"
     inkscape:cx="8.3355083"
     inkscape:cy="5.7447422"
     inkscape:window-width="1366"
     inkscape:window-height="707"
     inkscape:window-x="0"
     inkscape:window-y="0"
     inkscape:window-maximized="1"
     inkscape:current-layer="layer1"
     inkscape:document-rotation="0"
     showguides="false">
    <inkscape:grid
       type="xygrid"
       id="grid824" />
  </sodipodi:namedview>
  <defs
     id="defs2" />
  <g
     inkscape:label="Capa 1"
     inkscape:groupmode="layer"
     id="layer1">
    <path
       id="rect2968"
       style="fill-opacity:1;stroke:none;stroke-linecap:round;stroke-linejoin:round"
       d="M 3 1 C 1.338 1 0 2.338 0 4 L 0 12 C 0 13.662 1.338 15 3 15 L 7.25 15 C 6.9972809 14.693212 6.7797098 14.357664 6.5976562 14 L 4 14 C 2.338 14 1 12.662 1 11 L 1 5 C 1 3.338 2.338 2 4 2 L 12 2 C 13.662 2 15 3.338 15 5 L 15 7.25 C 15.380224 7.5632123 15.715934 7.9282852 16 8.3320312 L 16 4 C 16 2.338 14.662 1 13 1 L 3 1 z " />
    <path
       id="rect3243-1-2-7-9-3"
       style="fill-opacity:1;stroke:none;stroke-width:0.816496;stroke-linecap:round;stroke-linejoin:round"
       d="M 4 5 L 4 7 L 8.3320312 7 C 9.2265728 6.3706217 10.318385 6 11.5 6 C 11.66863 6 11.835324 6.0087263 12 6.0234375 L 12 5 L 4 5 z " />
    <path
       id="rect3243-1-2-7-9-3-3"
       style="fill-opacity:1;stroke:none;stroke-width:0.645497;stroke-linecap:round;stroke-linejoin:round"
       d="M 4 9 L 4 11 L 6.0234375 11 C 6.0873952 10.284061 6.2874891 9.6093575 6.5976562 9 L 4 9 z " />
    <path
       id="rect849"
       style="stroke-linecap:round;stroke-linejoin:round;stroke-dasharray:4, 4"
       d="M 11.5,7 C 9.007,7 7,9.007 7,11.5 7,13.993 9.007,16 11.5,16 13.993,16 16,13.993 16,11.5 16,9.007 13.993,7 11.5,7 Z M 11,9 h 1 v 2 h 2 v 1 h -2 v 2 H 11 V 12 H 9 v -1 h 2 z" />
  </g>
</svg>
