<?xml version="1.0" encoding="UTF-8" standalone="no"?>
<svg
   width="16"
   height="16"
   viewBox="0 0 16 16"
   version="1.1"
   id="svg5"
   inkscape:version="1.1.1 (3bf5ae0d25, 2021-09-20, custom)"
   sodipodi:docname="chat-message-new-symbolic.svg"
   xmlns:inkscape="http://www.inkscape.org/namespaces/inkscape"
   xmlns:sodipodi="http://sodipodi.sourceforge.net/DTD/sodipodi-0.dtd"
   xmlns="http://www.w3.org/2000/svg"
   xmlns:svg="http://www.w3.org/2000/svg"
   xmlns:rdf="http://www.w3.org/1999/02/22-rdf-syntax-ns#"
   xmlns:cc="http://creativecommons.org/ns#"
   xmlns:dc="http://purl.org/dc/elements/1.1/">
  <metadata
     id="metadata9">
    <rdf:RDF>
      <cc:Work
         rdf:about="">
        <dc:format>image/svg+xml</dc:format>
        <dc:type
           rdf:resource="http://purl.org/dc/dcmitype/StillImage" />
      </cc:Work>
    </rdf:RDF>
  </metadata>
  <sodipodi:namedview
     id="namedview7"
     pagecolor="#ffffff"
     bordercolor="#666666"
     borderopacity="1.0"
     inkscape:pageshadow="2"
     inkscape:pageopacity="0.0"
     inkscape:pagecheckerboard="0"
     inkscape:document-units="px"
     showgrid="false"
     inkscape:zoom="4.0671692"
     inkscape:cx="6.1467814"
     inkscape:cy="8.3596228"
     inkscape:window-width="1366"
     inkscape:window-height="707"
     inkscape:window-x="0"
     inkscape:window-y="0"
     inkscape:window-maximized="1"
     inkscape:current-layer="layer1"
     inkscape:document-rotation="0">
    <inkscape:grid
       type="xygrid"
       id="grid928" />
  </sodipodi:namedview>
  <defs
     id="defs2" />
  <g
     inkscape:label="Capa 1"
     inkscape:groupmode="layer"
     id="layer1">
    <path
       id="rect4987"
       style="opacity:1;stroke:none;stroke-width:0.960769"
       d="M 3 2 C 1.338 2 0 3.338 0 5 L 0 10 L 0 11 L 0 16 L 4 14 L 6.5976562 14 C 6.5956756 13.996109 6.5937686 13.992178 6.5917969 13.988281 C 6.558266 13.922013 6.5269892 13.854903 6.4960938 13.787109 C 6.4877645 13.768829 6.4788379 13.750811 6.4707031 13.732422 C 6.4385677 13.659795 6.4079544 13.585978 6.3789062 13.511719 C 6.3464398 13.428721 6.3156132 13.344697 6.2871094 13.259766 C 6.2583776 13.174156 6.2316226 13.08746 6.2070312 13 L 4 13 C 3.7276151 13 3.4653596 12.959991 3.2148438 12.892578 L 1.6484375 13.675781 L 1.6464844 13.675781 L 1 14 L 1 13.234375 L 1 11.753906 L 1 10 L 1 8 L 1 6 C 1 4.338 2.338 3 4 3 L 12 3 C 13.662 3 15 4.338 15 6 L 15 7.25 C 15.010992 7.2590545 15.020331 7.2701586 15.03125 7.2792969 C 15.095284 7.3329138 15.159276 7.3868466 15.220703 7.4433594 C 15.258006 7.4776778 15.293757 7.5134798 15.330078 7.5488281 C 15.400112 7.6167172 15.468821 7.6862894 15.535156 7.7578125 C 15.61884 7.8480407 15.699825 7.941377 15.777344 8.0371094 C 15.855114 8.1331535 15.928749 8.2307613 16 8.3320312 L 16 5 C 16 3.338 14.662 2 13 2 L 3 2 z " />
    <rect
       style="opacity:1;stroke:none"
       id="rect5843"
       width="9"
       height="1"
       x="3"
       y="5" />
    <path
       id="rect5843-6"
       style="stroke:none;stroke-width:0.666667"
       d="M 3 8 L 3 9 L 6.5976562 9 C 6.7160565 8.7673896 6.8509361 8.5438972 7 8.3320312 L 7 8 L 3 8 z " />
    <path
       id="rect5843-0"
       style="stroke:none;stroke-width:0.816497"
       d="M 3 10 L 3 11 L 6.0234375 11 C 6.0541681 10.656003 6.1163539 10.322497 6.2070312 10 L 3 10 z " />
    <path
       id="rect849"
       style="stroke-linecap:round;stroke-linejoin:round;stroke-dasharray:4, 4"
       d="M 11.5,7 C 9.007,7 7,9.007 7,11.5 7,13.993 9.007,16 11.5,16 13.993,16 16,13.993 16,11.5 16,9.007 13.993,7 11.5,7 Z M 11,9 h 1 v 2 h 2 v 1 h -2 v 2 H 11 V 12 H 9 v -1 h 2 z" />
  </g>
</svg>
