<?xml version="1.0" encoding="UTF-8" standalone="no"?>
<svg
   width="16"
   height="16"
   viewBox="0 0 16 16"
   version="1.1"
   id="svg5"
   inkscape:version="1.1.1 (3bf5ae0d25, 2021-09-20, custom)"
   sodipodi:docname="document-print-symbolic.svg"
   xmlns:inkscape="http://www.inkscape.org/namespaces/inkscape"
   xmlns:sodipodi="http://sodipodi.sourceforge.net/DTD/sodipodi-0.dtd"
   xmlns="http://www.w3.org/2000/svg"
   xmlns:svg="http://www.w3.org/2000/svg"
   xmlns:rdf="http://www.w3.org/1999/02/22-rdf-syntax-ns#"
   xmlns:cc="http://creativecommons.org/ns#"
   xmlns:dc="http://purl.org/dc/elements/1.1/">
  <metadata
     id="metadata11">
    <rdf:RDF>
      <cc:Work
         rdf:about="">
        <dc:format>image/svg+xml</dc:format>
        <dc:type
           rdf:resource="http://purl.org/dc/dcmitype/StillImage" />
      </cc:Work>
    </rdf:RDF>
  </metadata>
  <sodipodi:namedview
     id="namedview7"
     pagecolor="#ffffff"
     bordercolor="#666666"
     borderopacity="1.0"
     inkscape:pageshadow="2"
     inkscape:pageopacity="0.0"
     inkscape:pagecheckerboard="0"
     inkscape:document-units="px"
     showgrid="false"
     inkscape:zoom="8.8776831"
     inkscape:cx="3.7171861"
     inkscape:cy="5.8573841"
     inkscape:window-width="1366"
     inkscape:window-height="707"
     inkscape:window-x="0"
     inkscape:window-y="0"
     inkscape:window-maximized="1"
     inkscape:current-layer="layer1"
     inkscape:document-rotation="0"
     showguides="false">
    <inkscape:grid
       type="xygrid"
       id="grid824" />
  </sodipodi:namedview>
  <defs
     id="defs2" />
  <g
     inkscape:label="Capa 1"
     inkscape:groupmode="layer"
     id="layer1">
    <path
       id="rect931"
       style="fill:#000000"
       d="M 3 3 C 1.338 3 0 4.338 0 6 L 0 9 C 0 10.662 1.338 12 3 12 L 3 11.25 C 3 11.157215 3.0067714 11.066341 3.0175781 10.976562 C 1.8763757 10.822224 1 9.8507388 1 8.6660156 L 1 6.3339844 C 1 5.0413178 2.0413178 4 3.3339844 4 L 12.666016 4 C 13.958682 4 15 5.0413178 15 6.3339844 L 15 8.6660156 C 15 9.8507388 14.123624 10.822224 12.982422 10.976562 C 12.993229 11.066341 13 11.157215 13 11.25 L 13 12 C 14.662 12 16 10.662 16 9 L 16 6 C 16 4.338 14.662 3 13 3 L 3 3 z " />
    <path
       id="rect1589"
       style="fill:#000000"
       d="M 5 8 C 3.338 8 2 9.338 2 11 L 2 13 C 2 14.662 3.338 16 5 16 L 11 16 C 12.662 16 14 14.662 14 13 L 14 11 C 14 9.338 12.662 8 11 8 L 5 8 z M 5.25 9 L 10.75 9 C 11.9965 9 13 10.0035 13 11.25 L 13 12.75 C 13 13.9965 11.9965 15 10.75 15 L 5.25 15 C 4.0035 15 3 13.9965 3 12.75 L 3 11.25 C 3 10.0035 4.0035 9 5.25 9 z " />
    <path
       id="rect2566"
       style="fill:#000000;stroke-width:1.41421"
       d="M 5 0 C 3.892 0 3 0.892 3 2 L 3 4 C 3 4.0085857 3.0018463 4.0168311 3.0019531 4.0253906 C 3.1102904 4.0100956 3.2212944 4 3.3339844 4 L 4.0449219 4 C 4.017385 3.8929574 4 3.7818516 4 3.6660156 L 4 2.3339844 C 4 1.5953177 4.5953177 1 5.3339844 1 L 10.666016 1 C 11.404682 1 12 1.5953177 12 2.3339844 L 12 3.6660156 C 12 3.7818516 11.982615 3.8929574 11.955078 4 L 12.666016 4 C 12.778706 4 12.88971 4.0100956 12.998047 4.0253906 C 12.998154 4.0168311 13 4.0085857 13 4 L 13 2 C 13 0.892 12.108 0 11 0 L 5 0 z " />
    <rect
       style="fill:#000000;stroke-width:0.707106"
       id="rect2844"
       width="2"
       height="2"
       x="10"
       y="5"
       ry="1" />
    <rect
       style="fill:#000000;stroke-width:0.353553"
       id="rect2844-3"
       width="1"
       height="1"
       x="4"
       y="5"
       ry="0" />
    <rect
       style="fill:#000000;stroke-width:0.353553"
       id="rect2844-3-5"
       width="1"
       height="1"
       x="7"
       y="5"
       ry="0" />
  </g>
</svg>
