<?xml version="1.0" encoding="UTF-8" standalone="no"?>
<svg
   width="16"
   height="16"
   viewBox="0 0 16 16"
   version="1.1"
   id="svg5"
   inkscape:version="1.1.1 (3bf5ae0d25, 2021-09-20, custom)"
   sodipodi:docname="edit-paste-symbolic.svg"
   xmlns:inkscape="http://www.inkscape.org/namespaces/inkscape"
   xmlns:sodipodi="http://sodipodi.sourceforge.net/DTD/sodipodi-0.dtd"
   xmlns="http://www.w3.org/2000/svg"
   xmlns:svg="http://www.w3.org/2000/svg"
   xmlns:rdf="http://www.w3.org/1999/02/22-rdf-syntax-ns#"
   xmlns:cc="http://creativecommons.org/ns#"
   xmlns:dc="http://purl.org/dc/elements/1.1/">
  <metadata
     id="metadata9">
    <rdf:RDF>
      <cc:Work
         rdf:about="">
        <dc:format>image/svg+xml</dc:format>
        <dc:type
           rdf:resource="http://purl.org/dc/dcmitype/StillImage" />
      </cc:Work>
    </rdf:RDF>
  </metadata>
  <sodipodi:namedview
     id="namedview7"
     pagecolor="#ffffff"
     bordercolor="#666666"
     borderopacity="1.0"
     inkscape:pageshadow="2"
     inkscape:pageopacity="0.0"
     inkscape:pagecheckerboard="0"
     inkscape:document-units="px"
     showgrid="false"
     inkscape:zoom="24.439378"
     inkscape:cx="8.9404894"
     inkscape:cy="9.5951705"
     inkscape:window-width="1366"
     inkscape:window-height="707"
     inkscape:window-x="0"
     inkscape:window-y="0"
     inkscape:window-maximized="1"
     inkscape:current-layer="layer1"
     inkscape:document-rotation="0">
    <inkscape:grid
       type="xygrid"
       id="grid928" />
  </sodipodi:namedview>
  <defs
     id="defs2" />
  <g
     inkscape:label="Capa 1"
     inkscape:groupmode="layer"
     id="layer1">
    <path
       id="rect927"
       d="M 4 1 C 2.338 1 1 2.338 1 4 L 1 13 C 1 14.662 2.338 16 4 16 L 12 16 C 13.164153 16 14.166318 15.341413 14.664062 14.376953 C 14.37192 14.754899 13.917176 15 13.400391 15 L 11.400391 15 L 9.5996094 15 L 4.5996094 15 C 3.1592094 15 2 13.840791 2 12.400391 L 2 4.5996094 C 2 3.1592094 3.1592094 2 4.5996094 2 L 11.400391 2 C 12.840791 2 14 3.1592094 14 4.5996094 L 14 7.1171875 C 14.586848 7.3538837 15 7.9260207 15 8.5996094 L 15 4 C 15 2.338 13.662 1 12 1 L 4 1 z " />
    <rect
       id="rect1078"
       width="4"
       height="3"
       x="6"
       y="0"
       ry="1" />
    <path
       id="rect1098"
       style="fill:#000000;stroke-width:1.06066"
       d="M 9 6 C 7.892 6 7 6.892 7 8 L 7 14 C 7 15.108 7.892 16 9 16 L 14 16 C 15.108 16 16 15.108 16 14 L 16 8 C 16 6.892 15.108 6 14 6 L 9 6 z M 9.5996094 7 L 13.400391 7 C 14.286791 7 15 7.7132094 15 8.5996094 L 15 13.400391 C 15 14.286791 14.286791 15 13.400391 15 L 9.5996094 15 C 8.7132094 15 8 14.286791 8 13.400391 L 8 8.5996094 C 8 7.7132094 8.7132094 7 9.5996094 7 z " />
    <rect
       style="fill:#000000"
       id="rect1352"
       width="3"
       height="1"
       x="10"
       y="9" />
    <rect
       style="fill:#000000"
       id="rect1352-7"
       width="3"
       height="1"
       x="10"
       y="12" />
  </g>
</svg>
