<?xml version="1.0" encoding="UTF-8" standalone="no"?>
<svg
   width="16"
   height="16"
   viewBox="0 0 16 16"
   version="1.1"
   id="svg5"
   inkscape:version="1.1.1 (3bf5ae0d25, 2021-09-20, custom)"
   sodipodi:docname="edit-select.svg"
   xmlns:inkscape="http://www.inkscape.org/namespaces/inkscape"
   xmlns:sodipodi="http://sodipodi.sourceforge.net/DTD/sodipodi-0.dtd"
   xmlns="http://www.w3.org/2000/svg"
   xmlns:svg="http://www.w3.org/2000/svg"
   xmlns:rdf="http://www.w3.org/1999/02/22-rdf-syntax-ns#"
   xmlns:cc="http://creativecommons.org/ns#"
   xmlns:dc="http://purl.org/dc/elements/1.1/">
  <metadata
     id="metadata11">
    <rdf:RDF>
      <cc:Work
         rdf:about="">
        <dc:format>image/svg+xml</dc:format>
        <dc:type
           rdf:resource="http://purl.org/dc/dcmitype/StillImage" />
      </cc:Work>
    </rdf:RDF>
  </metadata>
  <sodipodi:namedview
     id="namedview7"
     pagecolor="#ffffff"
     bordercolor="#666666"
     borderopacity="1.0"
     inkscape:pageshadow="2"
     inkscape:pageopacity="0.0"
     inkscape:pagecheckerboard="0"
     inkscape:document-units="px"
     showgrid="false"
     inkscape:zoom="12.55494"
     inkscape:cx="-12.584688"
     inkscape:cy="13.221887"
     inkscape:window-width="1366"
     inkscape:window-height="707"
     inkscape:window-x="0"
     inkscape:window-y="0"
     inkscape:window-maximized="1"
     inkscape:current-layer="layer1"
     inkscape:document-rotation="0"
     showguides="false">
    <inkscape:grid
       type="xygrid"
       id="grid824" />
  </sodipodi:namedview>
  <defs
     id="defs2" />
  <g
     inkscape:label="Capa 1"
     inkscape:groupmode="layer"
     id="layer1">
    <path
       id="rect1197"
       style="stroke-linecap:round;stroke-linejoin:round;stroke-dasharray:4, 4;fill:#000000;fill-opacity:1"
       d="M 11.5,7 C 9.007,7 7,9.007 7,11.5 7,13.993 9.007,16 11.5,16 13.993,16 16,13.993 16,11.5 16,9.007 13.993,7 11.5,7 Z m 0.5,2 2,2 v 1 l -2,2 -1,-1 1,-1 H 9 v -1 h 3 l -1,-1 z" />
    <path
       id="rect929"
       style="stroke-width:1.03775;stroke-linecap:round;stroke-linejoin:round;stroke-dasharray:4.151, 4.151;fill:#000000;fill-opacity:1"
       d="M 6,0 5,1 2,4 1,5 v 8 c 0,1.662 1.338,3 3,3 H 7 V 15 H 4.625 C 3.17075,15 2,13.82925 2,12.375 V 6 H 7 V 1 h 4.375 C 12.82925,1 14,2.17075 14,3.625 V 6 h 1 V 3 C 15,1.338 13.662,0 12,0 Z M 6,2 V 5 H 3 Z" />
  </g>
</svg>
