<?xml version="1.0" encoding="UTF-8" standalone="no"?>
<svg
   width="16"
   height="16"
   viewBox="0 0 16 16"
   version="1.1"
   id="svg5"
   inkscape:version="1.1.1 (3bf5ae0d25, 2021-09-20, custom)"
   sodipodi:docname="folder-new-symbolic.svg"
   xmlns:inkscape="http://www.inkscape.org/namespaces/inkscape"
   xmlns:sodipodi="http://sodipodi.sourceforge.net/DTD/sodipodi-0.dtd"
   xmlns="http://www.w3.org/2000/svg"
   xmlns:svg="http://www.w3.org/2000/svg"
   xmlns:rdf="http://www.w3.org/1999/02/22-rdf-syntax-ns#"
   xmlns:cc="http://creativecommons.org/ns#"
   xmlns:dc="http://purl.org/dc/elements/1.1/">
  <metadata
     id="metadata11">
    <rdf:RDF>
      <cc:Work
         rdf:about="">
        <dc:format>image/svg+xml</dc:format>
        <dc:type
           rdf:resource="http://purl.org/dc/dcmitype/StillImage" />
      </cc:Work>
    </rdf:RDF>
  </metadata>
  <sodipodi:namedview
     id="namedview7"
     pagecolor="#ffffff"
     bordercolor="#666666"
     borderopacity="1.0"
     inkscape:pageshadow="2"
     inkscape:pageopacity="0.0"
     inkscape:pagecheckerboard="0"
     inkscape:document-units="px"
     showgrid="false"
     inkscape:zoom="6.2774699"
     inkscape:cx="4.3010959"
     inkscape:cy="10.83239"
     inkscape:window-width="1366"
     inkscape:window-height="707"
     inkscape:window-x="0"
     inkscape:window-y="0"
     inkscape:window-maximized="1"
     inkscape:current-layer="layer1"
     inkscape:document-rotation="0"
     showguides="false">
    <inkscape:grid
       type="xygrid"
       id="grid824" />
  </sodipodi:namedview>
  <defs
     id="defs2" />
  <g
     inkscape:label="Capa 1"
     inkscape:groupmode="layer"
     id="layer1">
    <path
       id="rect927"
       style="stroke-linecap:round;stroke-linejoin:round;fill-opacity:1"
       d="M 3 0 C 1.338 0 0 1.338 0 3 L 0 7 L 0 7.5996094 L 0 9.4003906 L 0 10 L 0 11 L 0 13 C 0 14.662 1.338 16 3 16 L 8.3320312 16 C 7.9282852 15.715934 7.5632123 15.380224 7.25 15 L 3.625 15 C 2.17075 15 1 13.82925 1 12.375 L 1 11.25 L 1 11 L 1 10 L 1 7 L 7.4003906 7 C 7.6289156 7 7.824528 7.127503 7.9257812 7.3144531 C 8.2327593 7.0522515 8.5693874 6.8248217 8.9296875 6.6347656 C 8.7842563 6.2627201 8.4247768 6 8 6 L 1 6 L 1 3.625 C 1 2.17075 2.17075 1 3.625 1 L 12.375 1 C 13.82925 1 15 2.17075 15 3.625 L 15 7.25 C 15.380224 7.5632123 15.715934 7.9282852 16 8.3320312 L 16 3 C 16 1.338 14.662 0 13 0 L 3 0 z " />
    <path
       id="rect1405"
       style="fill-opacity:1;stroke-linecap:round;stroke-linejoin:round"
       d="M 5 3 C 3.892 3 3 3.892 3 5 L 3 7 L 4 7 L 4 6 C 4 4.892 4.892 4 6 4 L 10 4 C 11.108 4 12 4.892 12 6 L 12 6.0234375 C 12.343997 6.0541681 12.677503 6.1163539 13 6.2070312 L 13 5 C 13 3.892 12.108 3 11 3 L 5 3 z " />
    <path
       id="rect849"
       style="stroke-linecap:round;stroke-linejoin:round;stroke-dasharray:4, 4"
       d="M 11.5,7 C 9.007,7 7,9.007 7,11.5 7,13.993 9.007,16 11.5,16 13.993,16 16,13.993 16,11.5 16,9.007 13.993,7 11.5,7 Z M 11,9 h 1 v 2 h 2 v 1 h -2 v 2 H 11 V 12 H 9 v -1 h 2 z" />
  </g>
</svg>
