<?xml version="1.0" encoding="UTF-8" standalone="no"?>
<svg
   width="16"
   height="16"
   viewBox="0 0 16 16"
   version="1.1"
   id="svg5"
   inkscape:version="1.1.1 (3bf5ae0d25, 2021-09-20, custom)"
   sodipodi:docname="go-home-symbolic.svg"
   xmlns:inkscape="http://www.inkscape.org/namespaces/inkscape"
   xmlns:sodipodi="http://sodipodi.sourceforge.net/DTD/sodipodi-0.dtd"
   xmlns="http://www.w3.org/2000/svg"
   xmlns:svg="http://www.w3.org/2000/svg"
   xmlns:rdf="http://www.w3.org/1999/02/22-rdf-syntax-ns#"
   xmlns:cc="http://creativecommons.org/ns#"
   xmlns:dc="http://purl.org/dc/elements/1.1/">
  <metadata
     id="metadata10">
    <rdf:RDF>
      <cc:Work
         rdf:about="">
        <dc:format>image/svg+xml</dc:format>
        <dc:type
           rdf:resource="http://purl.org/dc/dcmitype/StillImage" />
      </cc:Work>
    </rdf:RDF>
  </metadata>
  <sodipodi:namedview
     id="namedview7"
     pagecolor="#ffffff"
     bordercolor="#666666"
     borderopacity="1.0"
     inkscape:pageshadow="2"
     inkscape:pageopacity="0.0"
     inkscape:pagecheckerboard="0"
     inkscape:document-units="px"
     showgrid="false"
     inkscape:zoom="9.3831785"
     inkscape:cx="6.5009954"
     inkscape:cy="10.657369"
     inkscape:window-width="1366"
     inkscape:window-height="707"
     inkscape:window-x="0"
     inkscape:window-y="0"
     inkscape:window-maximized="1"
     inkscape:current-layer="layer1"
     inkscape:document-rotation="0">
    <inkscape:grid
       type="xygrid"
       id="grid1468" />
  </sodipodi:namedview>
  <defs
     id="defs2" />
  <g
     inkscape:label="Capa 1"
     inkscape:groupmode="layer"
     id="layer1">
    <path
       id="rect1378"
       style="fill-opacity:1;stroke:none;stroke-linecap:round;stroke-linejoin:round"
       d="M 6 6 C 4.338 6 3 7.338 3 9 L 3 13 C 3 14.662 4.338 16 6 16 L 10 16 C 11.662 16 13 14.662 13 13 L 13 9 C 13 7.338 11.662 6 10 6 L 6 6 z M 6.4003906 7 L 9.5996094 7 C 10.929209 7 12 8.0707906 12 9.4003906 L 12 12.599609 C 12 13.929209 10.929209 15 9.5996094 15 L 6.4003906 15 C 5.0707906 15 4 13.929209 4 12.599609 L 4 9.4003906 C 4 8.0707906 5.0707906 7 6.4003906 7 z " />
    <path
       style="stroke:none;stroke-width:1px;stroke-linecap:butt;stroke-linejoin:miter;stroke-opacity:1;fill-opacity:1"
       d="M 7,0 H 9 L 16,6 15,7 8,1 1,7 0,6 Z"
       id="path859" />
  </g>
</svg>
