<?xml version="1.0" encoding="UTF-8" standalone="no"?>
<!-- Created with Inkscape (http://www.inkscape.org/) -->

<svg
   width="16"
   height="16"
   viewBox="0 0 16 16"
   version="1.1"
   id="svg5"
   inkscape:version="1.1.1 (3bf5ae0d25, 2021-09-20, custom)"
   sodipodi:docname="window-maximize-symbolic.svg"
   xmlns:inkscape="http://www.inkscape.org/namespaces/inkscape"
   xmlns:sodipodi="http://sodipodi.sourceforge.net/DTD/sodipodi-0.dtd"
   xmlns="http://www.w3.org/2000/svg"
   xmlns:svg="http://www.w3.org/2000/svg">
  <sodipodi:namedview
     id="namedview7"
     pagecolor="#ffffff"
     bordercolor="#666666"
     borderopacity="1.0"
     inkscape:pageshadow="2"
     inkscape:pageopacity="0.0"
     inkscape:pagecheckerboard="0"
     inkscape:document-units="px"
     showgrid="false"
     inkscape:zoom="17.28125"
     inkscape:cx="7.8987342"
     inkscape:cy="7.9855335"
     inkscape:window-width="1366"
     inkscape:window-height="688"
     inkscape:window-x="0"
     inkscape:window-y="0"
     inkscape:window-maximized="1"
     inkscape:current-layer="layer2">
    <inkscape:grid
       type="xygrid"
       id="grid824" />
  </sodipodi:namedview>
  <defs
     id="defs2" />
  <g
     inkscape:label="Base"
     inkscape:groupmode="layer"
     id="layer1">
    <path
       id="rect928"
       style="stroke-linecap:round;stroke-linejoin:round;stroke-dasharray:4, 4;fill:#000000;fill-opacity:1"
       d="M 8 0 C 3.568 0 0 3.568 0 8 C 0 12.432 3.568 16 8 16 C 12.432 16 16 12.432 16 8 C 16 3.568 12.432 0 8 0 z M 8 1 C 11.878 1 15 4.122 15 8 C 15 11.878 11.878 15 8 15 C 4.122 15 1 11.878 1 8 C 1 4.122 4.122 1 8 1 z " />
  </g>
  <g
     inkscape:groupmode="layer"
     id="layer2"
     inkscape:label="ícono">
    <path
       id="rect33"
       style="fill-rule:evenodd;fill:#000000;fill-opacity:1"
       d="M 6 4 C 4.892 4 4 4.892 4 6 L 4 10 C 4 11.108 4.892 12 6 12 L 10 12 C 11.108 12 12 11.108 12 10 L 12 6 C 12 4.892 11.108 4 10 4 L 6 4 z M 6 5 L 10 5 C 10.554 5 11 5.446 11 6 L 11 10 C 11 10.554 10.554 11 10 11 L 6 11 C 5.446 11 5 10.554 5 10 L 5 6 C 5 5.446 5.446 5 6 5 z " />
  </g>
</svg>
