<?xml version="1.0" encoding="UTF-8" standalone="no"?>
<svg
   width="32"
   height="32"
   viewBox="0 0 32 32"
   version="1.1"
   id="svg5"
   inkscape:version="1.1.1 (3bf5ae0d25, 2021-09-20, custom)"
   sodipodi:docname="application-x-sharedlib.svg"
   xmlns:inkscape="http://www.inkscape.org/namespaces/inkscape"
   xmlns:sodipodi="http://sodipodi.sourceforge.net/DTD/sodipodi-0.dtd"
   xmlns="http://www.w3.org/2000/svg"
   xmlns:svg="http://www.w3.org/2000/svg"
   xmlns:rdf="http://www.w3.org/1999/02/22-rdf-syntax-ns#"
   xmlns:cc="http://creativecommons.org/ns#"
   xmlns:dc="http://purl.org/dc/elements/1.1/">
  <metadata
     id="metadata11">
    <rdf:RDF>
      <cc:Work
         rdf:about="">
        <dc:format>image/svg+xml</dc:format>
        <dc:type
           rdf:resource="http://purl.org/dc/dcmitype/StillImage" />
      </cc:Work>
    </rdf:RDF>
  </metadata>
  <sodipodi:namedview
     id="namedview7"
     pagecolor="#ffffff"
     bordercolor="#666666"
     borderopacity="1.0"
     inkscape:pageshadow="2"
     inkscape:pageopacity="0.0"
     inkscape:pagecheckerboard="0"
     inkscape:document-units="px"
     showgrid="false"
     inkscape:zoom="4.4388415"
     inkscape:cx="3.3792601"
     inkscape:cy="6.3079522"
     inkscape:window-width="1366"
     inkscape:window-height="707"
     inkscape:window-x="0"
     inkscape:window-y="0"
     inkscape:window-maximized="1"
     inkscape:current-layer="layer1"
     inkscape:document-rotation="0"
     showguides="false">
    <inkscape:grid
       type="xygrid"
       id="grid824" />
  </sodipodi:namedview>
  <defs
     id="defs2" />
  <g
     inkscape:label="Capa 1"
     inkscape:groupmode="layer"
     id="layer1">
    <path
       id="rect871-3"
       style="fill:#252e59;fill-opacity:1;stroke:none;stroke-width:0.516399;stroke-linecap:round;stroke-linejoin:round"
       d="m 14,20 v 6 H 11.199219 C 10.534419,26 10,26.534418 10,27.199218 v 1.601564 C 10,29.465582 10.534419,30 11.199219,30 h 4 1.601562 4.000001 C 21.465582,30 22,29.465582 22,28.800782 V 27.199218 C 22,26.534418 21.465582,26 20.800782,26 H 18 v -6 z" />
    <path
       id="rect871"
       style="fill:#252e59;fill-opacity:1;stroke:none;stroke-width:1.88561;stroke-linecap:round;stroke-linejoin:round"
       d="M 6,2 C 2.676,2 0,4.676 0,8 v 8 c 0,3.324 2.676,6 6,6 h 20 c 3.324,0 6,-2.676 6,-6 V 8 C 32,4.676 29.324,2 26,2 Z M 6.8007812,4 H 25.199218 C 27.858418,4 30,6.1415812 30,8.8007812 V 15.199219 C 30,17.858419 27.858418,20 25.199218,20 H 6.8007812 C 4.1415812,20 2,17.858419 2,15.199219 V 8.8007812 C 2,6.1415812 4.1415812,4 6.8007812,4 Z" />
  </g>
</svg>
