<?xml version="1.0" encoding="UTF-8" standalone="no"?>
<svg
   width="32"
   height="32"
   viewBox="0 0 32 32"
   version="1.1"
   id="svg5"
   inkscape:version="1.1.1 (3bf5ae0d25, 2021-09-20, custom)"
   sodipodi:docname="image-x-generic.svg"
   xmlns:inkscape="http://www.inkscape.org/namespaces/inkscape"
   xmlns:sodipodi="http://sodipodi.sourceforge.net/DTD/sodipodi-0.dtd"
   xmlns="http://www.w3.org/2000/svg"
   xmlns:svg="http://www.w3.org/2000/svg"
   xmlns:rdf="http://www.w3.org/1999/02/22-rdf-syntax-ns#"
   xmlns:cc="http://creativecommons.org/ns#"
   xmlns:dc="http://purl.org/dc/elements/1.1/">
  <metadata
     id="metadata11">
    <rdf:RDF>
      <cc:Work
         rdf:about="">
        <dc:format>image/svg+xml</dc:format>
        <dc:type
           rdf:resource="http://purl.org/dc/dcmitype/StillImage" />
      </cc:Work>
    </rdf:RDF>
  </metadata>
  <sodipodi:namedview
     id="namedview7"
     pagecolor="#ffffff"
     bordercolor="#666666"
     borderopacity="1.0"
     inkscape:pageshadow="2"
     inkscape:pageopacity="0.0"
     inkscape:pagecheckerboard="0"
     inkscape:document-units="px"
     showgrid="false"
     inkscape:zoom="6.27747"
     inkscape:cx="12.584688"
     inkscape:cy="18.797382"
     inkscape:window-width="1366"
     inkscape:window-height="707"
     inkscape:window-x="0"
     inkscape:window-y="0"
     inkscape:window-maximized="1"
     inkscape:current-layer="layer1"
     inkscape:document-rotation="0"
     showguides="false"
     width="15px">
    <inkscape:grid
       type="xygrid"
       id="grid824" />
  </sodipodi:namedview>
  <defs
     id="defs2">
    <clipPath
       clipPathUnits="userSpaceOnUse"
       id="clipPath3575">
      <rect
         style="fill:#313131;fill-opacity:1;stroke-linecap:round;stroke-linejoin:round"
         id="rect3577"
         width="14"
         height="12"
         x="1"
         y="2"
         ry="3" />
    </clipPath>
    <clipPath
       clipPathUnits="userSpaceOnUse"
       id="clipPath3579">
      <rect
         style="fill:#313131;fill-opacity:1;stroke-linecap:round;stroke-linejoin:round"
         id="rect3581"
         width="14"
         height="12"
         x="1"
         y="2"
         ry="3" />
    </clipPath>
    <clipPath
       clipPathUnits="userSpaceOnUse"
       id="clipPath3583">
      <rect
         style="fill:#313131;fill-opacity:1;stroke-linecap:round;stroke-linejoin:round"
         id="rect3585"
         width="14"
         height="12"
         x="1"
         y="2"
         ry="3" />
    </clipPath>
  </defs>
  <g
     inkscape:label="Capa 1"
     inkscape:groupmode="layer"
     id="layer1">
    <path
       id="rect1996"
       style="fill:#44b8ea;fill-opacity:1;stroke-width:1.99999;stroke-linecap:round;stroke-linejoin:round"
       d="M 6.0000005,1.9999995 C 2.6760008,1.9999995 1.0724605e-6,4.6759996 1.0724605e-6,7.9999997 V 24 c 0,3.324001 2.6759997275395,6.000001 5.9999994275395,6.000001 H 25.999998 c 3.324,0 6,-2.676 6,-6.000001 V 7.9999997 c 0,-3.3240001 -2.676,-6.0000002 -6,-6.0000002 z M 8.0000003,3.9999996 H 23.999999 c 3.323999,0 5.999999,2.6760001 5.999999,6.0000002 V 22 c 0,3.324 -2.676,6.000001 -5.999999,6.000001 H 8.0000003 C 4.6760006,28.000001 2.0000009,25.324 2.0000009,22 V 9.9999998 c 0,-3.3240001 2.6759997,-6.0000002 5.9999994,-6.0000002 z" />
    <path
       style="fill:#52ed24;fill-opacity:1;stroke:none;stroke-width:0.999999px;stroke-linecap:butt;stroke-linejoin:miter;stroke-opacity:1"
       d="M 4,9 0,14 H 8 Z"
       id="path2525-5"
       sodipodi:nodetypes="cccc"
       clip-path="url(#clipPath3583)"
       transform="matrix(1.9999998,0,0,2.0000001,1.0724605e-6,-6.086293e-7)" />
    <path
       style="fill:#52ed24;fill-opacity:1;stroke:none;stroke-width:1.22474px;stroke-linecap:butt;stroke-linejoin:miter;stroke-opacity:1"
       d="m 15,8 -5,6 h 10 z"
       id="path2525-5-2"
       sodipodi:nodetypes="cccc"
       clip-path="url(#clipPath3579)"
       transform="matrix(1.9999998,0,0,2.0000001,1.0724605e-6,-6.086293e-7)" />
    <path
       style="fill:#b6f128;fill-opacity:1;stroke:none;stroke-width:0.999999px;stroke-linecap:butt;stroke-linejoin:miter;stroke-opacity:1"
       d="m 8,10 -4,5 h 8 z"
       id="path2525-5-6"
       sodipodi:nodetypes="cccc"
       clip-path="url(#clipPath3575)"
       transform="matrix(1.9999998,0,0,2.0000001,1.0724605e-6,-6.086293e-7)" />
    <rect
       style="fill:url(#linearGradient5823);fill-opacity:1;stroke-width:1.36011;stroke-linecap:round;stroke-linejoin:round"
       id="rect5821"
       width="38"
       height="24.000004"
       x="-1.0724607e-06"
       y="6.0862925e-07"
       ry="7.0588217" />
    <rect
       style="fill:#ffde00;fill-opacity:1;stroke-width:2.99999;stroke-linecap:round;stroke-linejoin:round"
       id="rect3658"
       width="5.9999995"
       height="6.0000005"
       x="18"
       y="7.9999995"
       ry="3.0000002" />
  </g>
</svg>
