<?xml version="1.0" encoding="UTF-8" standalone="no"?>
<svg
   width="32"
   height="32"
   viewBox="0 0 32 32"
   version="1.1"
   id="svg5"
   inkscape:version="1.1.1 (3bf5ae0d25, 2021-09-20, custom)"
   sodipodi:docname="inode-directory.svg"
   xmlns:inkscape="http://www.inkscape.org/namespaces/inkscape"
   xmlns:sodipodi="http://sodipodi.sourceforge.net/DTD/sodipodi-0.dtd"
   xmlns="http://www.w3.org/2000/svg"
   xmlns:svg="http://www.w3.org/2000/svg"
   xmlns:rdf="http://www.w3.org/1999/02/22-rdf-syntax-ns#"
   xmlns:cc="http://creativecommons.org/ns#"
   xmlns:dc="http://purl.org/dc/elements/1.1/">
  <metadata
     id="metadata11">
    <rdf:RDF>
      <cc:Work
         rdf:about="">
        <dc:format>image/svg+xml</dc:format>
        <dc:type
           rdf:resource="http://purl.org/dc/dcmitype/StillImage" />
      </cc:Work>
    </rdf:RDF>
  </metadata>
  <sodipodi:namedview
     id="namedview7"
     pagecolor="#ffffff"
     bordercolor="#666666"
     borderopacity="1.0"
     inkscape:pageshadow="2"
     inkscape:pageopacity="0.0"
     inkscape:pagecheckerboard="0"
     inkscape:document-units="px"
     showgrid="false"
     inkscape:zoom="8.877683"
     inkscape:cx="15.094028"
     inkscape:cy="10.813632"
     inkscape:window-width="1366"
     inkscape:window-height="707"
     inkscape:window-x="0"
     inkscape:window-y="0"
     inkscape:window-maximized="1"
     inkscape:current-layer="layer1"
     inkscape:document-rotation="0"
     showguides="false">
    <inkscape:grid
       type="xygrid"
       id="grid824" />
  </sodipodi:namedview>
  <defs
     id="defs2" />
  <g
     inkscape:label="Capa 1"
     inkscape:groupmode="layer"
     id="layer1">
    <path
       id="rect927"
       style="fill:#232323;fill-opacity:1;stroke-width:1.99999;stroke-linecap:round;stroke-linejoin:round"
       d="M 6,0 C 2.676,0 0,2.676 0,6 v 8 1.199219 3.601562 V 20 v 2 4 c 0,3.324 2.676,6 6,6 h 20 c 3.324,0 6,-2.676 6,-6 V 22 6 C 32,2.676 29.324,0 26,0 Z m 1.25,2 h 17.5 C 27.6585,2 30,4.3415 30,7.25 V 17.53125 C 28.939328,16.581801 27.542134,16 26,16 h -8 v -2 c 0,-1.108 -0.892,-2 -2,-2 H 2 V 7.25 C 2,4.3415 4.3415,2 7.25,2 Z M 2,14 H 14.800781 C 15.465581,14 16,14.534419 16,15.199219 V 16 18 h 2 7.5 c 2.493,0 4.5,2.007 4.5,4.5 v 2.25 C 30,27.6585 27.6585,30 24.75,30 H 7.25 C 4.3415,30 2,27.6585 2,24.75 V 22.5 22 20 Z" />
    <path
       id="rect1405"
       style="fill:#232323;fill-opacity:1;stroke-width:1.99999;stroke-linecap:round;stroke-linejoin:round"
       d="M 10,6 C 7.784,6 6,7.784 6,10 v 4 H 8 V 12 C 8,9.784 9.784,8 12,8 h 8 c 2.216,0 4,1.784 4,4 v 6 h 1.5 c 0.169268,0 0.33569,0.0093 0.5,0.02734 V 10 C 26,7.784 24.216,6 22,6 Z" />
  </g>
</svg>
