<?xml version="1.0" encoding="UTF-8" standalone="no"?>
<svg
   width="32"
   height="32"
   viewBox="0 0 32 32"
   version="1.1"
   id="svg5"
   inkscape:version="1.1.1 (3bf5ae0d25, 2021-09-20, custom)"
   sodipodi:docname="x-office-presentation.svg"
   xmlns:inkscape="http://www.inkscape.org/namespaces/inkscape"
   xmlns:sodipodi="http://sodipodi.sourceforge.net/DTD/sodipodi-0.dtd"
   xmlns="http://www.w3.org/2000/svg"
   xmlns:svg="http://www.w3.org/2000/svg"
   xmlns:rdf="http://www.w3.org/1999/02/22-rdf-syntax-ns#"
   xmlns:cc="http://creativecommons.org/ns#"
   xmlns:dc="http://purl.org/dc/elements/1.1/">
  <metadata
     id="metadata11">
    <rdf:RDF>
      <cc:Work
         rdf:about="">
        <dc:format>image/svg+xml</dc:format>
        <dc:type
           rdf:resource="http://purl.org/dc/dcmitype/StillImage" />
      </cc:Work>
    </rdf:RDF>
  </metadata>
  <sodipodi:namedview
     id="namedview7"
     pagecolor="#ffffff"
     bordercolor="#666666"
     borderopacity="1.0"
     inkscape:pageshadow="2"
     inkscape:pageopacity="0.0"
     inkscape:pagecheckerboard="0"
     inkscape:document-units="px"
     showgrid="false"
     inkscape:zoom="4.4388416"
     inkscape:cx="2.928692"
     inkscape:cy="9.2366441"
     inkscape:window-width="1366"
     inkscape:window-height="707"
     inkscape:window-x="0"
     inkscape:window-y="0"
     inkscape:window-maximized="1"
     inkscape:current-layer="layer1"
     inkscape:document-rotation="0"
     showguides="false">
    <inkscape:grid
       type="xygrid"
       id="grid824" />
  </sodipodi:namedview>
  <defs
     id="defs2" />
  <g
     inkscape:label="Capa 1"
     inkscape:groupmode="layer"
     id="layer1">
    <path
       id="rect929"
       style="fill:#df243e;fill-opacity:1;stroke-width:2.0755;stroke-linecap:round;stroke-linejoin:round;stroke-dasharray:8.302, 8.302"
       d="M 12,0 10,2 4,8 2,10 v 16 c 0,3.324 2.676,6 6,6 h 6 10 c 3.324,0 6,-2.676 6,-6 V 12 6 C 30,2.676 27.324,0 24,0 Z m 2,2 h 8.75 C 25.6585,2 28,4.3415 28,7.25 V 12 24.75 C 28,27.6585 25.6585,30 22.75,30 H 14 9.25 C 6.3415,30 4,27.6585 4,24.75 V 12 h 10 z m -2,2 v 6 H 6 Z" />
    <rect
       style="fill:#232323;fill-opacity:1;stroke-width:1;stroke-linecap:round;stroke-linejoin:round"
       id="rect889-3"
       width="8"
       height="2"
       x="16"
       y="18"
       ry="0" />
    <rect
       style="fill:#df2e24;fill-opacity:1;stroke-width:1.5;stroke-linecap:round;stroke-linejoin:round"
       id="rect889-3-3"
       width="6"
       height="6"
       x="8"
       y="18"
       ry="3" />
    <rect
       style="fill:#232323;fill-opacity:1;stroke-width:1;stroke-linecap:round;stroke-linejoin:round"
       id="rect889-3-6"
       width="8"
       height="2"
       x="16"
       y="22"
       ry="0" />
  </g>
</svg>
