<?xml version="1.0" encoding="UTF-8" standalone="no"?>
<svg
   width="16"
   height="16"
   viewBox="0 0 4.2333332 4.2333335"
   version="1.1"
   id="svg8"
   inkscape:version="1.1.1 (3bf5ae0d25, 2021-09-20, custom)"
   sodipodi:docname="battery-level-100-charging-symbolic.svg"
   xmlns:inkscape="http://www.inkscape.org/namespaces/inkscape"
   xmlns:sodipodi="http://sodipodi.sourceforge.net/DTD/sodipodi-0.dtd"
   xmlns="http://www.w3.org/2000/svg"
   xmlns:svg="http://www.w3.org/2000/svg"
   xmlns:rdf="http://www.w3.org/1999/02/22-rdf-syntax-ns#"
   xmlns:cc="http://creativecommons.org/ns#"
   xmlns:dc="http://purl.org/dc/elements/1.1/">
  <defs
     id="defs2" />
  <sodipodi:namedview
     id="base"
     pagecolor="#ffffff"
     bordercolor="#666666"
     borderopacity="1.0"
     inkscape:pageopacity="0.0"
     inkscape:pageshadow="2"
     inkscape:zoom="22.4"
     inkscape:cx="14.642857"
     inkscape:cy="10.982143"
     inkscape:document-units="mm"
     inkscape:current-layer="layer1"
     inkscape:document-rotation="0"
     showgrid="false"
     units="px"
     inkscape:window-width="1366"
     inkscape:window-height="707"
     inkscape:window-x="0"
     inkscape:window-y="0"
     inkscape:window-maximized="1"
     inkscape:pagecheckerboard="0">
    <inkscape:grid
       type="xygrid"
       id="grid833" />
  </sodipodi:namedview>
  <metadata
     id="metadata5">
    <rdf:RDF>
      <cc:Work
         rdf:about="">
        <dc:format>image/svg+xml</dc:format>
        <dc:type
           rdf:resource="http://purl.org/dc/dcmitype/StillImage" />
      </cc:Work>
    </rdf:RDF>
  </metadata>
  <g
     inkscape:label="Capa 1"
     inkscape:groupmode="layer"
     id="layer1">
    <path
       id="rect928"
       style="stroke-width:0.999999"
       d="M 3 3 C 1.338 3 -2.9605947e-16 4.338 0 6 L 0 10 C 2.9605947e-16 11.662 1.338 13 3 13 L 6.2050781 13 C 6.1146568 12.67801 6.0521578 12.343412 6.0214844 12 L 3.4003906 12 C 2.0707906 12 1 10.929209 1 9.5996094 L 1 6.4003906 C 1 5.0707906 2.0707906 4 3.4003906 4 L 10.599609 4 C 11.861933 4 12.88933 4.965687 12.990234 6.2011719 C 13.342851 6.2994762 13.68013 6.4329513 14 6.5957031 L 14 6 C 14 4.338 12.662 3 11 3 L 3 3 z "
       transform="scale(0.26458333)" />
    <path
       id="rect930"
       style="stroke-width:0.816495"
       d="M 15.316406 6 C 15.139797 6.0088947 15 6.1550886 15 6.3339844 L 15 7.25 C 15.379578 7.5626773 15.716235 7.9271578 16 8.3300781 L 16 6.3339844 C 16 6.1493177 15.850682 6 15.666016 6 L 15.333984 6 C 15.328214 6 15.322103 5.9997131 15.316406 6 z "
       transform="scale(0.26458333)" />
    <path
       id="rect1427"
       style="stroke-width:0.999999"
       d="M 4 5 C 2.8919999 5 2 5.8919999 2 7 L 2 9 C 2 10.108 2.8919999 11 4 11 L 6.0214844 11 C 6.2725547 8.1890791 8.6216027 6 11.5 6 C 11.579349 6 11.657818 6.0025651 11.736328 6.0058594 C 11.392309 5.4041191 10.745515 5 10 5 L 4 5 z "
       transform="scale(0.26458333)" />
    <path
       id="rect2184"
       style="fill-opacity:1;stroke:none;stroke-width:0.318209;stroke-linecap:round;stroke-linejoin:round;stroke-miterlimit:4;stroke-dasharray:none;stroke-opacity:1"
       d="m 3.0427088,1.8520834 c -0.6596062,0 -1.190625,0.5310188 -1.190625,1.190625 0,0.6596062 0.5310188,1.190625 1.190625,1.190625 0.6596062,0 1.190625,-0.5310188 1.190625,-1.190625 0,-0.6596062 -0.5310188,-1.190625 -1.190625,-1.190625 z m -0.2713014,0.79375 c 0.00225,-1.139e-4 0.00443,0 0.00672,0 0.07329,0 0.1322917,0.059002 0.1322917,0.1322917 V 2.9104167 H 3.0359905 3.0494255 3.175 V 2.7781251 c 0,-0.070999 0.055482,-0.1287616 0.1255736,-0.1322917 0.00225,-1.139e-4 0.00443,0 0.00672,0 0.07329,0 0.1322916,0.059002 0.1322916,0.1322917 v 0.2578653 c 1.138e-4,0.00225 0,0.00443 0,0.00672 0,0.00916 -8.202e-4,0.018246 -0.00259,0.026872 -0.00175,0.00863 -0.00441,0.016886 -0.00775,0.024805 -0.00334,0.00792 -0.00766,0.015185 -0.012404,0.022222 -0.00474,0.00704 -0.010041,0.013658 -0.016021,0.019637 -0.00598,0.00598 -0.012602,0.011274 -0.019637,0.01602 -0.00704,0.00475 -0.014301,0.00906 -0.022222,0.012404 -0.00792,0.00334 -0.016177,0.006 -0.024805,0.00775 -0.00861,0.00175 -0.017696,0.00258 -0.026858,0.00258 H 3.1750005 v 0.1322913 c 0,0.07329 -0.059002,0.1322917 -0.1322917,0.1322917 -0.07329,0 -0.1322917,-0.059002 -0.1322917,-0.1322917 V 3.1750001 H 2.7781255 c -0.00916,0 -0.018246,-8.202e-4 -0.026872,-0.00259 -0.00863,-0.00175 -0.016886,-0.00441 -0.024805,-0.00775 -0.00792,-0.00334 -0.015185,-0.00766 -0.022222,-0.012404 -0.00704,-0.00474 -0.013658,-0.010041 -0.019637,-0.01602 -0.00598,-0.00598 -0.011274,-0.012602 -0.01602,-0.019637 -0.00475,-0.00704 -0.00906,-0.014301 -0.012404,-0.022222 -0.00334,-0.00792 -0.006,-0.016177 -0.00775,-0.024805 -0.00175,-0.00861 -0.00258,-0.017697 -0.00258,-0.026858 v -0.00672 -0.2578653 c 0,-0.070999 0.055482,-0.1287616 0.1255736,-0.1322917 z" />
  </g>
</svg>
