<?xml version="1.0" encoding="UTF-8" standalone="no"?>
<svg
   width="16"
   height="16"
   viewBox="0 0 4.2333332 4.2333335"
   version="1.1"
   id="svg8"
   inkscape:version="1.1.1 (3bf5ae0d25, 2021-09-20, custom)"
   sodipodi:docname="battery-level-60-symbolic.svg"
   xmlns:inkscape="http://www.inkscape.org/namespaces/inkscape"
   xmlns:sodipodi="http://sodipodi.sourceforge.net/DTD/sodipodi-0.dtd"
   xmlns="http://www.w3.org/2000/svg"
   xmlns:svg="http://www.w3.org/2000/svg"
   xmlns:rdf="http://www.w3.org/1999/02/22-rdf-syntax-ns#"
   xmlns:cc="http://creativecommons.org/ns#"
   xmlns:dc="http://purl.org/dc/elements/1.1/">
  <defs
     id="defs2" />
  <sodipodi:namedview
     id="base"
     pagecolor="#ffffff"
     bordercolor="#666666"
     borderopacity="1.0"
     inkscape:pageopacity="0.0"
     inkscape:pageshadow="2"
     inkscape:zoom="22.4"
     inkscape:cx="7.4999999"
     inkscape:cy="7.4999999"
     inkscape:document-units="mm"
     inkscape:current-layer="layer1"
     inkscape:document-rotation="0"
     showgrid="false"
     units="px"
     inkscape:window-width="1366"
     inkscape:window-height="707"
     inkscape:window-x="0"
     inkscape:window-y="0"
     inkscape:window-maximized="1"
     inkscape:pagecheckerboard="0">
    <inkscape:grid
       type="xygrid"
       id="grid833" />
  </sodipodi:namedview>
  <metadata
     id="metadata5">
    <rdf:RDF>
      <cc:Work
         rdf:about="">
        <dc:format>image/svg+xml</dc:format>
        <dc:type
           rdf:resource="http://purl.org/dc/dcmitype/StillImage" />
      </cc:Work>
    </rdf:RDF>
  </metadata>
  <g
     inkscape:label="Capa 1"
     inkscape:groupmode="layer"
     id="layer1">
    <path
       id="rect928"
       style="stroke-width:0.999999"
       d="M 3 3 C 1.338 3 0 4.338 0 6 L 0 10 C 2.9605947e-16 11.662 1.338 13 3 13 L 11 13 C 12.662 13 14 11.662 14 10 L 14 6 C 14 4.338 12.662 3 11 3 L 3 3 z M 3.4003906 4 L 10.599609 4 C 11.929209 4 13 5.0707906 13 6.4003906 L 13 9.5996094 C 13 10.929209 11.929209 12 10.599609 12 L 3.4003906 12 C 2.0707906 12 1 10.929209 1 9.5996094 L 1 6.4003906 C 1 5.0707906 2.0707906 4 3.4003906 4 z "
       transform="scale(0.26458333)" />
    <rect
       style="stroke-width:0.216031"
       id="rect930"
       width="0.26458332"
       height="1.0583334"
       x="3.96875"
       y="1.5875"
       ry="0.088194437" />
    <rect
       id="rect1427"
       width="1.5875001"
       height="1.5875"
       x="0.52916664"
       y="1.3229166"
       ry="0.5291667"
       style="stroke-width:0.204945" />
  </g>
</svg>
