<?xml version="1.0" encoding="UTF-8" standalone="no"?>
<svg
   width="16"
   height="16"
   viewBox="0 0 4.2333332 4.2333335"
   version="1.1"
   id="svg8"
   inkscape:version="1.1.1 (3bf5ae0d25, 2021-09-20, custom)"
   sodipodi:docname="network-wireless-acquiring-symbolic.svg"
   xmlns:inkscape="http://www.inkscape.org/namespaces/inkscape"
   xmlns:sodipodi="http://sodipodi.sourceforge.net/DTD/sodipodi-0.dtd"
   xmlns="http://www.w3.org/2000/svg"
   xmlns:svg="http://www.w3.org/2000/svg"
   xmlns:rdf="http://www.w3.org/1999/02/22-rdf-syntax-ns#"
   xmlns:cc="http://creativecommons.org/ns#"
   xmlns:dc="http://purl.org/dc/elements/1.1/">
  <defs
     id="defs2" />
  <sodipodi:namedview
     id="base"
     pagecolor="#ffffff"
     bordercolor="#666666"
     borderopacity="1.0"
     inkscape:pageopacity="0.0"
     inkscape:pageshadow="2"
     inkscape:zoom="11.2"
     inkscape:cx="9.1071429"
     inkscape:cy="13.660714"
     inkscape:document-units="mm"
     inkscape:current-layer="layer1"
     inkscape:document-rotation="0"
     showgrid="false"
     units="px"
     inkscape:window-width="1366"
     inkscape:window-height="707"
     inkscape:window-x="0"
     inkscape:window-y="0"
     inkscape:window-maximized="1"
     inkscape:pagecheckerboard="0">
    <inkscape:grid
       type="xygrid"
       id="grid833" />
  </sodipodi:namedview>
  <metadata
     id="metadata5">
    <rdf:RDF>
      <cc:Work
         rdf:about="">
        <dc:format>image/svg+xml</dc:format>
        <dc:type
           rdf:resource="http://purl.org/dc/dcmitype/StillImage" />
      </cc:Work>
    </rdf:RDF>
  </metadata>
  <g
     inkscape:label="Capa 1"
     inkscape:groupmode="layer"
     id="layer1">
    <path
       id="rect2682-6-9"
       style="fill-opacity:1;stroke:none;stroke-width:1.08012;opacity:0.5"
       d="M 8 6 C 6.3201257 6 4.7106377 6.2942823 3.2207031 6.8320312 L 4.3222656 8.484375 C 5.2566121 8.2323988 6.2302129 8.0751742 7.2324219 8.0214844 C 7.9687872 7.1182157 8.9893061 6.4552498 10.158203 6.1640625 C 9.4549243 6.0558548 8.734281 6 8 6 z "
       transform="scale(0.26458333)" />
    <path
       id="rect2682-5"
       style="fill-opacity:1;stroke:none;stroke-width:1.08012;opacity:0.5"
       d="M 8 2 C 5.5184833 2 3.1927584 2.6402988 1.1757812 3.7636719 L 2.171875 5.2578125 C 3.9446084 4.4492868 5.9177407 4 8 4 C 10.082259 4 12.055392 4.4492868 13.828125 5.2578125 L 14.824219 3.7636719 C 12.807242 2.6402988 10.481517 2 8 2 z M -4.0292969 8.8164062 C -4.1803562 9.0695938 -4.3237916 9.3265389 -4.4589844 9.5898438 C -4.3240084 9.3270951 -4.180078 9.0690764 -4.0292969 8.8164062 z M 20.029297 8.8164062 C 20.180078 9.0690764 20.324008 9.3270951 20.458984 9.5898438 C 20.323792 9.3265389 20.180356 9.0695938 20.029297 8.8164062 z M -4.4726562 9.6152344 C -4.6066666 9.8775756 -4.7319734 10.14627 -4.8496094 10.417969 C -4.731714 10.145721 -4.6069964 9.8780842 -4.4726562 9.6152344 z M 20.472656 9.6152344 C 20.606996 9.8780842 20.731714 10.145721 20.849609 10.417969 C 20.731973 10.14627 20.606667 9.8775756 20.472656 9.6152344 z M -4.8671875 10.460938 C -4.9850136 10.735589 -5.0948489 11.013382 -5.1953125 11.296875 C -5.0950802 11.014253 -4.9846833 10.734766 -4.8671875 10.460938 z M 20.867188 10.460938 C 20.984682 10.734766 21.095081 11.014253 21.195312 11.296875 C 21.09485 11.013382 20.985013 10.735589 20.867188 10.460938 z M -5.203125 11.316406 C -5.3036122 11.601329 -5.3962217 11.890433 -5.4785156 12.183594 C -5.3961336 11.890336 -5.3037192 11.601414 -5.203125 11.316406 z M 21.203125 11.316406 C 21.303719 11.601414 21.396134 11.890336 21.478516 12.183594 C 21.396222 11.890433 21.303612 11.601329 21.203125 11.316406 z M -5.4902344 12.228516 C -5.5706942 12.518838 -5.6411399 12.813629 -5.703125 13.111328 C -5.6410558 12.813368 -5.5708171 12.51908 -5.4902344 12.228516 z M 21.490234 12.228516 C 21.570817 12.51908 21.641056 12.813368 21.703125 13.111328 C 21.64114 12.813629 21.570694 12.518838 21.490234 12.228516 z M -5.7050781 13.121094 C -5.7689747 13.42907 -5.823761 13.741482 -5.8671875 14.056641 C -5.823729 13.741312 -5.769036 13.429226 -5.7050781 13.121094 z M 21.705078 13.121094 C 21.769036 13.429226 21.823729 13.741312 21.867188 14.056641 C 21.823761 13.741482 21.768975 13.42907 21.705078 13.121094 z M -5.8671875 14.060547 C -5.9092359 14.366326 -5.9407718 14.674451 -5.9628906 14.986328 C -5.940772 14.674571 -5.9092276 14.366205 -5.8671875 14.060547 z "
       transform="scale(0.26458333)" />
    <path
       id="rect2682-6-1-3-6"
       style="fill-opacity:1;stroke:none;stroke-width:1.08012;opacity:0.5"
       d="M 6.1738281 10.117188 C 5.9415525 10.147284 5.710936 10.183438 5.4824219 10.224609 L 6.0195312 11.029297 C 6.0457983 10.716782 6.0978821 10.412364 6.1738281 10.117188 z "
       transform="scale(0.26458333)" />
    <path
       id="rect929"
       style="stroke-width:1.20268"
       d="M 11.5 7 C 9.0070003 7 7 9.0070003 7 11.5 C 7 13.993 9.0070003 16 11.5 16 C 13.993 16 16 13.993 16 11.5 C 16 9.0070003 13.993 7 11.5 7 z M 9.4746094 11 C 9.483155 10.99957 9.4913437 11 9.5 11 C 9.777 11 10 11.223 10 11.5 C 10 11.777 9.777 12 9.5 12 C 9.223 12 9 11.777 9 11.5 C 9 11.231656 9.209695 11.013342 9.4746094 11 z M 11.474609 11 C 11.483155 10.99957 11.491344 11 11.5 11 C 11.777 11 12 11.223 12 11.5 C 12 11.777 11.777 12 11.5 12 C 11.223 12 11 11.777 11 11.5 C 11 11.231656 11.209695 11.013342 11.474609 11 z M 13.474609 11 C 13.483155 10.99957 13.491344 11 13.5 11 C 13.777 11 14 11.223 14 11.5 C 14 11.777 13.777 12 13.5 12 C 13.223 12 13 11.777 13 11.5 C 13 11.231656 13.209695 11.013342 13.474609 11 z "
       transform="scale(0.26458333)" />
  </g>
</svg>
