<?xml version="1.0" encoding="UTF-8" standalone="no"?>
<svg
   width="16"
   height="16"
   viewBox="0 0 16 16"
   version="1.1"
   id="svg5"
   inkscape:version="1.1.1 (3bf5ae0d25, 2021-09-20, custom)"
   sodipodi:docname="application-x-executable.svg"
   xmlns:inkscape="http://www.inkscape.org/namespaces/inkscape"
   xmlns:sodipodi="http://sodipodi.sourceforge.net/DTD/sodipodi-0.dtd"
   xmlns="http://www.w3.org/2000/svg"
   xmlns:svg="http://www.w3.org/2000/svg"
   xmlns:rdf="http://www.w3.org/1999/02/22-rdf-syntax-ns#"
   xmlns:cc="http://creativecommons.org/ns#"
   xmlns:dc="http://purl.org/dc/elements/1.1/">
  <metadata
     id="metadata11">
    <rdf:RDF>
      <cc:Work
         rdf:about="">
        <dc:format>image/svg+xml</dc:format>
        <dc:type
           rdf:resource="http://purl.org/dc/dcmitype/StillImage" />
      </cc:Work>
    </rdf:RDF>
  </metadata>
  <sodipodi:namedview
     id="namedview7"
     pagecolor="#ffffff"
     bordercolor="#666666"
     borderopacity="1.0"
     inkscape:pageshadow="2"
     inkscape:pageopacity="0.0"
     inkscape:pagecheckerboard="0"
     inkscape:document-units="px"
     showgrid="false"
     inkscape:zoom="4.4388415"
     inkscape:cx="12.39062"
     inkscape:cy="6.3079522"
     inkscape:window-width="1366"
     inkscape:window-height="707"
     inkscape:window-x="0"
     inkscape:window-y="0"
     inkscape:window-maximized="1"
     inkscape:current-layer="layer1"
     inkscape:document-rotation="0"
     showguides="false">
    <inkscape:grid
       type="xygrid"
       id="grid824" />
  </sodipodi:namedview>
  <defs
     id="defs2" />
  <g
     inkscape:label="Capa 1"
     inkscape:groupmode="layer"
     id="layer1">
    <path
       id="rect871-3"
       style="fill:#505050;stroke:none;stroke-width:0.258199;stroke-linecap:round;stroke-linejoin:round;fill-opacity:1"
       d="M 7 10 L 7 13 L 5.5996094 13 C 5.2672094 13 5 13.267209 5 13.599609 L 5 14.400391 C 5 14.732791 5.2672094 15 5.5996094 15 L 7.5996094 15 L 8.4003906 15 L 10.400391 15 C 10.732791 15 11 14.732791 11 14.400391 L 11 13.599609 C 11 13.267209 10.732791 13 10.400391 13 L 9 13 L 9 10 L 7 10 z " />
    <path
       id="rect871"
       style="fill:#505050;stroke:none;stroke-width:0.942809;stroke-linecap:round;stroke-linejoin:round;fill-opacity:1"
       d="M 3 1 C 1.338 1 0 2.338 0 4 L 0 8 C 0 9.662 1.338 11 3 11 L 13 11 C 14.662 11 16 9.662 16 8 L 16 4 C 16 2.338 14.662 1 13 1 L 3 1 z M 3.4003906 2 L 12.599609 2 C 13.929209 2 15 3.0707906 15 4.4003906 L 15 7.5996094 C 15 8.9292094 13.929209 10 12.599609 10 L 3.4003906 10 C 2.0707906 10 1 8.9292094 1 7.5996094 L 1 4.4003906 C 1 3.0707906 2.0707906 2 3.4003906 2 z " />
  </g>
</svg>
