<?xml version="1.0" encoding="UTF-8" standalone="no"?>
<svg
   width="16"
   height="16"
   viewBox="0 0 16 16"
   version="1.1"
   id="svg5"
   inkscape:version="1.1.1 (3bf5ae0d25, 2021-09-20, custom)"
   sodipodi:docname="application-x-firmware.svg"
   xmlns:inkscape="http://www.inkscape.org/namespaces/inkscape"
   xmlns:sodipodi="http://sodipodi.sourceforge.net/DTD/sodipodi-0.dtd"
   xmlns="http://www.w3.org/2000/svg"
   xmlns:svg="http://www.w3.org/2000/svg"
   xmlns:rdf="http://www.w3.org/1999/02/22-rdf-syntax-ns#"
   xmlns:cc="http://creativecommons.org/ns#"
   xmlns:dc="http://purl.org/dc/elements/1.1/">
  <metadata
     id="metadata11">
    <rdf:RDF>
      <cc:Work
         rdf:about="">
        <dc:format>image/svg+xml</dc:format>
        <dc:type
           rdf:resource="http://purl.org/dc/dcmitype/StillImage" />
      </cc:Work>
    </rdf:RDF>
  </metadata>
  <sodipodi:namedview
     id="namedview7"
     pagecolor="#ffffff"
     bordercolor="#666666"
     borderopacity="1.0"
     inkscape:pageshadow="2"
     inkscape:pageopacity="0.0"
     inkscape:pagecheckerboard="0"
     inkscape:document-units="px"
     showgrid="false"
     inkscape:zoom="8.8776832"
     inkscape:cx="8.3355081"
     inkscape:cy="6.0826681"
     inkscape:window-width="1366"
     inkscape:window-height="707"
     inkscape:window-x="0"
     inkscape:window-y="0"
     inkscape:window-maximized="1"
     inkscape:current-layer="layer1"
     inkscape:document-rotation="0"
     showguides="false">
    <inkscape:grid
       type="xygrid"
       id="grid824" />
  </sodipodi:namedview>
  <defs
     id="defs2" />
  <g
     inkscape:label="Capa 1"
     inkscape:groupmode="layer"
     id="layer1">
    <path
       id="rect929"
       style="stroke-width:1.03775;stroke-linecap:round;stroke-linejoin:round;stroke-dasharray:4.151, 4.151;fill:#96ca1a;fill-opacity:1"
       d="M 6 0 L 5 1 L 2 4 L 1 5 L 1 13 C 1 14.662 2.338 16 4 16 L 7 16 L 7 15 L 4.625 15 C 3.17075 15 2 13.82925 2 12.375 L 2 6 L 7 6 L 7 1 L 11.375 1 C 12.82925 1 14 2.17075 14 3.625 L 14 6 L 15 6 L 15 3 C 15 1.338 13.662 0 12 0 L 6 0 z M 6 2 L 6 5 L 3 5 L 6 2 z " />
    <path
       id="rect927"
       style="fill:#96ca1a;stroke-linecap:round;stroke-linejoin:round;fill-opacity:1"
       d="M 6 0 L 5 1 L 11.375 1 C 12.82925 1 14 2.17075 14 3.625 L 14 12.375 C 14 13.82925 12.82925 15 11.375 15 L 4.625 15 C 3.17075 15 2 13.82925 2 12.375 L 2 4 L 1 5 L 1 13 C 1 14.662 2.338 16 4 16 L 12 16 C 13.662 16 15 14.662 15 13 L 15 3 C 15 1.338 13.662 0 12 0 L 6 0 z " />
    <rect
       style="fill:#232323;fill-opacity:1;stroke-width:1.33333;stroke-linecap:round;stroke-linejoin:round"
       id="rect889"
       width="4"
       height="4"
       x="4"
       y="9"
       ry="0" />
    <rect
       style="fill:#232323;fill-opacity:1;stroke-width:0.666665;stroke-linecap:round;stroke-linejoin:round"
       id="rect889-3"
       width="2"
       height="2"
       x="10"
       y="6"
       ry="0" />
    <rect
       style="fill:#dacb40;fill-opacity:1;stroke-width:0.666665;stroke-linecap:round;stroke-linejoin:round"
       id="rect889-3-7"
       width="2"
       height="2"
       x="12"
       y="6"
       ry="0" />
    <rect
       style="fill:#dacb40;fill-opacity:1;stroke-width:0.816495;stroke-linecap:round;stroke-linejoin:round"
       id="rect889-3-7-5"
       width="2"
       height="3"
       x="10"
       y="12"
       ry="0" />
    <rect
       style="fill:#dacb40;fill-opacity:1;stroke-width:0.666665;stroke-linecap:round;stroke-linejoin:round"
       id="rect889-3-7-5-3"
       width="2"
       height="2"
       x="2"
       y="10"
       ry="0" />
    <rect
       style="fill:#232323;fill-opacity:1;stroke-width:0.666665;stroke-linecap:round;stroke-linejoin:round"
       id="rect889-3-6"
       width="2"
       height="2"
       x="10"
       y="10"
       ry="0" />
  </g>
</svg>
