<?xml version="1.0" encoding="UTF-8" standalone="no"?>
<svg
   width="16"
   height="16"
   viewBox="0 0 16 16"
   version="1.1"
   id="svg5"
   inkscape:version="1.1.1 (3bf5ae0d25, 2021-09-20, custom)"
   sodipodi:docname="audio-x-generic.svg"
   xmlns:inkscape="http://www.inkscape.org/namespaces/inkscape"
   xmlns:sodipodi="http://sodipodi.sourceforge.net/DTD/sodipodi-0.dtd"
   xmlns="http://www.w3.org/2000/svg"
   xmlns:svg="http://www.w3.org/2000/svg"
   xmlns:rdf="http://www.w3.org/1999/02/22-rdf-syntax-ns#"
   xmlns:cc="http://creativecommons.org/ns#"
   xmlns:dc="http://purl.org/dc/elements/1.1/">
  <metadata
     id="metadata11">
    <rdf:RDF>
      <cc:Work
         rdf:about="">
        <dc:format>image/svg+xml</dc:format>
        <dc:type
           rdf:resource="http://purl.org/dc/dcmitype/StillImage" />
      </cc:Work>
    </rdf:RDF>
  </metadata>
  <sodipodi:namedview
     id="namedview7"
     pagecolor="#ffffff"
     bordercolor="#666666"
     borderopacity="1.0"
     inkscape:pageshadow="2"
     inkscape:pageopacity="0.0"
     inkscape:pagecheckerboard="0"
     inkscape:document-units="px"
     showgrid="false"
     inkscape:zoom="17.755366"
     inkscape:cx="12.334299"
     inkscape:cy="10.025138"
     inkscape:window-width="1366"
     inkscape:window-height="707"
     inkscape:window-x="0"
     inkscape:window-y="0"
     inkscape:window-maximized="1"
     inkscape:current-layer="layer1"
     inkscape:document-rotation="0"
     showguides="false">
    <inkscape:grid
       type="xygrid"
       id="grid824" />
  </sodipodi:namedview>
  <defs
     id="defs2" />
  <g
     inkscape:label="Capa 1"
     inkscape:groupmode="layer"
     id="layer1">
    <path
       id="rect2298"
       style="fill:#7037b1;fill-opacity:1;stroke:none;stroke-linecap:round;stroke-linejoin:round"
       d="M 15 1 L 5 3 L 5 10.498047 C 4.582742 10.185665 4.0636494 10 3.5 10 C 2.115 10 1 11.115 1 12.5 C 1 13.885 2.115 15 3.5 15 C 4.6908986 15 5.6810919 14.176009 5.9355469 13.064453 L 6 13 L 6 12.5 L 6 7 L 14 6 L 14 10.498047 C 14 10.498047 13.998047 10.496094 13.998047 10.496094 C 13.581167 10.184711 13.062656 10 12.5 10 C 11.115 10 10 11.115 10 12.5 C 10 13.885 11.115 15 12.5 15 C 13.690899 15 14.681092 14.176009 14.935547 13.064453 L 15 13 L 15 1 z " />
  </g>
</svg>
