<?xml version="1.0" encoding="UTF-8" standalone="no"?>
<svg
   width="16"
   height="16"
   viewBox="0 0 16 16"
   version="1.1"
   id="svg5"
   inkscape:version="1.1.1 (3bf5ae0d25, 2021-09-20, custom)"
   sodipodi:docname="font-x-generic.svg"
   xmlns:inkscape="http://www.inkscape.org/namespaces/inkscape"
   xmlns:sodipodi="http://sodipodi.sourceforge.net/DTD/sodipodi-0.dtd"
   xmlns="http://www.w3.org/2000/svg"
   xmlns:svg="http://www.w3.org/2000/svg"
   xmlns:rdf="http://www.w3.org/1999/02/22-rdf-syntax-ns#"
   xmlns:cc="http://creativecommons.org/ns#"
   xmlns:dc="http://purl.org/dc/elements/1.1/">
  <metadata
     id="metadata11">
    <rdf:RDF>
      <cc:Work
         rdf:about="">
        <dc:format>image/svg+xml</dc:format>
        <dc:type
           rdf:resource="http://purl.org/dc/dcmitype/StillImage" />
      </cc:Work>
    </rdf:RDF>
  </metadata>
  <sodipodi:namedview
     id="namedview7"
     pagecolor="#ffffff"
     bordercolor="#666666"
     borderopacity="1.0"
     inkscape:pageshadow="2"
     inkscape:pageopacity="0.0"
     inkscape:pagecheckerboard="0"
     inkscape:document-units="px"
     showgrid="false"
     inkscape:zoom="8.877683"
     inkscape:cx="3.4919021"
     inkscape:cy="5.6321002"
     inkscape:window-width="1366"
     inkscape:window-height="707"
     inkscape:window-x="0"
     inkscape:window-y="0"
     inkscape:window-maximized="1"
     inkscape:current-layer="layer1"
     inkscape:document-rotation="0"
     showguides="false">
    <inkscape:grid
       type="xygrid"
       id="grid824" />
  </sodipodi:namedview>
  <defs
     id="defs2" />
  <g
     inkscape:label="Capa 1"
     inkscape:groupmode="layer"
     id="layer1">
    <path
       id="rect928"
       style="fill:#232323;stroke-linecap:round;stroke-linejoin:round;fill-opacity:1"
       d="M 5 1 C 3.338 1 2 2.338 2 4 L 2 6 L 2 7 L 2 8 L 2 10 L 2 13 L 3 13 L 3 12.234375 L 3 9.5 L 3 8 L 8 8 L 8 13 L 9 13 L 9 8 L 9 7 L 9 6 L 9 4 C 9 2.338 7.662 1 6 1 L 5 1 z M 5.5 2 C 6.885 2 8 3.115 8 4.5 L 8 6 L 8 7 L 3 7 L 3 6 L 3 4.5 C 3 3.115 4.115 2 5.5 2 z " />
    <rect
       style="fill:#232323;stroke-width:0.338062;stroke-linecap:round;stroke-linejoin:round;fill-opacity:1"
       id="rect949-3"
       width="1"
       height="12"
       x="13"
       y="1"
       ry="0" />
    <rect
       style="fill:#232323;stroke-width:0.338062;stroke-linecap:round;stroke-linejoin:round;fill-opacity:1"
       id="rect949-3-6"
       width="1"
       height="12"
       x="14"
       y="-14"
       ry="0"
       transform="rotate(90)" />
  </g>
</svg>
