<?xml version="1.0" encoding="UTF-8" standalone="no"?>
<svg
   width="16"
   height="16"
   viewBox="0 0 16 16"
   version="1.1"
   id="svg5"
   inkscape:version="1.1.1 (3bf5ae0d25, 2021-09-20, custom)"
   sodipodi:docname="video-x-generic.svg"
   xmlns:inkscape="http://www.inkscape.org/namespaces/inkscape"
   xmlns:sodipodi="http://sodipodi.sourceforge.net/DTD/sodipodi-0.dtd"
   xmlns="http://www.w3.org/2000/svg"
   xmlns:svg="http://www.w3.org/2000/svg"
   xmlns:rdf="http://www.w3.org/1999/02/22-rdf-syntax-ns#"
   xmlns:cc="http://creativecommons.org/ns#"
   xmlns:dc="http://purl.org/dc/elements/1.1/">
  <metadata
     id="metadata11">
    <rdf:RDF>
      <cc:Work
         rdf:about="">
        <dc:format>image/svg+xml</dc:format>
        <dc:type
           rdf:resource="http://purl.org/dc/dcmitype/StillImage" />
      </cc:Work>
    </rdf:RDF>
  </metadata>
  <sodipodi:namedview
     id="namedview7"
     pagecolor="#ffffff"
     bordercolor="#666666"
     borderopacity="1.0"
     inkscape:pageshadow="2"
     inkscape:pageopacity="0.0"
     inkscape:pagecheckerboard="0"
     inkscape:document-units="px"
     showgrid="false"
     inkscape:zoom="17.755366"
     inkscape:cx="8.3355081"
     inkscape:cy="5.575779"
     inkscape:window-width="1366"
     inkscape:window-height="707"
     inkscape:window-x="0"
     inkscape:window-y="0"
     inkscape:window-maximized="1"
     inkscape:current-layer="layer1"
     inkscape:document-rotation="0"
     showguides="false">
    <inkscape:grid
       type="xygrid"
       id="grid824" />
  </sodipodi:namedview>
  <defs
     id="defs2" />
  <g
     inkscape:label="Capa 1"
     inkscape:groupmode="layer"
     id="layer1">
    <path
       id="rect2968"
       style="fill:#de3b36;fill-opacity:1;stroke:none;stroke-linecap:round;stroke-linejoin:round"
       d="M 3 1 C 1.338 1 0 2.338 0 4 L 0 12 C 0 13.662 1.338 15 3 15 L 13 15 C 14.662 15 16 13.662 16 12 L 16 4 C 16 2.338 14.662 1 13 1 L 3 1 z M 4 2 L 12 2 C 13.662 2 15 3.338 15 5 L 15 11 C 15 12.662 13.662 14 12 14 L 4 14 C 2.338 14 1 12.662 1 11 L 1 5 C 1 3.338 2.338 2 4 2 z " />
    <rect
       style="fill:#de3b36;fill-opacity:1;stroke:none;stroke-width:0.288675;stroke-linecap:round;stroke-linejoin:round"
       id="rect3243-1"
       width="2"
       height="1"
       x="12"
       y="4" />
    <rect
       style="fill:#de3b36;fill-opacity:1;stroke:none;stroke-width:0.288675;stroke-linecap:round;stroke-linejoin:round"
       id="rect3243-1-2"
       width="2"
       height="1"
       x="12"
       y="9" />
    <rect
       style="fill:#de3b36;fill-opacity:1;stroke:none;stroke-width:0.288675;stroke-linecap:round;stroke-linejoin:round"
       id="rect3243-1-2-0"
       width="2"
       height="1"
       x="12"
       y="11" />
    <rect
       style="fill:#de3b36;fill-opacity:1;stroke:none;stroke-width:0.288675;stroke-linecap:round;stroke-linejoin:round"
       id="rect3243-1-2-7"
       width="2"
       height="1"
       x="12"
       y="6" />
    <rect
       style="fill:#de3b36;fill-opacity:1;stroke:none;stroke-width:0.288675;stroke-linecap:round;stroke-linejoin:round"
       id="rect3243-1-2-7-9"
       width="2"
       height="1"
       x="2"
       y="6" />
    <rect
       style="fill:#de3b36;fill-opacity:1;stroke:none;stroke-width:0.288675;stroke-linecap:round;stroke-linejoin:round"
       id="rect3243-1-2-7-9-3"
       width="2"
       height="1"
       x="2"
       y="4" />
    <rect
       style="fill:#de3b36;fill-opacity:1;stroke:none;stroke-width:0.288675;stroke-linecap:round;stroke-linejoin:round"
       id="rect3243-1-2-7-9-3-6"
       width="2"
       height="1"
       x="2"
       y="9" />
    <rect
       style="fill:#de3b36;fill-opacity:1;stroke:none;stroke-width:0.288675;stroke-linecap:round;stroke-linejoin:round"
       id="rect3243-1-2-7-9-3-6-0"
       width="2"
       height="1"
       x="2"
       y="11" />
    <rect
       style="fill:#de3b36;stroke-linecap:round;stroke-linejoin:round;fill-opacity:1"
       id="rect936"
       width="6"
       height="3"
       x="5"
       y="4"
       ry="0" />
    <rect
       style="fill:#de3b36;fill-opacity:1;stroke-linecap:round;stroke-linejoin:round"
       id="rect936-3"
       width="6"
       height="3"
       x="5"
       y="9"
       ry="0" />
  </g>
</svg>
