<?xml version="1.0" encoding="UTF-8" standalone="no"?>
<svg
   width="16"
   height="16"
   viewBox="0 0 16 16"
   version="1.1"
   id="svg5"
   inkscape:version="1.1.1 (3bf5ae0d25, 2021-09-20, custom)"
   sodipodi:docname="x-office-document-template.svg"
   xmlns:inkscape="http://www.inkscape.org/namespaces/inkscape"
   xmlns:sodipodi="http://sodipodi.sourceforge.net/DTD/sodipodi-0.dtd"
   xmlns="http://www.w3.org/2000/svg"
   xmlns:svg="http://www.w3.org/2000/svg"
   xmlns:rdf="http://www.w3.org/1999/02/22-rdf-syntax-ns#"
   xmlns:cc="http://creativecommons.org/ns#"
   xmlns:dc="http://purl.org/dc/elements/1.1/">
  <metadata
     id="metadata11">
    <rdf:RDF>
      <cc:Work
         rdf:about="">
        <dc:format>image/svg+xml</dc:format>
        <dc:type
           rdf:resource="http://purl.org/dc/dcmitype/StillImage" />
      </cc:Work>
    </rdf:RDF>
  </metadata>
  <sodipodi:namedview
     id="namedview7"
     pagecolor="#ffffff"
     bordercolor="#666666"
     borderopacity="1.0"
     inkscape:pageshadow="2"
     inkscape:pageopacity="0.0"
     inkscape:pagecheckerboard="0"
     inkscape:document-units="px"
     showgrid="false"
     inkscape:zoom="12.55494"
     inkscape:cx="8.1242923"
     inkscape:cy="9.1597413"
     inkscape:window-width="1366"
     inkscape:window-height="707"
     inkscape:window-x="0"
     inkscape:window-y="0"
     inkscape:window-maximized="1"
     inkscape:current-layer="layer1"
     inkscape:document-rotation="0"
     showguides="false">
    <inkscape:grid
       type="xygrid"
       id="grid824" />
  </sodipodi:namedview>
  <defs
     id="defs2" />
  <g
     inkscape:label="Capa 1"
     inkscape:groupmode="layer"
     id="layer1">
    <path
       id="rect929"
       style="stroke-width:1.03775;stroke-linecap:round;stroke-linejoin:round;stroke-dasharray:4.151, 4.151;fill:#3a93bf;fill-opacity:1"
       d="M 6 0 L 5 1 L 2 4 L 1 5 L 1 13 C 1 14.662 2.338 16 4 16 L 7 16 L 12 16 C 12.890933 16 13.685852 15.612779 14.234375 15 L 11.375 15 L 7 15 L 4.625 15 C 3.17075 15 2 13.82925 2 12.375 L 2 6 L 7 6 L 7 1 L 11.375 1 C 12.82925 1 14 2.17075 14 3.625 L 14 6 L 14 8.875 L 15 8 L 15 6 L 15 3 C 15 1.338 13.662 0 12 0 L 6 0 z M 6 2 L 6 5 L 3 5 L 6 2 z " />
    <rect
       style="fill:#232323;fill-opacity:1;stroke-width:0.500001;stroke-linecap:round;stroke-linejoin:round"
       id="rect889-3"
       width="4"
       height="1"
       x="8"
       y="8"
       ry="0" />
    <rect
       style="fill:#8dde2d;fill-opacity:1;stroke-width:0.750002;stroke-linecap:round;stroke-linejoin:round"
       id="rect889-3-3"
       width="3"
       height="3"
       x="4"
       y="7"
       ry="0" />
    <path
       id="rect889-3-6"
       style="fill:#232323;fill-opacity:1;stroke-width:0.70998;stroke-linecap:round;stroke-linejoin:round"
       d="m 4,11 v 1 h 6.253588 l 1.318678,-1 z" />
    <path
       id="path1840"
       style="fill:#3a93bf;fill-opacity:1;stroke:none;stroke-width:1px;stroke-linecap:butt;stroke-linejoin:miter;stroke-opacity:1"
       d="M 16,6 4,16 h 12 z m -1,2 v 7 H 7 Z" />
  </g>
</svg>
