<?xml version="1.0" encoding="UTF-8" standalone="no"?>
<!-- Created with Inkscape (http://www.inkscape.org/) -->

<svg
   width="64"
   height="64"
   viewBox="0 0 64 64"
   version="1.1"
   id="svg5"
   inkscape:version="1.1.1 (3bf5ae0d25, 2021-09-20, custom)"
   sodipodi:docname="folder-drag-accept.svg"
   xmlns:inkscape="http://www.inkscape.org/namespaces/inkscape"
   xmlns:sodipodi="http://sodipodi.sourceforge.net/DTD/sodipodi-0.dtd"
   xmlns:xlink="http://www.w3.org/1999/xlink"
   xmlns="http://www.w3.org/2000/svg"
   xmlns:svg="http://www.w3.org/2000/svg">
  <sodipodi:namedview
     id="namedview7"
     pagecolor="#ffffff"
     bordercolor="#666666"
     borderopacity="1.0"
     inkscape:pageshadow="2"
     inkscape:pageopacity="0.0"
     inkscape:pagecheckerboard="0"
     inkscape:document-units="px"
     showgrid="false"
     width="64px"
     inkscape:zoom="6.1098446"
     inkscape:cx="30.770013"
     inkscape:cy="36.007462"
     inkscape:window-width="1366"
     inkscape:window-height="707"
     inkscape:window-x="0"
     inkscape:window-y="0"
     inkscape:window-maximized="1"
     inkscape:current-layer="layer1">
    <inkscape:grid
       type="xygrid"
       id="grid846" />
  </sodipodi:namedview>
  <defs
     id="defs2">
    <linearGradient
       inkscape:collect="always"
       id="linearGradient5215">
      <stop
         style="stop-color:#3297d9;stop-opacity:1"
         offset="0"
         id="stop5211" />
      <stop
         style="stop-color:#3253d7;stop-opacity:1"
         offset="1"
         id="stop5213" />
    </linearGradient>
    <linearGradient
       inkscape:collect="always"
       id="linearGradient1230">
      <stop
         style="stop-color:#57bedc;stop-opacity:1"
         offset="0"
         id="stop1226" />
      <stop
         style="stop-color:#3483d9;stop-opacity:1"
         offset="1"
         id="stop1228" />
    </linearGradient>
    <linearGradient
       inkscape:collect="always"
       xlink:href="#linearGradient5215"
       id="linearGradient1232"
       x1="17.818375"
       y1="-10.612352"
       x2="33.646549"
       y2="39.860569"
       gradientUnits="userSpaceOnUse"
       gradientTransform="matrix(0.90625,0,0,0.90625,3,3)" />
    <filter
       inkscape:collect="always"
       style="color-interpolation-filters:sRGB"
       id="filter1191"
       x="-0.075"
       y="-0.075"
       width="1.15"
       height="1.15">
      <feGaussianBlur
         inkscape:collect="always"
         stdDeviation="1.8125"
         id="feGaussianBlur1193" />
    </filter>
    <linearGradient
       inkscape:collect="always"
       xlink:href="#linearGradient1230"
       id="linearGradient1344"
       gradientUnits="userSpaceOnUse"
       gradientTransform="matrix(0.90625,0,0,0.5625,3.0000003,35)"
       x1="15"
       y1="-10"
       x2="35.521702"
       y2="44.254974" />
    <filter
       inkscape:collect="always"
       style="color-interpolation-filters:sRGB"
       id="filter2264"
       x="-0.083793107"
       y="-0.15187501"
       width="1.1675862"
       height="1.30375">
      <feGaussianBlur
         inkscape:collect="always"
         stdDeviation="2.025"
         id="feGaussianBlur2266" />
    </filter>
  </defs>
  <g
     inkscape:label="Capa 1"
     inkscape:groupmode="layer"
     id="layer1">
    <rect
       style="fill:#b0b0b0;fill-opacity:0.40000001;stroke-width:0.755441;stroke-linecap:round;stroke-linejoin:round;filter:url(#filter1191)"
       id="rect940-7"
       width="58"
       height="58"
       x="3"
       y="3"
       ry="12" />
    <path
       id="rect940"
       style="fill:url(#linearGradient1232);fill-opacity:1;stroke-width:0.755441;stroke-linecap:round;stroke-linejoin:round"
       d="M 15 3 C 8.352 3 3 8.352 3 15 L 3 49 C 3 49.728954 3.0739171 50.438417 3.1972656 51.130859 C 3.8563375 51.004722 4.5354944 50.935547 5.2324219 50.935547 L 60.832031 50.935547 C 60.933851 50.304198 61 49.660956 61 49 L 61 15 C 61 8.352 55.648 3 49 3 L 15 3 z " />
    <path
       id="rect940-9"
       style="fill:#454545;fill-opacity:0.34901962;stroke-width:0.595166;stroke-linecap:round;stroke-linejoin:round;filter:url(#filter2264)"
       d="M 15 30 C 8.352 30 3 35.352 3 42 L 3 43 L 3 47 L 3 50 C 3 56.648 8.352 62 15 62 L 49 62 C 55.648 62 61 56.648 61 50 L 61 47 C 61 40.352 55.648 35 49 35 L 34.755859 35 C 32.581981 31.96918 29.030695 30 25 30 L 15 30 z " />
    <path
       id="rect940-9-1"
       style="fill:url(#linearGradient1344);fill-opacity:1;stroke-width:0.595166;stroke-linecap:round;stroke-linejoin:round"
       d="M 15,30 C 8.3520003,30 3.0000003,35.351999 3.0000003,42 v 1 4 3 c 0,6.647999 5.352,12 11.9999997,12 h 34 c 6.648,0 12,-5.352001 12,-12 V 47 C 61,40.351999 55.648,35 49,35 H 34.755859 C 32.581981,31.96918 29.030695,30 25,30 Z" />
  </g>
</svg>
