<?xml version="1.0" encoding="UTF-8" standalone="no"?>
<!-- Created with Inkscape (http://www.inkscape.org/) -->

<svg
   width="64"
   height="64"
   viewBox="0 0 64 64"
   version="1.1"
   id="svg5"
   inkscape:version="1.1.1 (3bf5ae0d25, 2021-09-20, custom)"
   sodipodi:docname="folder-music.svg"
   xmlns:inkscape="http://www.inkscape.org/namespaces/inkscape"
   xmlns:sodipodi="http://sodipodi.sourceforge.net/DTD/sodipodi-0.dtd"
   xmlns:xlink="http://www.w3.org/1999/xlink"
   xmlns="http://www.w3.org/2000/svg"
   xmlns:svg="http://www.w3.org/2000/svg">
  <sodipodi:namedview
     id="namedview7"
     pagecolor="#ffffff"
     bordercolor="#666666"
     borderopacity="1.0"
     inkscape:pageshadow="2"
     inkscape:pageopacity="0.0"
     inkscape:pagecheckerboard="0"
     inkscape:document-units="px"
     showgrid="false"
     width="64px"
     inkscape:zoom="6.1098447"
     inkscape:cx="31.424694"
     inkscape:cy="45.336668"
     inkscape:window-width="1366"
     inkscape:window-height="707"
     inkscape:window-x="0"
     inkscape:window-y="0"
     inkscape:window-maximized="1"
     inkscape:current-layer="layer1">
    <inkscape:grid
       type="xygrid"
       id="grid846" />
  </sodipodi:namedview>
  <defs
     id="defs2">
    <linearGradient
       inkscape:collect="always"
       id="linearGradient1807">
      <stop
         style="stop-color:#6e1fc7;stop-opacity:1"
         offset="0"
         id="stop1803" />
      <stop
         style="stop-color:#e32f4a;stop-opacity:1"
         offset="1"
         id="stop1805" />
    </linearGradient>
    <linearGradient
       inkscape:collect="always"
       id="linearGradient5445">
      <stop
         style="stop-color:#efefef;stop-opacity:1;"
         offset="0"
         id="stop5441" />
      <stop
         style="stop-color:#cecece;stop-opacity:1"
         offset="1"
         id="stop5443" />
    </linearGradient>
    <linearGradient
       inkscape:collect="always"
       id="linearGradient5215">
      <stop
         style="stop-color:#3297d9;stop-opacity:1"
         offset="0"
         id="stop5211" />
      <stop
         style="stop-color:#3253d7;stop-opacity:1"
         offset="1"
         id="stop5213" />
    </linearGradient>
    <linearGradient
       inkscape:collect="always"
       id="linearGradient1230">
      <stop
         style="stop-color:#57bedc;stop-opacity:1"
         offset="0"
         id="stop1226" />
      <stop
         style="stop-color:#3483d9;stop-opacity:1"
         offset="1"
         id="stop1228" />
    </linearGradient>
    <linearGradient
       inkscape:collect="always"
       xlink:href="#linearGradient5215"
       id="linearGradient1232"
       x1="17.818375"
       y1="-10.612352"
       x2="33.646549"
       y2="39.860569"
       gradientUnits="userSpaceOnUse"
       gradientTransform="matrix(0.90625,0,0,0.90625,3,3)" />
    <linearGradient
       inkscape:collect="always"
       xlink:href="#linearGradient1230"
       id="linearGradient4426"
       gradientUnits="userSpaceOnUse"
       gradientTransform="matrix(0.90625,0,0,0.5625,3,25)"
       x1="15"
       y1="-10"
       x2="35.521702"
       y2="44.254974" />
    <linearGradient
       inkscape:collect="always"
       xlink:href="#linearGradient5445"
       id="linearGradient5447"
       x1="34.283939"
       y1="9.5164728"
       x2="38.058208"
       y2="44.294491"
       gradientUnits="userSpaceOnUse" />
    <filter
       inkscape:collect="always"
       style="color-interpolation-filters:sRGB"
       id="filter6212"
       x="-0.092172412"
       y="-0.13039024"
       width="1.1843448"
       height="1.2607805">
      <feGaussianBlur
         inkscape:collect="always"
         stdDeviation="2.2275"
         id="feGaussianBlur6214" />
    </filter>
    <filter
       inkscape:collect="always"
       style="color-interpolation-filters:sRGB"
       id="filter1191"
       x="-0.075"
       y="-0.075"
       width="1.15"
       height="1.15">
      <feGaussianBlur
         inkscape:collect="always"
         stdDeviation="1.8125"
         id="feGaussianBlur1193" />
    </filter>
    <filter
       inkscape:collect="always"
       style="color-interpolation-filters:sRGB"
       id="filter1520"
       x="-0.10800001"
       y="-0.10800001"
       width="1.216"
       height="1.216">
      <feGaussianBlur
         inkscape:collect="always"
         stdDeviation="2.025"
         id="feGaussianBlur1522" />
    </filter>
    <linearGradient
       inkscape:collect="always"
       xlink:href="#linearGradient5445"
       id="linearGradient2264"
       x1="34.396969"
       y1="45.694511"
       x2="40"
       y2="65"
       gradientUnits="userSpaceOnUse"
       gradientTransform="matrix(1.0833333,0,0,1,-2.6666667,0)" />
    <clipPath
       clipPathUnits="userSpaceOnUse"
       id="clipPath5151">
      <rect
         style="fill:url(#linearGradient5155);fill-opacity:1;stroke-width:1.16666"
         id="rect5153"
         width="7"
         height="7"
         x="24"
         y="34"
         ry="2.3333333" />
    </clipPath>
    <linearGradient
       inkscape:collect="always"
       xlink:href="#linearGradient1230"
       id="linearGradient5155"
       gradientUnits="userSpaceOnUse"
       x1="27"
       y1="34"
       x2="30"
       y2="41" />
    <clipPath
       clipPathUnits="userSpaceOnUse"
       id="clipPath5157">
      <rect
         style="fill:url(#linearGradient5161);fill-opacity:1;stroke-width:1.16666"
         id="rect5159"
         width="7"
         height="7"
         x="24"
         y="34"
         ry="2.3333333" />
    </clipPath>
    <linearGradient
       inkscape:collect="always"
       xlink:href="#linearGradient1230"
       id="linearGradient5161"
       gradientUnits="userSpaceOnUse"
       x1="27"
       y1="34"
       x2="30"
       y2="41" />
    <clipPath
       clipPathUnits="userSpaceOnUse"
       id="clipPath5163">
      <rect
         style="fill:url(#linearGradient5167);fill-opacity:1;stroke-width:1.16666"
         id="rect5165"
         width="7"
         height="7"
         x="24"
         y="34"
         ry="2.3333333" />
    </clipPath>
    <linearGradient
       inkscape:collect="always"
       xlink:href="#linearGradient1230"
       id="linearGradient5167"
       gradientUnits="userSpaceOnUse"
       x1="27"
       y1="34"
       x2="30"
       y2="41" />
    <filter
       inkscape:collect="always"
       style="color-interpolation-filters:sRGB"
       id="filter5530"
       x="-0.3"
       y="-0.3"
       width="1.6"
       height="1.6">
      <feGaussianBlur
         inkscape:collect="always"
         stdDeviation="3.25"
         id="feGaussianBlur5532" />
    </filter>
    <linearGradient
       inkscape:collect="always"
       xlink:href="#linearGradient1807"
       id="linearGradient1809"
       x1="25"
       y1="53"
       x2="36"
       y2="37"
       gradientUnits="userSpaceOnUse" />
    <filter
       inkscape:collect="always"
       style="color-interpolation-filters:sRGB"
       id="filter3001"
       x="-0.20571427"
       y="-0.18000001"
       width="1.4114285"
       height="1.36">
      <feGaussianBlur
         inkscape:collect="always"
         stdDeviation="1.1999999"
         id="feGaussianBlur3003" />
    </filter>
  </defs>
  <g
     inkscape:label="Capa 1"
     inkscape:groupmode="layer"
     id="layer1">
    <rect
       style="fill:#b0b0b0;fill-opacity:0.40000001;stroke-width:0.755441;stroke-linecap:round;stroke-linejoin:round;filter:url(#filter1191)"
       id="rect940-7"
       width="58"
       height="58"
       x="3"
       y="3"
       ry="12" />
    <rect
       style="fill:url(#linearGradient1232);fill-opacity:1;stroke-width:0.755441;stroke-linecap:round;stroke-linejoin:round"
       id="rect940"
       width="58"
       height="58"
       x="3"
       y="3"
       ry="12" />
    <rect
       style="fill:#444444;fill-opacity:0.50196081;stroke-width:0.846614;stroke-linecap:round;stroke-linejoin:round;filter:url(#filter1520)"
       id="rect3909-7"
       width="45"
       height="45"
       x="10"
       y="10"
       ry="12" />
    <rect
       style="fill:url(#linearGradient5447);fill-opacity:1;stroke-width:0.846614;stroke-linecap:round;stroke-linejoin:round"
       id="rect3909"
       width="45"
       height="45"
       x="10"
       y="10"
       ry="12" />
    <path
       id="rect940-9-3"
       style="fill:#474747;fill-opacity:0.34999999;stroke-width:0.595166;stroke-linecap:round;stroke-linejoin:round;filter:url(#filter6212)"
       d="M 15,20 C 8.3519998,20 2.9999998,25.352 2.9999998,32 v 1 4 7 5 c 0,6.648 5.352,12 12.0000002,12 h 34 c 6.648,0 12,-5.352 12,-12 V 37 C 61,30.352 55.648,25 49,25 H 34.755859 C 32.581981,21.96918 29.030695,20 25,20 Z" />
    <path
       id="rect940-9"
       style="fill:url(#linearGradient4426);fill-opacity:1;stroke-width:0.595166;stroke-linecap:round;stroke-linejoin:round"
       d="M 15 20 C 8.352 20 3 25.352 3 32 L 3 33 L 3 37 L 3 44 L 3 49 C 3 55.648 8.352 61 15 61 L 49 61 C 55.648 61 61 55.648 61 49 L 61 37 C 61 30.352 55.648 25 49 25 L 34.755859 25 C 32.581981 21.96918 29.030695 20 25 20 L 15 20 z " />
    <rect
       style="fill:#767676;fill-opacity:0.50196081;stroke-width:0.814091;filter:url(#filter5530)"
       id="rect2047-7"
       width="26"
       height="26"
       x="19"
       y="30"
       ry="13" />
    <rect
       style="fill:url(#linearGradient2264);fill-opacity:1;stroke-width:0.814091"
       id="rect2047"
       width="26"
       height="26"
       x="19"
       y="30"
       ry="13" />
    <path
       id="rect975-3"
       style="fill:#4e4e4e;fill-opacity:0.5;filter:url(#filter3001)"
       d="m 39,35.000002 -11,3 v 4 1 3.048828 C 27.838786,46.01641 27.671042,46 27.5,46 26.115,46 25,47.115 25,48.5 c 0,1.385 1.115,2.5 2.5,2.5 1.385,0 2.5,-1.115 2.5,-2.5 0,-0.101461 -0.0079,-0.200597 -0.01953,-0.298828 v -0.002 C 29.9935,48.134582 30,48.068584 30,48 v -6 l 7,-2 v 6.048828 c -0.161214,-0.03242 -0.328958,-0.04883 -0.5,-0.04883 -1.385,0 -2.5,1.115 -2.5,2.5 0,1.385 1.115,2.5 2.5,2.5 1.385,0 2.5,-1.115 2.5,-2.5 0,-0.101461 -0.0079,-0.200597 -0.01953,-0.298828 v -0.002 C 38.9935,48.13458 39,48.068582 39,47.999998 v -8 z"
       sodipodi:nodetypes="cccccssssccscccssssccscc" />
    <path
       id="rect975"
       style="fill:url(#linearGradient1809);fill-opacity:1"
       d="m 39,35 -11,3 v 4 1 3.048828 C 27.838786,46.01641 27.671042,46 27.5,46 26.115,46 25,47.115 25,48.5 c 0,1.385 1.115,2.5 2.5,2.5 1.385,0 2.5,-1.115 2.5,-2.5 0,-0.101461 -0.0079,-0.200597 -0.01953,-0.298828 v -0.002 C 29.993498,48.134587 30,48.068584 30,48 v -6 l 7,-2 v 6.048828 C 36.838786,46.01641 36.671042,46 36.5,46 35.115,46 34,47.115 34,48.5 c 0,1.385 1.115,2.5 2.5,2.5 1.385,0 2.5,-1.115 2.5,-2.5 0,-0.101461 -0.0079,-0.200597 -0.01953,-0.298828 v -0.002 C 38.993498,48.134587 39,48.068584 39,48 v -8 z"
       sodipodi:nodetypes="cccccssssccscccssssccscc" />
  </g>
</svg>
