<?xml version="1.0" encoding="UTF-8" standalone="no"?>
<!-- Created with Inkscape (http://www.inkscape.org/) -->

<svg
   width="64"
   height="64"
   viewBox="0 0 16.933333 16.933334"
   version="1.1"
   id="svg5"
   inkscape:version="1.1.1 (3bf5ae0d25, 2021-09-20, custom)"
   sodipodi:docname="application-x-sharedlib.svg"
   xmlns:inkscape="http://www.inkscape.org/namespaces/inkscape"
   xmlns:sodipodi="http://sodipodi.sourceforge.net/DTD/sodipodi-0.dtd"
   xmlns:xlink="http://www.w3.org/1999/xlink"
   xmlns="http://www.w3.org/2000/svg"
   xmlns:svg="http://www.w3.org/2000/svg">
  <sodipodi:namedview
     id="namedview7"
     pagecolor="#ffffff"
     bordercolor="#666666"
     borderopacity="1.0"
     inkscape:pageshadow="2"
     inkscape:pageopacity="0.0"
     inkscape:pagecheckerboard="0"
     inkscape:document-units="mm"
     showgrid="false"
     units="px"
     width="64px"
     inkscape:zoom="5.5736044"
     inkscape:cx="47.724952"
     inkscape:cy="20.812385"
     inkscape:window-width="1366"
     inkscape:window-height="707"
     inkscape:window-x="0"
     inkscape:window-y="0"
     inkscape:window-maximized="1"
     inkscape:current-layer="layer1"
     showguides="false"
     inkscape:lockguides="false">
    <inkscape:grid
       type="xygrid"
       id="grid1027" />
  </sodipodi:namedview>
  <defs
     id="defs2">
    <linearGradient
       inkscape:collect="always"
       id="linearGradient9445">
      <stop
         style="stop-color:#efefef;stop-opacity:1"
         offset="0"
         id="stop9441" />
      <stop
         style="stop-color:#ffffff;stop-opacity:1"
         offset="1"
         id="stop9443" />
    </linearGradient>
    <linearGradient
       inkscape:collect="always"
       id="linearGradient11112">
      <stop
         style="stop-color:#477ee1;stop-opacity:1"
         offset="0"
         id="stop11108" />
      <stop
         style="stop-color:#64b8df;stop-opacity:1"
         offset="1"
         id="stop11110" />
    </linearGradient>
    <linearGradient
       inkscape:collect="always"
       id="linearGradient9072">
      <stop
         style="stop-color:#f3f3f3;stop-opacity:1"
         offset="0"
         id="stop9068" />
      <stop
         style="stop-color:#c8c4c4;stop-opacity:1"
         offset="1"
         id="stop9070" />
    </linearGradient>
    <linearGradient
       inkscape:collect="always"
       id="linearGradient6337">
      <stop
         style="stop-color:#fcfcfc;stop-opacity:1"
         offset="0"
         id="stop6333" />
      <stop
         style="stop-color:#6e6e6e;stop-opacity:1"
         offset="1"
         id="stop6335" />
    </linearGradient>
    <linearGradient
       inkscape:collect="always"
       id="linearGradient1966">
      <stop
         style="stop-color:#efeded;stop-opacity:1"
         offset="0"
         id="stop1962" />
      <stop
         style="stop-color:#7b7b7b;stop-opacity:1"
         offset="1"
         id="stop1964" />
    </linearGradient>
    <linearGradient
       inkscape:collect="always"
       id="linearGradient3285">
      <stop
         style="stop-color:#232323;stop-opacity:1"
         offset="0"
         id="stop3281" />
      <stop
         style="stop-color:#444444;stop-opacity:1"
         offset="1"
         id="stop3283" />
    </linearGradient>
    <linearGradient
       inkscape:collect="always"
       id="linearGradient3042">
      <stop
         style="stop-color:#fefefe;stop-opacity:1"
         offset="0"
         id="stop3038" />
      <stop
         style="stop-color:#e5e5e5;stop-opacity:1"
         offset="1"
         id="stop3040" />
    </linearGradient>
    <linearGradient
       inkscape:collect="always"
       id="linearGradient1070">
      <stop
         style="stop-color:#ffffff;stop-opacity:1"
         offset="0"
         id="stop1066" />
      <stop
         style="stop-color:#ededed;stop-opacity:1"
         offset="1"
         id="stop1068" />
    </linearGradient>
    <linearGradient
       inkscape:collect="always"
       xlink:href="#linearGradient1070"
       id="linearGradient1072"
       x1="15.070815"
       y1="14.469007"
       x2="6.4555755"
       y2="5.2417493"
       gradientUnits="userSpaceOnUse"
       gradientTransform="scale(3.7795276)" />
    <linearGradient
       inkscape:collect="always"
       xlink:href="#linearGradient3042"
       id="linearGradient2778"
       gradientUnits="userSpaceOnUse"
       x1="12.123575"
       y1="14.015394"
       x2="6.6464896"
       y2="5.4795327"
       gradientTransform="matrix(0.46000003,0,0,0.41071426,1.000125,0.62366089)" />
    <filter
       inkscape:collect="always"
       style="color-interpolation-filters:sRGB"
       id="filter2873"
       x="-0.3"
       y="-0.3"
       width="1.6"
       height="1.6">
      <feGaussianBlur
         inkscape:collect="always"
         stdDeviation="2.875"
         id="feGaussianBlur2875" />
    </filter>
    <linearGradient
       inkscape:collect="always"
       xlink:href="#linearGradient3285"
       id="linearGradient16716"
       gradientUnits="userSpaceOnUse"
       x1="15.070815"
       y1="14.469007"
       x2="6.4555755"
       y2="5.2417493" />
    <filter
       inkscape:collect="always"
       style="color-interpolation-filters:sRGB"
       id="filter16737"
       x="-0.079499997"
       y="-0.070982143"
       width="1.159"
       height="1.1419643">
      <feGaussianBlur
         inkscape:collect="always"
         stdDeviation="0.43821613"
         id="feGaussianBlur16739" />
    </filter>
    <linearGradient
       inkscape:collect="always"
       xlink:href="#linearGradient6337"
       id="linearGradient4049"
       x1="12.964583"
       y1="-8.4666662"
       x2="11.641666"
       y2="-8.4666662"
       gradientUnits="userSpaceOnUse"
       gradientTransform="matrix(1.2000008,0,0,1,-2.3283412,-1.1519596e-6)" />
    <linearGradient
       inkscape:collect="always"
       xlink:href="#linearGradient1966"
       id="linearGradient4423"
       x1="-7.6729169"
       y1="-12.435416"
       x2="-8.9958334"
       y2="-14.022917"
       gradientUnits="userSpaceOnUse" />
    <linearGradient
       inkscape:collect="always"
       xlink:href="#linearGradient9072"
       id="linearGradient9074"
       x1="5.5562501"
       y1="8.2020836"
       x2="11.1125"
       y2="12.170834"
       gradientUnits="userSpaceOnUse"
       gradientTransform="matrix(0.96153846,0,0,1,0.4579332,4.4504801e-7)" />
    <linearGradient
       inkscape:collect="always"
       xlink:href="#linearGradient3285"
       id="linearGradient10344"
       gradientUnits="userSpaceOnUse"
       x1="11.619618"
       y1="12.523611"
       x2="5.3137155"
       y2="7.8934035"
       gradientTransform="matrix(0.88461539,0,0,0.85714304,1.1092151,1.4363079)" />
    <linearGradient
       inkscape:collect="always"
       xlink:href="#linearGradient11112"
       id="linearGradient10947"
       gradientUnits="userSpaceOnUse"
       gradientTransform="matrix(0.80769236,0,0,0.71428587,1.7604969,2.8726179)"
       x1="11.619618"
       y1="12.523611"
       x2="5.3137155"
       y2="7.8934035" />
    <filter
       inkscape:collect="always"
       style="color-interpolation-filters:sRGB"
       id="filter12130"
       x="-0.19999998"
       y="-0.60000007"
       width="1.4"
       height="2.2000001">
      <feGaussianBlur
         inkscape:collect="always"
         stdDeviation="0.13229168"
         id="feGaussianBlur12132" />
    </filter>
    <filter
       inkscape:collect="always"
       style="color-interpolation-filters:sRGB"
       id="filter12251"
       x="-0.28799997"
       y="-0.86400021"
       width="1.5759999"
       height="2.7280004">
      <feGaussianBlur
         inkscape:collect="always"
         stdDeviation="0.19050004"
         id="feGaussianBlur12253" />
    </filter>
    <filter
       inkscape:collect="always"
       style="color-interpolation-filters:sRGB"
       id="filter1150"
       x="-0.234"
       y="-0.41785719"
       width="1.468"
       height="1.8357144">
      <feGaussianBlur
         inkscape:collect="always"
         stdDeviation="0.64492187"
         id="feGaussianBlur1152" />
    </filter>
    <filter
       inkscape:collect="always"
       style="color-interpolation-filters:sRGB"
       id="filter12130-2"
       x="-1.6959998"
       y="-5.0880002"
       width="4.3919995"
       height="11.176">
      <feGaussianBlur
         inkscape:collect="always"
         stdDeviation="1.1218333"
         id="feGaussianBlur12132-8" />
    </filter>
    <filter
       inkscape:collect="always"
       style="color-interpolation-filters:sRGB"
       id="filter12251-3"
       x="-1.6959995"
       y="-5.0880002"
       width="4.391999"
       height="11.176">
      <feGaussianBlur
         inkscape:collect="always"
         stdDeviation="1.1218333"
         id="feGaussianBlur12253-6" />
    </filter>
    <filter
       inkscape:collect="always"
       style="color-interpolation-filters:sRGB"
       id="filter1150-9"
       x="-0.40703999"
       y="-0.72685719"
       width="1.81408"
       height="2.4537144">
      <feGaussianBlur
         inkscape:collect="always"
         stdDeviation="1.1218333"
         id="feGaussianBlur1152-3" />
    </filter>
    <linearGradient
       inkscape:collect="always"
       xlink:href="#linearGradient1070"
       id="linearGradient2442"
       gradientUnits="userSpaceOnUse"
       x1="15.070815"
       y1="14.469007"
       x2="6.4555755"
       y2="5.2417493" />
    <linearGradient
       inkscape:collect="always"
       xlink:href="#linearGradient6337"
       id="linearGradient2444"
       gradientUnits="userSpaceOnUse"
       gradientTransform="matrix(1.2000008,0,0,1,-2.328341,-1.5258179e-6)"
       x1="12.964583"
       y1="-8.4666662"
       x2="11.641666"
       y2="-8.4666662" />
    <linearGradient
       inkscape:collect="always"
       xlink:href="#linearGradient1966"
       id="linearGradient2446"
       gradientUnits="userSpaceOnUse"
       x1="-7.6729169"
       y1="-12.435416"
       x2="-8.9958334"
       y2="-14.022917" />
    <linearGradient
       inkscape:collect="always"
       xlink:href="#linearGradient9072"
       id="linearGradient2448"
       gradientUnits="userSpaceOnUse"
       gradientTransform="matrix(0.96153846,0,0,1,0.45793353,3.5742188e-7)"
       x1="5.5562501"
       y1="8.2020836"
       x2="11.1125"
       y2="12.170834" />
    <linearGradient
       inkscape:collect="always"
       xlink:href="#linearGradient3285"
       id="linearGradient2450"
       gradientUnits="userSpaceOnUse"
       gradientTransform="matrix(0.88461539,0,0,0.85714304,1.1092155,1.4363084)"
       x1="11.619618"
       y1="12.523611"
       x2="5.3137155"
       y2="7.8934035" />
    <linearGradient
       inkscape:collect="always"
       xlink:href="#linearGradient11112"
       id="linearGradient2452"
       gradientUnits="userSpaceOnUse"
       gradientTransform="matrix(0.80769236,0,0,0.71428587,1.7604975,2.8726184)"
       x1="11.619618"
       y1="12.523611"
       x2="5.3137155"
       y2="7.8934035" />
    <filter
       inkscape:collect="always"
       style="color-interpolation-filters:sRGB"
       id="filter2463"
       x="-0.20351999"
       y="-0.1817143"
       width="1.40704"
       height="1.3634286">
      <feGaussianBlur
         inkscape:collect="always"
         stdDeviation="1.1218333"
         id="feGaussianBlur2465" />
    </filter>
    <filter
       inkscape:collect="always"
       style="color-interpolation-filters:sRGB"
       id="filter2467"
       x="-1.6959998"
       y="-5.0880002"
       width="4.3919995"
       height="11.176">
      <feGaussianBlur
         inkscape:collect="always"
         stdDeviation="1.1218333"
         id="feGaussianBlur2469" />
    </filter>
    <filter
       inkscape:collect="always"
       style="color-interpolation-filters:sRGB"
       id="filter2471"
       x="-1.6959995"
       y="-5.0880002"
       width="4.391999"
       height="11.176">
      <feGaussianBlur
         inkscape:collect="always"
         stdDeviation="1.1218333"
         id="feGaussianBlur2473" />
    </filter>
    <filter
       inkscape:collect="always"
       style="color-interpolation-filters:sRGB"
       id="filter2475"
       x="-0.40703999"
       y="-0.72685719"
       width="1.81408"
       height="2.4537144">
      <feGaussianBlur
         inkscape:collect="always"
         stdDeviation="1.1218333"
         id="feGaussianBlur2477" />
    </filter>
    <filter
       inkscape:collect="always"
       style="color-interpolation-filters:sRGB"
       id="filter2479"
       x="-0.44243477"
       y="-0.84799988"
       width="1.8848695"
       height="2.6959998">
      <feGaussianBlur
         inkscape:collect="always"
         stdDeviation="1.1218333"
         id="feGaussianBlur2481" />
    </filter>
    <filter
       inkscape:collect="always"
       style="color-interpolation-filters:sRGB"
       id="filter2483"
       x="-0.48457137"
       y="-1.0175998"
       width="1.9691427"
       height="3.0351997">
      <feGaussianBlur
         inkscape:collect="always"
         stdDeviation="1.1218333"
         id="feGaussianBlur2485" />
    </filter>
    <clipPath
       clipPathUnits="userSpaceOnUse"
       id="clipPath5455">
      <rect
         style="opacity:1;fill:#868686;fill-opacity:1;stroke-width:0.17446"
         id="rect5457"
         width="4.2333341"
         height="3.9687502"
         x="6.3499999"
         y="7.9375"
         ry="1.0583333" />
    </clipPath>
    <clipPath
       clipPathUnits="userSpaceOnUse"
       id="clipPath5459">
      <rect
         style="opacity:1;fill:#868686;fill-opacity:1;stroke-width:0.17446"
         id="rect5461"
         width="4.2333341"
         height="3.9687502"
         x="6.3499999"
         y="7.9375"
         ry="1.0583333" />
    </clipPath>
    <clipPath
       clipPathUnits="userSpaceOnUse"
       id="clipPath5463">
      <rect
         style="opacity:1;fill:#868686;fill-opacity:1;stroke-width:0.17446"
         id="rect5465"
         width="4.2333341"
         height="3.9687502"
         x="6.3499999"
         y="7.9375"
         ry="1.0583333" />
    </clipPath>
    <clipPath
       clipPathUnits="userSpaceOnUse"
       id="clipPath5467">
      <rect
         style="opacity:1;fill:#868686;fill-opacity:1;stroke-width:0.17446"
         id="rect5469"
         width="4.2333341"
         height="3.9687502"
         x="6.3499999"
         y="7.9375"
         ry="1.0583333" />
    </clipPath>
    <clipPath
       clipPathUnits="userSpaceOnUse"
       id="clipPath5471">
      <rect
         style="opacity:1;fill:#868686;fill-opacity:1;stroke-width:0.17446"
         id="rect5473"
         width="4.2333341"
         height="3.9687502"
         x="6.3499999"
         y="7.9375"
         ry="1.0583333"
         transform="scale(-1)" />
    </clipPath>
    <clipPath
       clipPathUnits="userSpaceOnUse"
       id="clipPath5475">
      <rect
         style="opacity:1;fill:#868686;fill-opacity:1;stroke-width:0.17446"
         id="rect5477"
         width="4.2333341"
         height="3.9687502"
         x="6.3499999"
         y="7.9375"
         ry="1.0583333"
         transform="scale(-1)" />
    </clipPath>
    <clipPath
       clipPathUnits="userSpaceOnUse"
       id="clipPath5479">
      <rect
         style="opacity:1;fill:#868686;fill-opacity:1;stroke-width:0.17446"
         id="rect5481"
         width="4.2333341"
         height="3.9687502"
         x="6.3499999"
         y="7.9375"
         ry="1.0583333"
         transform="rotate(-90)" />
    </clipPath>
    <clipPath
       clipPathUnits="userSpaceOnUse"
       id="clipPath5483">
      <rect
         style="opacity:1;fill:#868686;fill-opacity:1;stroke-width:0.17446"
         id="rect5485"
         width="4.2333341"
         height="3.9687502"
         x="6.349999"
         y="8.2020826"
         ry="1.0583333"
         transform="rotate(-90)" />
    </clipPath>
    <clipPath
       clipPathUnits="userSpaceOnUse"
       id="clipPath5487">
      <rect
         style="opacity:1;fill:#868686;fill-opacity:1;stroke-width:0.17446"
         id="rect5489"
         width="4.2333341"
         height="3.9687502"
         x="6.3499999"
         y="7.9375"
         ry="1.0583333" />
    </clipPath>
    <clipPath
       clipPathUnits="userSpaceOnUse"
       id="clipPath5491">
      <rect
         style="opacity:1;fill:#868686;fill-opacity:1;stroke-width:0.659376"
         id="rect5493"
         width="16.000002"
         height="15.000001"
         x="24"
         y="30"
         ry="3.9999998" />
    </clipPath>
    <clipPath
       clipPathUnits="userSpaceOnUse"
       id="clipPath5495">
      <rect
         style="opacity:1;fill:#868686;fill-opacity:1;stroke-width:0.17446"
         id="rect5497"
         width="4.2333341"
         height="3.9687502"
         x="6.3499999"
         y="7.9375"
         ry="1.0583333" />
    </clipPath>
    <filter
       inkscape:collect="always"
       style="color-interpolation-filters:sRGB"
       id="filter5679"
       x="-0.29062499"
       y="-0.30999999"
       width="1.58125"
       height="1.62">
      <feGaussianBlur
         inkscape:collect="always"
         stdDeviation="0.51263024"
         id="feGaussianBlur5681" />
    </filter>
    <filter
       inkscape:collect="always"
       style="color-interpolation-filters:sRGB"
       id="filter7814"
       x="-0.136"
       y="-0.3264"
       width="1.272"
       height="1.6528">
      <feGaussianBlur
         inkscape:collect="always"
         stdDeviation="0.35983335"
         id="feGaussianBlur7816" />
    </filter>
    <linearGradient
       inkscape:collect="always"
       xlink:href="#linearGradient9445"
       id="linearGradient9345"
       x1="9.7895832"
       y1="5.2916665"
       x2="16.139584"
       y2="5.2916665"
       gradientUnits="userSpaceOnUse" />
    <linearGradient
       inkscape:collect="always"
       xlink:href="#linearGradient3285"
       id="linearGradient11749"
       x1="12.7"
       y1="5.8208332"
       x2="12.964582"
       y2="4.7624998"
       gradientUnits="userSpaceOnUse"
       gradientTransform="matrix(0.49999898,0,0,1,6.4823052,0)" />
    <linearGradient
       inkscape:collect="always"
       xlink:href="#linearGradient3285"
       id="linearGradient12457"
       gradientUnits="userSpaceOnUse"
       gradientTransform="translate(1.0583338)"
       x1="12.7"
       y1="5.8208332"
       x2="12.964583"
       y2="4.7624998" />
    <filter
       inkscape:collect="always"
       style="color-interpolation-filters:sRGB"
       id="filter14572"
       x="-0.37499985"
       y="-0.25000006"
       width="1.7499997"
       height="1.5000001">
      <feGaussianBlur
         inkscape:collect="always"
         stdDeviation="0.16536462"
         id="feGaussianBlur14574" />
    </filter>
    <linearGradient
       inkscape:collect="always"
       xlink:href="#linearGradient3285"
       id="linearGradient15787"
       gradientUnits="userSpaceOnUse"
       gradientTransform="matrix(0,0.49999897,-0.5000001,0,14.419792,-0.39686419)"
       x1="12.7"
       y1="5.8208332"
       x2="12.964582"
       y2="4.7624998" />
    <filter
       inkscape:collect="always"
       style="color-interpolation-filters:sRGB"
       id="filter16257"
       x="-1.0500018"
       y="-0.17499995"
       width="3.1000037"
       height="1.3499999">
      <feGaussianBlur
         inkscape:collect="always"
         stdDeviation="0.11575517"
         id="feGaussianBlur16259" />
    </filter>
    <filter
       inkscape:collect="always"
       style="color-interpolation-filters:sRGB"
       id="filter16522"
       x="-0.44999081"
       y="-0.22500232"
       width="1.8999816"
       height="1.4500046">
      <feGaussianBlur
         inkscape:collect="always"
         stdDeviation="0.14883458"
         id="feGaussianBlur16524" />
    </filter>
    <filter
       inkscape:collect="always"
       style="color-interpolation-filters:sRGB"
       id="filter16737-7"
       x="-0.079500002"
       y="-0.070982141"
       width="1.159"
       height="1.1419643">
      <feGaussianBlur
         inkscape:collect="always"
         stdDeviation="0.43821613"
         id="feGaussianBlur16739-5" />
    </filter>
    <linearGradient
       inkscape:collect="always"
       xlink:href="#linearGradient3285"
       id="linearGradient976"
       gradientUnits="userSpaceOnUse"
       x1="15.070815"
       y1="14.469007"
       x2="6.4555755"
       y2="5.2417493" />
    <filter
       inkscape:collect="always"
       style="color-interpolation-filters:sRGB"
       id="filter2873-5"
       x="-0.3"
       y="-0.3"
       width="1.6"
       height="1.6">
      <feGaussianBlur
         inkscape:collect="always"
         stdDeviation="2.875"
         id="feGaussianBlur2875-6" />
    </filter>
  </defs>
  <g
     inkscape:label="Capa 1"
     inkscape:groupmode="layer"
     id="layer1">
    <path
       id="rect846-9-3"
       style="opacity:0.38;fill:url(#linearGradient976);fill-opacity:1;stroke-width:1.10745;stroke-linecap:round;stroke-linejoin:round;filter:url(#filter16737-7)"
       d="m 7.9374995,1.0583338 -6.085416,6.0854166 v 5.5562506 c 0,1.75895 1.41605,3.174999 3.175,3.174999 H 11.90625 c 1.75895,0 3.174999,-1.416049 3.174999,-3.174999 V 4.2333338 c 0,-1.75895 -1.416049,-3.175 -3.174999,-3.175 z" />
    <path
       id="rect846"
       style="fill:url(#linearGradient1072);fill-opacity:1;stroke-width:4.18564;stroke-linecap:round;stroke-linejoin:round"
       d="M 30,4 7,27 v 21 c 0,6.648 5.352,12 12,12 h 26 c 6.648,0 12,-5.352 12,-12 V 16 C 57,9.3520001 51.648,4 45,4 Z"
       transform="scale(0.26458333)" />
    <path
       id="rect846-9"
       style="fill:url(#linearGradient16716);fill-opacity:1;stroke-width:1.10745;stroke-linecap:round;stroke-linejoin:round;opacity:0.38;filter:url(#filter16737)"
       d="M 7.9374999,1.0583333 1.8520836,7.1437499 V 12.7 c 0,1.75895 1.41605,3.174999 3.1750003,3.174999 H 11.90625 c 1.75895,0 3.175,-1.416049 3.175,-3.174999 V 4.2333333 c 0,-1.75895 -1.41605,-3.175 -3.175,-3.175 z"
       clip-path="url(#clipPath5495)" />
    <rect
       style="opacity:1;fill:#232323;fill-opacity:0.30000001;stroke-width:0.17446;filter:url(#filter7814)"
       id="rect874-9-3-9-0-2-7-6"
       width="6.3500004"
       height="2.6458335"
       x="9.7895832"
       y="3.9687505"
       ry="1.0583333" />
    <rect
       style="fill:#444444;fill-opacity:0.2;stroke-width:0.152757;stroke-linecap:round;stroke-linejoin:round;filter:url(#filter12130)"
       id="rect968-3-6-2"
       width="1.5875002"
       height="0.52916664"
       x="11.641666"
       y="-8.7312498"
       ry="0.26458314"
       transform="rotate(90,0.13229167,-0.13229097)"
       sodipodi:insensitive="true" />
    <rect
       style="fill:url(#linearGradient4049);fill-opacity:1;stroke-width:0.152757;stroke-linecap:round;stroke-linejoin:round"
       id="rect968-3-6"
       width="1.5875002"
       height="0.52916664"
       x="11.641666"
       y="-8.7312498"
       ry="0.26458314"
       transform="rotate(90)"
       sodipodi:insensitive="true" />
    <path
       id="rect846-5-9"
       style="fill:#444444;fill-opacity:0.5;stroke-width:1.86022;stroke-linecap:round;stroke-linejoin:round;filter:url(#filter2873)"
       d="M 30 4 L 29.960938 4.0390625 L 30 4.0390625 L 30 4 z M 30 5 L 28 6.9121094 L 28 9 L 12 25 L 9.0917969 25 L 7 27 L 13.273438 27 L 17.455078 27 L 22.681641 27 C 26.735913 27 30 23.878 30 20 L 30 15 L 30 11 L 30 5 z "
       transform="scale(0.26458333)"
       clip-path="url(#clipPath5491)" />
    <rect
       style="fill:#444444;fill-opacity:0.3;stroke-width:0.152757;stroke-linecap:round;stroke-linejoin:round;filter:url(#filter12251)"
       id="rect968-3-6-7-7"
       width="1.5875005"
       height="0.52916664"
       x="-9.260417"
       y="-13.229167"
       ry="0.26458314"
       transform="scale(-1)"
       sodipodi:insensitive="true" />
    <rect
       style="fill:url(#linearGradient4423);fill-opacity:1;stroke-width:0.152757;stroke-linecap:round;stroke-linejoin:round"
       id="rect968-3-6-7"
       width="1.5875005"
       height="0.52916664"
       x="-9.260417"
       y="-13.229167"
       ry="0.26458314"
       transform="scale(-1)"
       sodipodi:insensitive="true" />
    <rect
       style="mix-blend-mode:normal;fill:#232323;fill-opacity:0.3;stroke-width:0.22593;stroke-linecap:round;stroke-linejoin:round;filter:url(#filter1150)"
       id="rect8487-7"
       width="6.6145835"
       height="3.7041664"
       x="5.2916665"
       y="8.2020836"
       ry="1.058333"
       sodipodi:insensitive="true" />
    <rect
       style="fill:url(#linearGradient9074);fill-opacity:1;stroke-width:0.22593;stroke-linecap:round;stroke-linejoin:round"
       id="rect8487"
       width="6.6145835"
       height="3.7041664"
       x="5.2916675"
       y="8.2020836"
       ry="1.058333"
       sodipodi:insensitive="true" />
    <rect
       style="fill:url(#linearGradient10344);fill-opacity:1;stroke-width:0.200629;stroke-linecap:round;stroke-linejoin:round"
       id="rect8487-9"
       width="6.0854168"
       height="3.1750004"
       x="5.5562506"
       y="8.4666662"
       ry="0.90714282"
       sodipodi:insensitive="true" />
    <rect
       style="fill:url(#linearGradient10947);fill-opacity:1;stroke-width:0.175005;stroke-linecap:round;stroke-linejoin:round"
       id="rect8487-9-2"
       width="5.5562506"
       height="2.6458337"
       x="5.8208337"
       y="8.7312498"
       ry="0.75595236"
       sodipodi:insensitive="true" />
    <rect
       style="opacity:1;fill:#232323;fill-opacity:0.40000001;stroke-width:0.17446;filter:url(#filter5679)"
       id="rect874-9-4"
       width="4.2333336"
       height="3.9687502"
       x="6.3499999"
       y="7.9375"
       ry="1.0583333" />
    <path
       id="rect846-50"
       style="fill:url(#linearGradient2442);fill-opacity:1;stroke-width:1.10745;stroke-linecap:round;stroke-linejoin:round;filter:url(#filter2463)"
       d="m 7.9375005,1.0583334 -6.085417,6.085417 v 5.5562486 c 0,1.75895 1.41605,3.175 3.175,3.175 h 6.8791675 c 1.75895,0 3.175,-1.41605 3.175,-3.175 V 4.2333334 c 0,-1.75895 -1.41605,-3.175 -3.175,-3.175 z"
       clip-path="url(#clipPath5487)" />
    <rect
       style="fill:#444444;fill-opacity:0.2;stroke-width:0.152757;stroke-linecap:round;stroke-linejoin:round;filter:url(#filter12130-2)"
       id="rect968-3-6-2-3"
       width="1.5875002"
       height="0.52916664"
       x="11.641666"
       y="-8.7312498"
       ry="0.26458314"
       transform="rotate(90,0.13229198,-0.13229076)"
       clip-path="url(#clipPath5483)" />
    <rect
       style="fill:url(#linearGradient2444);fill-opacity:1;stroke-width:0.152757;stroke-linecap:round;stroke-linejoin:round;filter:url(#filter2467)"
       id="rect968-3-6-6"
       width="1.5875002"
       height="0.52916664"
       x="11.641666"
       y="-8.7312498"
       ry="0.26458314"
       transform="rotate(90)"
       clip-path="url(#clipPath5479)" />
    <rect
       style="fill:#444444;fill-opacity:0.3;stroke-width:0.152757;stroke-linecap:round;stroke-linejoin:round;filter:url(#filter12251-3)"
       id="rect968-3-6-7-7-1"
       width="1.5875005"
       height="0.52916664"
       x="-9.260417"
       y="-13.229167"
       ry="0.26458314"
       transform="scale(-1)"
       clip-path="url(#clipPath5475)" />
    <rect
       style="fill:url(#linearGradient2446);fill-opacity:1;stroke-width:0.152757;stroke-linecap:round;stroke-linejoin:round;filter:url(#filter2471)"
       id="rect968-3-6-7-0"
       width="1.5875005"
       height="0.52916664"
       x="-9.260417"
       y="-13.229166"
       ry="0.26458314"
       transform="scale(-1)"
       clip-path="url(#clipPath5471)" />
    <rect
       style="mix-blend-mode:normal;fill:#232323;fill-opacity:0.3;stroke-width:0.22593;stroke-linecap:round;stroke-linejoin:round;filter:url(#filter1150-9)"
       id="rect8487-7-6"
       width="6.6145835"
       height="3.7041664"
       x="5.291667"
       y="8.2020836"
       ry="1.058333"
       clip-path="url(#clipPath5467)" />
    <rect
       style="fill:url(#linearGradient2448);fill-opacity:1;stroke-width:0.22593;stroke-linecap:round;stroke-linejoin:round;filter:url(#filter2475)"
       id="rect8487-3"
       width="6.6145835"
       height="3.7041664"
       x="5.2916689"
       y="8.2020836"
       ry="1.058333"
       clip-path="url(#clipPath5463)" />
    <rect
       style="fill:url(#linearGradient2450);fill-opacity:1;stroke-width:0.200629;stroke-linecap:round;stroke-linejoin:round;filter:url(#filter2479)"
       id="rect8487-9-20"
       width="6.0854168"
       height="3.1750004"
       x="5.5562506"
       y="8.4666653"
       ry="0.90714282"
       clip-path="url(#clipPath5459)" />
    <rect
       style="fill:url(#linearGradient2452);fill-opacity:1;stroke-width:0.175005;stroke-linecap:round;stroke-linejoin:round;filter:url(#filter2483)"
       id="rect8487-9-2-6"
       width="5.5562506"
       height="2.6458337"
       x="5.8208342"
       y="8.7312489"
       ry="0.75595236"
       clip-path="url(#clipPath5455)" />
    <rect
       style="fill:#ffffff;fill-opacity:1;stroke-width:0.17446;opacity:0.4"
       id="rect874-9"
       width="4.2333336"
       height="3.9687502"
       x="6.3499999"
       y="7.9375"
       ry="1.0583333" />
    <rect
       style="opacity:1;fill:url(#linearGradient9345);fill-opacity:1.0;stroke-width:0.17446"
       id="rect874-9-3-9-0-2-7-2"
       width="6.3500004"
       height="2.6458335"
       x="9.7895832"
       y="3.96875"
       ry="1.0583333" />
    <path
       id="rect8038"
       style="opacity:1;fill:#000000;fill-opacity:1;stroke-width:0.999999;stroke-linecap:round;stroke-linejoin:round"
       d="M 31.947266 32 C 30.863385 32.027277 30 32.909313 30 34 C 30 35.108 30.892 36 32 36 C 33.108 36 34 35.108 34 34 C 34 32.892 33.108 32 32 32 C 31.982688 32 31.96447 31.999567 31.947266 32 z M 31.974609 33 C 31.983212 32.999784 31.991344 33 32 33 C 32.554 33 33 33.446 33 34 C 33 34.554 32.554 35 32 35 C 31.446 35 31 34.554 31 34 C 31 33.454656 31.432669 33.013639 31.974609 33 z "
       transform="scale(0.26458333)" />
    <path
       id="rect8038-6"
       style="fill:#000000;fill-opacity:1;stroke-width:0.264583;stroke-linecap:round;stroke-linejoin:round"
       d="m 7.4010988,10.31875 c -0.2867768,0.0072 -0.5152141,0.240589 -0.5152141,0.529167 0,0.293158 0.2360083,0.529166 0.5291667,0.529166 0.2931583,0 0.5291666,-0.236008 0.5291666,-0.529166 0,-0.293159 -0.2360083,-0.529167 -0.5291666,-0.529167 -0.00458,0 -0.0094,-1.15e-4 -0.013953,0 z m 0.00723,0.264583 c 0.00228,-5.7e-5 0.00443,0 0.00672,0 0.1465791,0 0.2645833,0.118004 0.2645833,0.264584 0,0.146579 -0.1180042,0.264583 -0.2645833,0.264583 -0.1465792,0 -0.2645834,-0.118004 -0.2645834,-0.264583 0,-0.144289 0.1144773,-0.260975 0.2578653,-0.264584 z" />
    <path
       id="rect8038-6-9"
       style="fill:#000000;fill-opacity:1;stroke-width:0.264583;stroke-linecap:round;stroke-linejoin:round"
       d="m 9.5177655,10.31875 c -0.2867768,0.0072 -0.5152141,0.240589 -0.5152141,0.529167 0,0.293158 0.2360083,0.529166 0.5291666,0.529166 0.2931584,0 0.529167,-0.236008 0.529167,-0.529166 0,-0.293159 -0.2360086,-0.529167 -0.529167,-0.529167 -0.00458,0 -0.0094,-1.15e-4 -0.013953,0 z M 9.525,10.583333 c 0.00228,-5.7e-5 0.00443,0 0.00672,0 0.1465792,0 0.2645834,0.118004 0.2645834,0.264584 0,0.146579 -0.1180042,0.264583 -0.2645834,0.264583 -0.1465791,0 -0.2645833,-0.118004 -0.2645833,-0.264583 0,-0.144289 0.1144773,-0.260975 0.2578653,-0.264584 z" />
    <path
       style="fill:none;stroke:#000000;stroke-width:0.264583px;stroke-linecap:butt;stroke-linejoin:miter;stroke-opacity:1"
       d="m 8.73125,9.2604167 0.5291666,1.3229163 m 0.1387972,0.05012"
       id="path8423"
       sodipodi:nodetypes="cc" />
    <path
       style="fill:none;stroke:#000000;stroke-width:0.264583px;stroke-linecap:butt;stroke-linejoin:miter;stroke-opacity:1"
       d="M 8.2020833,9.2604174 7.6729167,10.583333 m -0.1387972,0.05012"
       id="path8423-5"
       sodipodi:nodetypes="cc" />
    <rect
       style="opacity:0.4;fill:#ffffff;fill-opacity:1;stroke-width:0.17446"
       id="rect874-9-3-9-0-2-7"
       width="6.3500004"
       height="2.6458335"
       x="9.7895832"
       y="3.96875"
       ry="1.0583333" />
    <rect
       style="fill:#232323;fill-opacity:0.3019608;stroke-width:0.187088;stroke-linecap:round;stroke-linejoin:round;filter:url(#filter16257)"
       id="rect11722-7"
       width="0.26458278"
       height="1.5875"
       x="12.700001"
       y="4.4979167"
       ry="0.13229139" />
    <rect
       style="opacity:1;fill:url(#linearGradient11749);fill-opacity:1;stroke-width:0.187088;stroke-linecap:round;stroke-linejoin:round"
       id="rect11722"
       width="0.26458278"
       height="1.5875"
       x="12.700001"
       y="4.4979167"
       ry="0.13229139" />
    <path
       id="rect11722-0-2"
       style="fill:#232323;fill-opacity:0.3019608;stroke-width:0.132291;stroke-linecap:round;stroke-linejoin:round;filter:url(#filter16522)"
       d="m 11.502657,4.4979147 c -0.07009,0.00353 -0.125573,0.061292 -0.125573,0.1322916 V 5.556248 5.946405 c -1.14e-4,0.00226 0,0.00443 0,0.00672 v 0.1322917 h 0.132291 0.132292 0.396875 c 0.07329,0 0.132292,-0.059002 0.132292,-0.1322917 0,-0.073289 -0.059,-0.1322917 -0.132292,-0.1322917 H 11.641667 V 5.556248 4.6302063 c 0,-0.073289 -0.059,-0.1322916 -0.132292,-0.1322916 -0.0023,0 -0.0045,-1.138e-4 -0.0067,0 z" />
    <path
       id="rect11722-0"
       style="fill:url(#linearGradient15787);fill-opacity:1;stroke-width:0.132291;stroke-linecap:round;stroke-linejoin:round"
       d="m 11.502657,4.4979147 c -0.07009,0.00353 -0.125573,0.061292 -0.125573,0.1322916 V 5.556248 5.946405 c -1.14e-4,0.00226 0,0.00443 0,0.00672 v 0.1322917 h 0.132291 0.132292 0.396875 c 0.07329,0 0.132292,-0.059002 0.132292,-0.1322917 0,-0.073289 -0.059,-0.1322917 -0.132292,-0.1322917 H 11.641667 V 5.556248 4.6302063 c 0,-0.073289 -0.059,-0.1322916 -0.132292,-0.1322916 -0.0023,0 -0.0045,-1.138e-4 -0.0067,0 z" />
    <path
       id="rect11722-8-4"
       style="fill:#232323;fill-opacity:0.3019608;stroke-width:0.264583;stroke-linecap:round;stroke-linejoin:round;filter:url(#filter14572)"
       d="m 13.758333,4.4979167 v 1.5875 H 14.2875 c 0.293158,0 0.529167,-0.2360084 0.529167,-0.5291667 0,-0.2141112 -0.125888,-0.3976489 -0.307992,-0.4811075 0.02756,-0.054108 0.04341,-0.1152427 0.04341,-0.1803508 0,-0.2198688 -0.177006,-0.396875 -0.396875,-0.396875 z M 14.022917,4.7625 h 0.132291 c 0.07329,0 0.132292,0.059002 0.132292,0.1322917 0,0.07329 -0.059,0.1322916 -0.132292,0.1322916 h -0.132291 z m 0,0.5291667 h 0.132291 0.132292 c 0.146579,0 0.264583,0.1180041 0.264583,0.2645833 0,0.1465792 -0.118004,0.2645833 -0.264583,0.2645833 h -0.264583 z" />
    <path
       id="rect11722-8"
       style="fill:url(#linearGradient12457);fill-opacity:1;stroke-width:0.264583;stroke-linecap:round;stroke-linejoin:round"
       d="m 13.758333,4.4979167 v 1.5875 H 14.2875 c 0.293158,0 0.529167,-0.2360084 0.529167,-0.5291667 0,-0.2141112 -0.125888,-0.3976489 -0.307992,-0.4811075 0.02756,-0.054108 0.04341,-0.1152427 0.04341,-0.1803508 0,-0.2198688 -0.177006,-0.396875 -0.396875,-0.396875 z M 14.022917,4.7625 h 0.132291 c 0.07329,0 0.132292,0.059002 0.132292,0.1322917 0,0.07329 -0.059,0.1322916 -0.132292,0.1322916 h -0.132291 z m 0,0.5291667 h 0.132291 0.132292 c 0.146579,0 0.264583,0.1180041 0.264583,0.2645833 0,0.1465792 -0.118004,0.2645833 -0.264583,0.2645833 h -0.264583 z" />
    <path
       id="rect846-5-9-2"
       style="fill:#444444;fill-opacity:0.5;stroke-width:1.86022;stroke-linecap:round;stroke-linejoin:round;filter:url(#filter2873-5)"
       d="M 30,4 29.96094,4.039063 H 30 Z m 0,1 -2,1.9121094 V 9 L 12,25 H 9.0917969 L 7,27 h 6.273438 4.18164 5.226563 C 26.735913,27 30,23.878 30,20 v -5 -4 z"
       transform="scale(0.26458333)" />
    <path
       id="rect846-5"
       style="fill:url(#linearGradient2778);fill-opacity:1;stroke-width:0.481364;stroke-linecap:round;stroke-linejoin:round"
       d="M 7.9374998,1.0583333 1.8520833,7.1437499 h 1.8520833 1.0583333 1.3229166 c 1.0260542,0 1.8520833,-0.8260292 1.8520833,-1.8520833 V 3.9687499 2.9104166 Z" />
  </g>
</svg>
