<?xml version="1.0" encoding="UTF-8" standalone="no"?>
<!-- Created with Inkscape (http://www.inkscape.org/) -->

<svg
   width="64"
   height="64"
   viewBox="0 0 16.933333 16.933334"
   version="1.1"
   id="svg5"
   inkscape:version="1.1.1 (3bf5ae0d25, 2021-09-20, custom)"
   sodipodi:docname="package-x-generic.svg"
   xmlns:inkscape="http://www.inkscape.org/namespaces/inkscape"
   xmlns:sodipodi="http://sodipodi.sourceforge.net/DTD/sodipodi-0.dtd"
   xmlns:xlink="http://www.w3.org/1999/xlink"
   xmlns="http://www.w3.org/2000/svg"
   xmlns:svg="http://www.w3.org/2000/svg">
  <sodipodi:namedview
     id="namedview7"
     pagecolor="#ffffff"
     bordercolor="#666666"
     borderopacity="1.0"
     inkscape:pageshadow="2"
     inkscape:pageopacity="0.0"
     inkscape:pagecheckerboard="0"
     inkscape:document-units="mm"
     showgrid="false"
     units="px"
     width="64px"
     inkscape:zoom="1.3934011"
     inkscape:cx="33.012748"
     inkscape:cy="40.907101"
     inkscape:window-width="1366"
     inkscape:window-height="707"
     inkscape:window-x="0"
     inkscape:window-y="0"
     inkscape:window-maximized="1"
     inkscape:current-layer="layer1"
     showguides="false">
    <inkscape:grid
       type="xygrid"
       id="grid1027" />
  </sodipodi:namedview>
  <defs
     id="defs2">
    <linearGradient
       inkscape:collect="always"
       id="linearGradient5358">
      <stop
         style="stop-color:#edd60d;stop-opacity:1"
         offset="0"
         id="stop5354" />
      <stop
         style="stop-color:#de9d19;stop-opacity:1"
         offset="1"
         id="stop5356" />
    </linearGradient>
    <linearGradient
       inkscape:collect="always"
       id="linearGradient1652">
      <stop
         style="stop-color:#ffffff;stop-opacity:1"
         offset="0"
         id="stop1648" />
      <stop
         style="stop-color:#ebebeb;stop-opacity:1"
         offset="1"
         id="stop1650" />
    </linearGradient>
    <linearGradient
       inkscape:collect="always"
       id="linearGradient3285">
      <stop
         style="stop-color:#232323;stop-opacity:1"
         offset="0"
         id="stop3281" />
      <stop
         style="stop-color:#444444;stop-opacity:1"
         offset="1"
         id="stop3283" />
    </linearGradient>
    <linearGradient
       inkscape:collect="always"
       id="linearGradient1070">
      <stop
         style="stop-color:#e6db30;stop-opacity:1"
         offset="0"
         id="stop1066" />
      <stop
         style="stop-color:#ea9b17;stop-opacity:1"
         offset="1"
         id="stop1068" />
    </linearGradient>
    <linearGradient
       inkscape:collect="always"
       xlink:href="#linearGradient1070"
       id="linearGradient1072"
       x1="15.070815"
       y1="14.469007"
       x2="6.4555755"
       y2="5.2417493"
       gradientUnits="userSpaceOnUse"
       gradientTransform="scale(3.7795276)" />
    <linearGradient
       inkscape:collect="always"
       xlink:href="#linearGradient5358"
       id="linearGradient2778"
       gradientUnits="userSpaceOnUse"
       x1="12.123575"
       y1="14.015394"
       x2="6.6464896"
       y2="5.4795327"
       gradientTransform="matrix(0.46000003,0,0,0.41071426,1.000125,0.62366089)" />
    <filter
       inkscape:collect="always"
       style="color-interpolation-filters:sRGB"
       id="filter2873"
       x="-0.3"
       y="-0.3"
       width="1.6"
       height="1.6">
      <feGaussianBlur
         inkscape:collect="always"
         stdDeviation="2.875"
         id="feGaussianBlur2875" />
    </filter>
    <linearGradient
       inkscape:collect="always"
       xlink:href="#linearGradient3285"
       id="linearGradient16716"
       gradientUnits="userSpaceOnUse"
       x1="15.070815"
       y1="14.469007"
       x2="6.4555755"
       y2="5.2417493" />
    <filter
       inkscape:collect="always"
       style="color-interpolation-filters:sRGB"
       id="filter16737"
       x="-0.079499997"
       y="-0.070982143"
       width="1.159"
       height="1.1419643">
      <feGaussianBlur
         inkscape:collect="always"
         stdDeviation="0.43821613"
         id="feGaussianBlur16739" />
    </filter>
    <linearGradient
       inkscape:collect="always"
       xlink:href="#linearGradient3285"
       id="linearGradient1061"
       x1="8.2020836"
       y1="9.5249996"
       x2="9.260417"
       y2="8.7312498"
       gradientUnits="userSpaceOnUse" />
    <linearGradient
       inkscape:collect="always"
       xlink:href="#linearGradient1652"
       id="linearGradient1654"
       x1="7.9375"
       y1="8.9958334"
       x2="9.5249996"
       y2="11.90625"
       gradientUnits="userSpaceOnUse"
       gradientTransform="scale(3.7795275)" />
    <filter
       inkscape:collect="always"
       style="color-interpolation-filters:sRGB"
       id="filter2539"
       x="-0.50400586"
       y="-0.37799672"
       width="2.0080117"
       height="1.7559934">
      <feGaussianBlur
         inkscape:collect="always"
         stdDeviation="0.33337893"
         id="feGaussianBlur2541" />
    </filter>
    <filter
       inkscape:collect="always"
       style="color-interpolation-filters:sRGB"
       id="filter3200"
       x="-0.48600001"
       y="-0.3888"
       width="1.972"
       height="1.7776">
      <feGaussianBlur
         inkscape:collect="always"
         stdDeviation="0.21431249"
         id="feGaussianBlur3202" />
    </filter>
    <linearGradient
       inkscape:collect="always"
       xlink:href="#linearGradient1652"
       id="linearGradient3554"
       x1="7.9375"
       y1="11.377084"
       x2="8.4666662"
       y2="11.90625"
       gradientUnits="userSpaceOnUse" />
    <linearGradient
       inkscape:collect="always"
       xlink:href="#linearGradient1652"
       id="linearGradient3964"
       gradientUnits="userSpaceOnUse"
       x1="7.9375"
       y1="11.377084"
       x2="8.4666662"
       y2="11.90625"
       gradientTransform="translate(0.79375054,0.79375077)" />
    <linearGradient
       inkscape:collect="always"
       xlink:href="#linearGradient1652"
       id="linearGradient4009"
       gradientUnits="userSpaceOnUse"
       gradientTransform="translate(4.6975504e-7,1.5875012)"
       x1="7.9375"
       y1="11.377084"
       x2="8.4666662"
       y2="11.90625" />
    <filter
       inkscape:collect="always"
       style="color-interpolation-filters:sRGB"
       id="filter4459"
       x="-0.49000002"
       y="-0.73500006"
       width="1.98"
       height="2.4700001">
      <feGaussianBlur
         inkscape:collect="always"
         stdDeviation="0.16205729"
         id="feGaussianBlur4461" />
    </filter>
    <filter
       inkscape:collect="always"
       style="color-interpolation-filters:sRGB"
       id="filter4459-8"
       x="-0.49000002"
       y="-0.73500006"
       width="1.98"
       height="2.4700001">
      <feGaussianBlur
         inkscape:collect="always"
         stdDeviation="0.16205729"
         id="feGaussianBlur4461-7" />
    </filter>
    <filter
       inkscape:collect="always"
       style="color-interpolation-filters:sRGB"
       id="filter4459-8-2"
       x="-0.49000002"
       y="-0.73500006"
       width="1.98"
       height="2.4700001">
      <feGaussianBlur
         inkscape:collect="always"
         stdDeviation="0.16205729"
         id="feGaussianBlur4461-7-0" />
    </filter>
  </defs>
  <g
     inkscape:label="Capa 1"
     inkscape:groupmode="layer"
     id="layer1">
    <path
       id="rect846-9"
       style="fill:url(#linearGradient16716);fill-opacity:1;stroke-width:1.10745;stroke-linecap:round;stroke-linejoin:round;opacity:0.38;filter:url(#filter16737)"
       d="M 7.9374999,1.0583333 1.8520836,7.1437499 V 12.7 c 0,1.75895 1.41605,3.174999 3.1750003,3.174999 H 11.90625 c 1.75895,0 3.175,-1.416049 3.175,-3.174999 V 4.2333333 c 0,-1.75895 -1.41605,-3.175 -3.175,-3.175 z" />
    <path
       id="rect846"
       style="fill:url(#linearGradient1072);fill-opacity:1;stroke-width:4.18564;stroke-linecap:round;stroke-linejoin:round"
       d="M 30 4 L 7 27 L 7 48 C 7 54.648 12.352 60 19 60 L 45 60 C 51.648 60 57 54.648 57 48 L 57 16 C 57 9.3520001 51.648 4 45 4 L 30 4 z "
       transform="scale(0.26458333)" />
    <path
       id="rect846-5-9"
       style="fill:#93901f;fill-opacity:0.80000001;stroke-width:1.86022;stroke-linecap:round;stroke-linejoin:round;filter:url(#filter2873)"
       d="M 30 4 L 29.960938 4.0390625 L 30 4.0390625 L 30 4 z M 30 5 L 28 6.9121094 L 28 9 L 12 25 L 9.0917969 25 L 7 27 L 13.273438 27 L 17.455078 27 L 22.681641 27 C 26.735913 27 30 23.878 30 20 L 30 15 L 30 11 L 30 5 z "
       transform="scale(0.26458333)" />
    <path
       id="rect846-5"
       style="fill:url(#linearGradient2778);fill-opacity:1.0;stroke-width:0.481364;stroke-linecap:round;stroke-linejoin:round"
       d="M 7.9374998,1.0583333 1.8520833,7.1437499 h 1.8520833 1.0583333 1.3229166 c 1.0260542,0 1.8520833,-0.8260292 1.8520833,-1.8520833 V 3.9687499 2.9104166 Z" />
    <rect
       style="fill:#683c15;fill-opacity:0.60000002;stroke-width:0.264583;stroke-linecap:round;stroke-linejoin:round;filter:url(#filter3200)"
       id="rect874-7"
       width="1.0583333"
       height="1.3229166"
       x="7.9375"
       y="8.4666662"
       ry="0.26458377" />
    <rect
       style="fill:url(#linearGradient1061);stroke-width:0.264583;stroke-linecap:round;stroke-linejoin:round;fill-opacity:1"
       id="rect874"
       width="1.0583333"
       height="1.3229166"
       x="7.9375"
       y="8.4666662"
       ry="0.26458377" />
    <path
       id="rect1547-9"
       style="fill:#682215;fill-opacity:0.60000002;stroke-width:0.264583;stroke-linecap:round;stroke-linejoin:round;filter:url(#filter2539)"
       d="m 8.3095703,8.9958333 c -0.060079,0.00303 -0.107487,0.052315 -0.107487,0.1131713 V 9.2604167 H 7.9375 c -0.1465789,0 -0.2645833,0.1180044 -0.2645833,0.2645833 v 1.322917 c 0,0.146579 0.1180044,0.264583 0.2645833,0.264583 h 1.0583333 c 0.1465789,0 0.2645837,-0.118004 0.2645837,-0.264583 V 9.525 c 0,-0.1465789 -0.1180048,-0.2645833 -0.2645837,-0.2645833 H 8.73125 V 9.1090046 c 0,-0.062819 -0.050352,-0.1131713 -0.1131713,-0.1131713 H 8.3152546 c -0.00196,0 -0.00375,-9.76e-5 -0.00568,0 z M 8.044987,10.054167 c 0.00193,-9.8e-5 0.00372,0 0.00568,0 h 0.831994 c 0.062821,0 0.1131723,0.05035 0.1131723,0.113171 v 0.567407 c 0,0.06282 -0.050352,0.113172 -0.1131713,0.113172 H 8.0506713 c -0.062819,0 -0.1131713,-0.05035 -0.1131713,-0.113172 v -0.567407 c 0,-0.06086 0.047408,-0.110145 0.107487,-0.113171 z" />
    <path
       id="rect1547"
       style="fill:url(#linearGradient1654);fill-opacity:1;stroke-width:0.999999;stroke-linecap:round;stroke-linejoin:round"
       d="M 31.40625 34 C 31.179181 34.011436 31 34.197726 31 34.427734 L 31 35 L 30 35 C 29.446001 35 29 35.446001 29 36 L 29 41 C 29 41.553999 29.446001 42 30 42 L 34 42 C 34.553999 42 35 41.553999 35 41 L 35 36 C 35 35.446001 34.553999 35 34 35 L 33 35 L 33 34.427734 C 33 34.190306 32.809694 34 32.572266 34 L 31.427734 34 C 31.420315 34 31.413575 33.999631 31.40625 34 z M 30.40625 38 C 30.413575 37.999631 30.420315 38 30.427734 38 L 33.572266 38 C 33.809694 38 34 38.190306 34 38.427734 L 34 40.572266 C 34 40.809694 33.809694 41 33.572266 41 L 30.427734 41 C 30.190306 41 30 40.809694 30 40.572266 L 30 38.427734 C 30 38.197726 30.179181 38.011436 30.40625 38 z "
       transform="scale(0.26458333)" />
    <rect
       style="fill:#682215;fill-opacity:0.60000002;stroke-width:0.264583;stroke-linecap:round;stroke-linejoin:round;filter:url(#filter4459)"
       id="rect3466-1"
       width="0.79374999"
       height="0.52916664"
       x="7.6729164"
       y="11.377083"
       ry="0.13229166" />
    <rect
       style="fill:url(#linearGradient3554);fill-opacity:1;stroke-width:0.264583;stroke-linecap:round;stroke-linejoin:round"
       id="rect3466"
       width="0.79374999"
       height="0.52916664"
       x="7.6729164"
       y="11.377083"
       ry="0.13229166" />
    <rect
       style="fill:#682215;fill-opacity:0.60000002;stroke-width:0.264583;stroke-linecap:round;stroke-linejoin:round;filter:url(#filter4459-8)"
       id="rect3466-1-9"
       width="0.79374999"
       height="0.52916664"
       x="8.4666672"
       y="12.170834"
       ry="0.13229166" />
    <rect
       style="fill:url(#linearGradient3964);fill-opacity:1;stroke-width:0.264583;stroke-linecap:round;stroke-linejoin:round"
       id="rect3466-3"
       width="0.79374999"
       height="0.52916664"
       x="8.4666672"
       y="12.170834"
       ry="0.13229166" />
    <rect
       style="fill:#682215;fill-opacity:0.60000002;stroke-width:0.264583;stroke-linecap:round;stroke-linejoin:round;filter:url(#filter4459-8-2)"
       id="rect3466-1-9-2"
       width="0.79374999"
       height="0.52916664"
       x="7.6729174"
       y="12.964583"
       ry="0.13229166" />
    <rect
       style="fill:url(#linearGradient4009);fill-opacity:1;stroke-width:0.264583;stroke-linecap:round;stroke-linejoin:round"
       id="rect3466-3-6"
       width="0.79374999"
       height="0.52916664"
       x="7.6729169"
       y="12.964583"
       ry="0.13229166" />
  </g>
</svg>
