<?xml version="1.0" encoding="UTF-8" standalone="no"?>
<svg
   width="16"
   height="16"
   viewBox="0 0 16 16"
   version="1.1"
   id="svg5"
   inkscape:version="1.1.1 (3bf5ae0d25, 2021-09-20, custom)"
   sodipodi:docname="org.gnome.Calculator-symbolic.svg"
   xmlns:inkscape="http://www.inkscape.org/namespaces/inkscape"
   xmlns:sodipodi="http://sodipodi.sourceforge.net/DTD/sodipodi-0.dtd"
   xmlns="http://www.w3.org/2000/svg"
   xmlns:svg="http://www.w3.org/2000/svg"
   xmlns:rdf="http://www.w3.org/1999/02/22-rdf-syntax-ns#"
   xmlns:cc="http://creativecommons.org/ns#"
   xmlns:dc="http://purl.org/dc/elements/1.1/">
  <metadata
     id="metadata11">
    <rdf:RDF>
      <cc:Work
         rdf:about="">
        <dc:format>image/svg+xml</dc:format>
        <dc:type
           rdf:resource="http://purl.org/dc/dcmitype/StillImage" />
      </cc:Work>
    </rdf:RDF>
  </metadata>
  <sodipodi:namedview
     id="namedview7"
     pagecolor="#ffffff"
     bordercolor="#666666"
     borderopacity="1.0"
     inkscape:pageshadow="2"
     inkscape:pageopacity="0.0"
     inkscape:pagecheckerboard="0"
     inkscape:document-units="px"
     showgrid="false"
     inkscape:zoom="12.55494"
     inkscape:cx="8.4030668"
     inkscape:cy="7.7658675"
     inkscape:window-width="1366"
     inkscape:window-height="707"
     inkscape:window-x="0"
     inkscape:window-y="0"
     inkscape:window-maximized="1"
     inkscape:current-layer="layer1"
     inkscape:document-rotation="0"
     showguides="false">
    <inkscape:grid
       type="xygrid"
       id="grid824" />
  </sodipodi:namedview>
  <defs
     id="defs2" />
  <g
     inkscape:label="Capa 1"
     inkscape:groupmode="layer"
     id="layer1">
    <path
       id="rect927"
       d="M 3 0 C 1.338 0 0 1.338 0 3 L 0 13 C 0 14.662 1.338 16 3 16 L 13 16 C 14.662 16 16 14.662 16 13 L 16 3 C 16 1.338 14.662 0 13 0 L 3 0 z M 4 1 L 12 1 C 13.662 1 15 2.338 15 4 L 15 12 C 15 13.662 13.662 15 12 15 L 4 15 C 2.338 15 1 13.662 1 12 L 1 4 C 1 2.338 2.338 1 4 1 z " />
    <path
       id="rect967"
       style="fill-opacity:1"
       d="M 4 3 C 3.446 3 3 3.446 3 4 L 3 6 C 3 6.554 3.446 7 4 7 L 12 7 C 12.554 7 13 6.554 13 6 L 13 4 C 13 3.446 12.554 3 12 3 L 4 3 z M 4.5 4 L 11.5 4 C 11.777 4 12 4.223 12 4.5 L 12 5.5 C 12 5.777 11.777 6 11.5 6 L 4.5 6 C 4.223 6 4 5.777 4 5.5 L 4 4.5 C 4 4.223 4.223 4 4.5 4 z " />
    <rect
       style="fill-opacity:1;stroke-width:0.316228"
       id="rect967-3"
       width="2"
       height="2"
       x="3"
       y="11"
       ry="1" />
    <rect
       style="fill-opacity:1;stroke-width:0.316228"
       id="rect967-3-6"
       width="2"
       height="2"
       x="3"
       y="8"
       ry="1" />
    <rect
       style="fill-opacity:1;stroke-width:0.316228"
       id="rect967-3-6-7"
       width="2"
       height="2"
       x="6"
       y="8"
       ry="1" />
    <rect
       style="fill-opacity:1;stroke-width:0.316228"
       id="rect967-3-6-7-5"
       width="2"
       height="2"
       x="6"
       y="11"
       ry="1" />
    <rect
       style="fill-opacity:1;stroke-width:0.316228"
       id="rect967-3-6-7-5-3"
       width="2"
       height="2"
       x="11"
       y="8"
       ry="1" />
    <rect
       style="fill-opacity:1;stroke-width:0.447214"
       id="rect967-3-6-7-5-3-5"
       width="4"
       height="2"
       x="9"
       y="11"
       ry="1" />
  </g>
</svg>
