<?xml version="1.0" encoding="UTF-8" standalone="no"?>
<svg
   width="16"
   height="16"
   viewBox="0 0 16 16"
   version="1.1"
   id="svg5"
   inkscape:version="1.1.1 (3bf5ae0d25, 2021-09-20, custom)"
   sodipodi:docname="org.gnome.Cheese-symbolic.svg"
   xmlns:inkscape="http://www.inkscape.org/namespaces/inkscape"
   xmlns:sodipodi="http://sodipodi.sourceforge.net/DTD/sodipodi-0.dtd"
   xmlns="http://www.w3.org/2000/svg"
   xmlns:svg="http://www.w3.org/2000/svg"
   xmlns:rdf="http://www.w3.org/1999/02/22-rdf-syntax-ns#"
   xmlns:cc="http://creativecommons.org/ns#"
   xmlns:dc="http://purl.org/dc/elements/1.1/">
  <metadata
     id="metadata11">
    <rdf:RDF>
      <cc:Work
         rdf:about="">
        <dc:format>image/svg+xml</dc:format>
        <dc:type
           rdf:resource="http://purl.org/dc/dcmitype/StillImage" />
      </cc:Work>
    </rdf:RDF>
  </metadata>
  <sodipodi:namedview
     id="namedview7"
     pagecolor="#ffffff"
     bordercolor="#666666"
     borderopacity="1.0"
     inkscape:pageshadow="2"
     inkscape:pageopacity="0.0"
     inkscape:pagecheckerboard="0"
     inkscape:document-units="px"
     showgrid="false"
     inkscape:zoom="8.8776832"
     inkscape:cx="8.5044711"
     inkscape:cy="8.7297551"
     inkscape:window-width="1366"
     inkscape:window-height="707"
     inkscape:window-x="0"
     inkscape:window-y="0"
     inkscape:window-maximized="1"
     inkscape:current-layer="layer1"
     inkscape:document-rotation="0"
     showguides="false">
    <inkscape:grid
       type="xygrid"
       id="grid824" />
  </sodipodi:namedview>
  <defs
     id="defs2" />
  <g
     inkscape:label="Capa 1"
     inkscape:groupmode="layer"
     id="layer1">
    <path
       id="path3271"
       style="stroke:none;stroke-width:1px;stroke-linecap:butt;stroke-linejoin:miter;stroke-opacity:1;opacity:0.4"
       d="M 13 7 C 9.250482 8.5664131 6 8 3 8 L 3 12 C 5.2506979 12 6.9386678 12.000393 8.9082031 11.578125 L 8.9082031 9 L 12.865234 9 C 12.997432 8.4522087 13 7.8086504 13 7 z " />
    <path
       id="rect927"
       d="M 3 0 C 1.338 0 0 1.338 0 3 L 0 13 C 0 14.662 1.338 16 3 16 L 9 16 L 10 15 L 4 15 C 2.338 15 1 13.662 1 12 L 1 4 C 1 2.338 2.338 1 4 1 L 12 1 C 13.662 1 15 2.338 15 4 L 15 10 L 16 9 L 16 3 C 16 1.338 14.662 0 13 0 L 3 0 z " />
    <path
       id="rect1040"
       style="stroke-width:1.14285"
       d="M 10 8 C 8.892 8 8 8.892 8 10 L 8 13 L 8 14 L 8 16 L 9 16 L 9 15 L 9 14 L 9 11 C 9 9.892 9.892 9 11 9 L 15 9 L 16 9 L 16 8 L 14 8 L 10 8 z " />
    <path
       style="stroke:none;stroke-width:1px;stroke-linecap:butt;stroke-linejoin:miter;stroke-opacity:1"
       d="M 15,8 16,9 9,16 8,15 Z"
       id="path1624" />
    <path
       style="stroke:none;stroke-width:1px;stroke-linecap:butt;stroke-linejoin:miter;stroke-opacity:1"
       d="M 3,5 5,4 7,5 V 6 L 5,5 3,6 Z"
       id="path2651"
       sodipodi:nodetypes="ccccccc" />
    <path
       style="stroke:none;stroke-width:1px;stroke-linecap:butt;stroke-linejoin:miter;stroke-opacity:1"
       d="m 9,5 2,-1 2,1 V 6 L 11,5 9,6 Z"
       id="path2651-3"
       sodipodi:nodetypes="ccccccc" />
    <path
       style="stroke:none;stroke-width:1px;stroke-linecap:butt;stroke-linejoin:miter;stroke-opacity:1"
       d="m 3,8 h 1 v 4 z"
       id="path3009" />
    <path
       style="stroke:none;stroke-width:1px;stroke-linecap:butt;stroke-linejoin:miter;stroke-opacity:1"
       d="m 6,8 h 1 v 4 z"
       id="path3009-6" />
    <path
       id="path3009-6-2"
       style="stroke:none;stroke-width:1px;stroke-linecap:butt;stroke-linejoin:miter;stroke-opacity:1"
       d="M 9 8 L 9 9 L 9.75 9 L 10 8 L 9 8 z " />
    <path
       id="path3009-6-2-9"
       style="stroke:none;stroke-width:1px;stroke-linecap:butt;stroke-linejoin:miter;stroke-opacity:1"
       d="M 12 7 L 12 9 L 12.5 9 L 13 7 L 12 7 z " />
  </g>
</svg>
