<?xml version="1.0" encoding="UTF-8" standalone="no"?>
<svg
   width="16"
   height="16"
   viewBox="0 0 16 16"
   version="1.1"
   id="svg5"
   inkscape:version="1.1.1 (3bf5ae0d25, 2021-09-20, custom)"
   sodipodi:docname="org.gnome.Firmware-symbolic.svg"
   xmlns:inkscape="http://www.inkscape.org/namespaces/inkscape"
   xmlns:sodipodi="http://sodipodi.sourceforge.net/DTD/sodipodi-0.dtd"
   xmlns="http://www.w3.org/2000/svg"
   xmlns:svg="http://www.w3.org/2000/svg"
   xmlns:rdf="http://www.w3.org/1999/02/22-rdf-syntax-ns#"
   xmlns:cc="http://creativecommons.org/ns#"
   xmlns:dc="http://purl.org/dc/elements/1.1/">
  <metadata
     id="metadata11">
    <rdf:RDF>
      <cc:Work
         rdf:about="">
        <dc:format>image/svg+xml</dc:format>
        <dc:type
           rdf:resource="http://purl.org/dc/dcmitype/StillImage" />
      </cc:Work>
    </rdf:RDF>
  </metadata>
  <sodipodi:namedview
     id="namedview7"
     pagecolor="#ffffff"
     bordercolor="#666666"
     borderopacity="1.0"
     inkscape:pageshadow="2"
     inkscape:pageopacity="0.0"
     inkscape:pagecheckerboard="0"
     inkscape:document-units="px"
     showgrid="false"
     inkscape:zoom="17.755366"
     inkscape:cx="8.5326316"
     inkscape:cy="7.7441376"
     inkscape:window-width="1366"
     inkscape:window-height="707"
     inkscape:window-x="0"
     inkscape:window-y="0"
     inkscape:window-maximized="1"
     inkscape:current-layer="layer1"
     inkscape:document-rotation="0"
     showguides="false">
    <inkscape:grid
       type="xygrid"
       id="grid824" />
  </sodipodi:namedview>
  <defs
     id="defs2" />
  <g
     inkscape:label="Capa 1"
     inkscape:groupmode="layer"
     id="layer1">
    <rect
       style="fill-opacity:1;stroke-width:1.22474"
       id="rect1456-3"
       width="1"
       height="3"
       x="5"
       y="0"
       ry="0" />
    <rect
       style="fill-opacity:1;stroke-width:2.23605"
       id="rect1456-3-3"
       width="1"
       height="10"
       x="6"
       y="-13"
       ry="0"
       transform="rotate(90)" />
    <rect
       style="fill-opacity:1;stroke-width:1.73203"
       id="rect1456-3-3-5"
       width="1"
       height="6"
       x="9"
       y="-9"
       ry="0"
       transform="rotate(90)" />
    <rect
       style="fill-opacity:1;stroke-width:1.22474"
       id="rect1456"
       width="1"
       height="3"
       x="10"
       y="0"
       ry="0" />
    <rect
       style="fill-opacity:1;stroke-width:1.22474"
       id="rect1456-6"
       width="1"
       height="3"
       x="5"
       y="13"
       ry="0" />
    <rect
       style="fill-opacity:1;stroke-width:1.22474"
       id="rect1456-7"
       width="1"
       height="3"
       x="10"
       y="13"
       ry="0" />
    <path
       id="rect932"
       style="fill-rule:evenodd;stroke-width:1.06905"
       d="M 3 2 C 1.338 2 0 3.338 0 5 L 0 11 C 0 12.662 1.338 14 3 14 L 13 14 C 14.662 14 16 12.662 16 11 L 16 5 C 16 3.338 14.662 2 13 2 L 3 2 z M 4 3 L 12 3 C 13.662 3 15 4.338 15 6 L 15 10 C 15 11.662 13.662 13 12 13 L 4 13 C 2.338 13 1 11.662 1 10 L 1 6 C 1 4.338 2.338 3 4 3 z " />
  </g>
</svg>
