<?xml version="1.0" encoding="UTF-8" standalone="no"?>
<svg
   width="16"
   height="16"
   viewBox="0 0 16 16"
   version="1.1"
   id="svg5"
   inkscape:version="1.1.1 (3bf5ae0d25, 2021-09-20, custom)"
   sodipodi:docname="address-book-new-symbolic.svg"
   xmlns:inkscape="http://www.inkscape.org/namespaces/inkscape"
   xmlns:sodipodi="http://sodipodi.sourceforge.net/DTD/sodipodi-0.dtd"
   xmlns="http://www.w3.org/2000/svg"
   xmlns:svg="http://www.w3.org/2000/svg"
   xmlns:rdf="http://www.w3.org/1999/02/22-rdf-syntax-ns#"
   xmlns:cc="http://creativecommons.org/ns#"
   xmlns:dc="http://purl.org/dc/elements/1.1/">
  <metadata
     id="metadata11">
    <rdf:RDF>
      <cc:Work
         rdf:about="">
        <dc:format>image/svg+xml</dc:format>
        <dc:type
           rdf:resource="http://purl.org/dc/dcmitype/StillImage" />
      </cc:Work>
    </rdf:RDF>
  </metadata>
  <sodipodi:namedview
     id="namedview7"
     pagecolor="#ffffff"
     bordercolor="#666666"
     borderopacity="1.0"
     inkscape:pageshadow="2"
     inkscape:pageopacity="0.0"
     inkscape:pagecheckerboard="0"
     inkscape:document-units="px"
     showgrid="false"
     inkscape:zoom="17.755366"
     inkscape:cx="7.9975824"
     inkscape:cy="8.4481504"
     inkscape:window-width="1366"
     inkscape:window-height="707"
     inkscape:window-x="0"
     inkscape:window-y="0"
     inkscape:window-maximized="1"
     inkscape:current-layer="layer1"
     inkscape:document-rotation="0"
     showguides="false">
    <inkscape:grid
       type="xygrid"
       id="grid824" />
  </sodipodi:namedview>
  <defs
     id="defs2" />
  <g
     inkscape:label="Capa 1"
     inkscape:groupmode="layer"
     id="layer1">
    <path
       id="rect849"
       style="stroke-linecap:round;stroke-linejoin:round;stroke-dasharray:4, 4"
       d="M 11.5 7 C 9.007 7 7 9.007 7 11.5 C 7 13.993 9.007 16 11.5 16 C 13.993 16 16 13.993 16 11.5 C 16 9.007 13.993 7 11.5 7 z M 11 9 L 12 9 L 12 11 L 14 11 L 14 12 L 12 12 L 12 14 L 11 14 L 11 12 L 9 12 L 9 11 L 11 11 L 11 9 z " />
    <path
       id="rect136"
       style="fill-rule:evenodd"
       d="M 4 0 C 2.338 0 1 1.338 1 3 L 1 13 C 1 14.662 2.338 16 4 16 L 8.3320312 16 C 7.9282852 15.715934 7.5632123 15.380224 7.25 15 L 4.625 15 C 3.17075 15 2 13.82925 2 12.375 L 2 3.625 C 2 2.17075 3.17075 1 4.625 1 L 11.375 1 C 12.82925 1 14 2.17075 14 3.625 L 14 6.5976562 C 14.357664 6.7797098 14.693212 6.9972809 15 7.25 L 15 3 C 15 1.338 13.662 0 12 0 L 4 0 z " />
    <rect
       id="rect1272"
       width="2"
       height="2"
       x="7"
       y="4"
       ry="1"
       style="stroke-width:0.666667" />
    <path
       id="rect1272-6"
       style="stroke-width:1.33333"
       d="M 8,7 C 6.892,7 6,7.892 6,9 h 4 C 10,7.892 9.108,7 8,7 Z" />
    <path
       id="rect1784"
       d="M 4 0 C 2.338 0 1 1.338 1 3 L 1 11 C 1 12.662 2.338 14 4 14 L 6.5976562 14 C 6.4365193 13.683429 6.3050749 13.348695 6.2070312 13 L 5 13 C 3.338 13 2 11.662 2 10 L 2 4 C 2 2.338 3.338 1 5 1 L 11 1 C 12.662 1 14 2.338 14 4 L 14 6.5976562 C 14.357664 6.7797098 14.693212 6.9972809 15 7.25 L 15 3 C 15 1.338 13.662 0 12 0 L 4 0 z " />
  </g>
</svg>
