<?xml version="1.0" encoding="UTF-8" standalone="no"?>
<svg
   width="16"
   height="16"
   viewBox="0 0 16 16"
   version="1.1"
   id="svg5"
   inkscape:version="1.1.1 (3bf5ae0d25, 2021-09-20, custom)"
   sodipodi:docname="appointment-new-symbolic.svg"
   xmlns:inkscape="http://www.inkscape.org/namespaces/inkscape"
   xmlns:sodipodi="http://sodipodi.sourceforge.net/DTD/sodipodi-0.dtd"
   xmlns="http://www.w3.org/2000/svg"
   xmlns:svg="http://www.w3.org/2000/svg"
   xmlns:rdf="http://www.w3.org/1999/02/22-rdf-syntax-ns#"
   xmlns:cc="http://creativecommons.org/ns#"
   xmlns:dc="http://purl.org/dc/elements/1.1/">
  <metadata
     id="metadata11">
    <rdf:RDF>
      <cc:Work
         rdf:about="">
        <dc:format>image/svg+xml</dc:format>
        <dc:type
           rdf:resource="http://purl.org/dc/dcmitype/StillImage" />
      </cc:Work>
    </rdf:RDF>
  </metadata>
  <sodipodi:namedview
     id="namedview7"
     pagecolor="#ffffff"
     bordercolor="#666666"
     borderopacity="1.0"
     inkscape:pageshadow="2"
     inkscape:pageopacity="0.0"
     inkscape:pagecheckerboard="0"
     inkscape:document-units="px"
     showgrid="false"
     inkscape:zoom="17.755366"
     inkscape:cx="13.066472"
     inkscape:cy="10.363064"
     inkscape:window-width="1366"
     inkscape:window-height="707"
     inkscape:window-x="0"
     inkscape:window-y="0"
     inkscape:window-maximized="1"
     inkscape:current-layer="layer1"
     inkscape:document-rotation="0"
     showguides="false">
    <inkscape:grid
       type="xygrid"
       id="grid824" />
  </sodipodi:namedview>
  <defs
     id="defs2" />
  <g
     inkscape:label="Capa 1"
     inkscape:groupmode="layer"
     id="layer1">
    <path
       id="rect8945"
       d="M 8 0 C 3.568 0 0 3.568 0 8 C 0 12.432 3.568 16 8 16 C 8.1076511 16 8.2137197 15.996359 8.3203125 15.992188 C 7.9063241 15.699319 7.5347475 15.350897 7.2167969 14.957031 C 3.7106853 14.569491 1 11.612763 1 8 C 1 4.122 4.122 1 8 1 C 11.612763 1 14.569491 3.7106853 14.957031 7.2167969 C 15.350897 7.5347475 15.699319 7.9063241 15.992188 8.3203125 C 15.996359 8.2137197 16 8.1076511 16 8 C 16 3.568 12.432 0 8 0 z " />
    <path
       id="path1020-3"
       style="opacity:1;stroke:none;stroke-width:0.999999px;stroke-linecap:butt;stroke-linejoin:miter;stroke-opacity:1"
       d="M 7 3 L 7 8.3320312 C 7.2840662 7.9282852 7.6197757 7.5632123 8 7.25 L 8 3 L 7 3 z " />
    <path
       id="rect849"
       style="stroke-linecap:round;stroke-linejoin:round;stroke-dasharray:4, 4"
       d="M 11.5,7 C 9.007,7 7.0000003,9.007 7.0000003,11.5 7.0000003,13.993 9.007,16 11.5,16 13.993,16 16,13.993 16,11.5 16,9.007 13.993,7 11.5,7 Z M 11,9 h 1 v 2 h 2 v 1 h -2 v 2 H 11 V 12 H 9 v -1 h 2 z" />
  </g>
</svg>
