<?xml version="1.0" encoding="UTF-8" standalone="no"?>
<svg
   width="16"
   height="16"
   viewBox="0 0 16 16"
   version="1.1"
   id="svg5"
   inkscape:version="1.1.1 (3bf5ae0d25, 2021-09-20, custom)"
   sodipodi:docname="camera-switch-symbolic.svg"
   xmlns:inkscape="http://www.inkscape.org/namespaces/inkscape"
   xmlns:sodipodi="http://sodipodi.sourceforge.net/DTD/sodipodi-0.dtd"
   xmlns="http://www.w3.org/2000/svg"
   xmlns:svg="http://www.w3.org/2000/svg"
   xmlns:rdf="http://www.w3.org/1999/02/22-rdf-syntax-ns#"
   xmlns:cc="http://creativecommons.org/ns#"
   xmlns:dc="http://purl.org/dc/elements/1.1/">
  <metadata
     id="metadata9">
    <rdf:RDF>
      <cc:Work
         rdf:about="">
        <dc:format>image/svg+xml</dc:format>
        <dc:type
           rdf:resource="http://purl.org/dc/dcmitype/StillImage" />
      </cc:Work>
    </rdf:RDF>
  </metadata>
  <sodipodi:namedview
     id="namedview7"
     pagecolor="#ffffff"
     bordercolor="#666666"
     borderopacity="1.0"
     inkscape:pageshadow="2"
     inkscape:pageopacity="0.0"
     inkscape:pagecheckerboard="0"
     inkscape:document-units="px"
     showgrid="false"
     inkscape:zoom="16.268677"
     inkscape:cx="8.8513653"
     inkscape:cy="9.0972365"
     inkscape:window-width="1366"
     inkscape:window-height="707"
     inkscape:window-x="0"
     inkscape:window-y="0"
     inkscape:window-maximized="1"
     inkscape:current-layer="layer1"
     inkscape:document-rotation="0">
    <inkscape:grid
       type="xygrid"
       id="grid928" />
  </sodipodi:namedview>
  <defs
     id="defs2" />
  <g
     inkscape:label="Capa 1"
     inkscape:groupmode="layer"
     id="layer1">
    <path
       id="rect3374"
       style="stroke:none;stroke-width:1.26491;opacity:0.7"
       d="M 6 0 C 2.676 0 0 2.676 0 6 C 0 8.2770578 1.2556214 10.248685 3.1152344 11.265625 C 3.0411286 10.856914 3.0003511 10.436494 3 10.005859 C 1.783942 9.0954521 1 7.6427013 1 6 C 1 3.23 3.23 1 6 1 C 7.6427013 1 9.0954521 1.783942 10.005859 3 C 10.436494 3.0003511 10.856914 3.0411286 11.265625 3.1152344 C 10.248685 1.2556214 8.2770578 0 6 0 z " />
    <path
       id="rect3374-9"
       style="stroke:none;stroke-width:0.632455;opacity:0.2"
       d="M 6 3 C 4.338 3 3 4.338 3 6 C 3 6.5722856 3.1596601 7.106491 3.4355469 7.5605469 C 4.1412343 5.6514275 5.6514275 4.1412343 7.5605469 3.4355469 C 7.106491 3.1596601 6.5722856 3 6 3 z " />
    <path
       id="rect3374-7"
       style="stroke:none;stroke-width:1.26491"
       d="m 10,4 c -3.324,0 -6,2.676 -6,6 0,3.324 2.676,6 6,6 3.324,0 6,-2.676 6,-6 0,-3.324 -2.676,-6 -6,-6 z m 0,1 c 2.77,0 5,2.23 5,5 0,2.77 -2.23,5 -5,5 C 7.23,15 5,12.77 5,10 5,7.23 7.23,5 10,5 Z" />
    <path
       id="rect3374-9-0"
       style="opacity:0.5;stroke:none;stroke-width:0.632455"
       d="m 10,7 c -1.662,0 -3,1.338 -3,3 0,1.662 1.338,3 3,3 1.662,0 3,-1.338 3,-3 0,-1.662 -1.338,-3 -3,-3 z m 1,3 c 0.554,0 1,0.446 1,1 0,0.554 -0.446,1 -1,1 -0.554,0 -1,-0.446 -1,-1 0,-0.554 0.446,-1 1,-1 z" />
    <rect
       style="stroke:none;stroke-width:0.210818"
       id="rect3374-9-1-9"
       width="2"
       height="2"
       x="9"
       y="9"
       ry="1" />
  </g>
</svg>
