<?xml version="1.0" encoding="UTF-8" standalone="no"?>
<svg
   width="16"
   height="16"
   viewBox="0 0 16 16"
   version="1.1"
   id="svg5"
   inkscape:version="1.1.1 (3bf5ae0d25, 2021-09-20, custom)"
   sodipodi:docname="edit-paste-symbolic.svg"
   xmlns:inkscape="http://www.inkscape.org/namespaces/inkscape"
   xmlns:sodipodi="http://sodipodi.sourceforge.net/DTD/sodipodi-0.dtd"
   xmlns="http://www.w3.org/2000/svg"
   xmlns:svg="http://www.w3.org/2000/svg"
   xmlns:rdf="http://www.w3.org/1999/02/22-rdf-syntax-ns#"
   xmlns:cc="http://creativecommons.org/ns#"
   xmlns:dc="http://purl.org/dc/elements/1.1/">
  <metadata
     id="metadata9">
    <rdf:RDF>
      <cc:Work
         rdf:about="">
        <dc:format>image/svg+xml</dc:format>
        <dc:type
           rdf:resource="http://purl.org/dc/dcmitype/StillImage" />
      </cc:Work>
    </rdf:RDF>
  </metadata>
  <sodipodi:namedview
     id="namedview7"
     pagecolor="#ffffff"
     bordercolor="#666666"
     borderopacity="1.0"
     inkscape:pageshadow="2"
     inkscape:pageopacity="0.0"
     inkscape:pagecheckerboard="0"
     inkscape:document-units="px"
     showgrid="false"
     inkscape:zoom="24.439378"
     inkscape:cx="8.9200306"
     inkscape:cy="9.6156293"
     inkscape:window-width="1366"
     inkscape:window-height="707"
     inkscape:window-x="0"
     inkscape:window-y="0"
     inkscape:window-maximized="1"
     inkscape:current-layer="layer1"
     inkscape:document-rotation="0">
    <inkscape:grid
       type="xygrid"
       id="grid928" />
  </sodipodi:namedview>
  <defs
     id="defs2" />
  <g
     inkscape:label="Capa 1"
     inkscape:groupmode="layer"
     id="layer1">
    <path
       id="rect927"
       d="M 4 1 C 2.338 1 1 2.338 1 4 L 1 13 C 1 14.662 2.338 16 4 16 L 12 16 C 13.662 16 15 14.662 15 13 L 15 4 C 15 2.338 13.662 1 12 1 L 4 1 z M 4.5996094 2 L 11.400391 2 C 12.840791 2 14 3.1592094 14 4.5996094 L 14 12.400391 C 14 13.840791 12.840791 15 11.400391 15 L 4.5996094 15 C 3.1592094 15 2 13.840791 2 12.400391 L 2 4.5996094 C 2 3.1592094 3.1592094 2 4.5996094 2 z " />
    <rect
       id="rect1078"
       width="4"
       height="3"
       x="6"
       y="0"
       ry="1" />
    <rect
       id="rect1432"
       width="4"
       height="1"
       x="6"
       y="7"
       ry="0"
       style="stroke-width:0.999996" />
    <rect
       id="rect1432-5"
       width="4"
       height="1"
       x="6"
       y="10"
       ry="0"
       style="stroke-width:0.999996" />
    <path
       id="rect1673"
       d="M 5 4 C 3.892 4 3 4.892 3 6 L 3 12 C 3 13.108 3.892 14 5 14 L 11 14 C 12.108 14 13 13.108 13 12 L 13 6 C 13 4.892 12.108 4 11 4 L 5 4 z M 5.5996094 5 L 10.400391 5 C 11.286791 5 12 5.7132094 12 6.5996094 L 12 11.400391 C 12 12.286791 11.286791 13 10.400391 13 L 5.5996094 13 C 4.7132094 13 4 12.286791 4 11.400391 L 4 6.5996094 C 4 5.7132094 4.7132094 5 5.5996094 5 z " />
  </g>
</svg>
