<?xml version="1.0" encoding="UTF-8" standalone="no"?>
<svg
   width="16"
   height="16"
   viewBox="0 0 16 16"
   version="1.1"
   id="svg5"
   inkscape:version="1.1.1 (3bf5ae0d25, 2021-09-20, custom)"
   sodipodi:docname="edit-redo-symbolic.svg"
   xmlns:inkscape="http://www.inkscape.org/namespaces/inkscape"
   xmlns:sodipodi="http://sodipodi.sourceforge.net/DTD/sodipodi-0.dtd"
   xmlns="http://www.w3.org/2000/svg"
   xmlns:svg="http://www.w3.org/2000/svg"
   xmlns:rdf="http://www.w3.org/1999/02/22-rdf-syntax-ns#"
   xmlns:cc="http://creativecommons.org/ns#"
   xmlns:dc="http://purl.org/dc/elements/1.1/">
  <metadata
     id="metadata11">
    <rdf:RDF>
      <cc:Work
         rdf:about="">
        <dc:format>image/svg+xml</dc:format>
        <dc:type
           rdf:resource="http://purl.org/dc/dcmitype/StillImage" />
      </cc:Work>
    </rdf:RDF>
  </metadata>
  <sodipodi:namedview
     id="namedview7"
     pagecolor="#ffffff"
     bordercolor="#666666"
     borderopacity="1.0"
     inkscape:pageshadow="2"
     inkscape:pageopacity="0.0"
     inkscape:pagecheckerboard="0"
     inkscape:document-units="px"
     showgrid="false"
     inkscape:zoom="8.877683"
     inkscape:cx="9.1240023"
     inkscape:cy="8.6734343"
     inkscape:window-width="1366"
     inkscape:window-height="707"
     inkscape:window-x="0"
     inkscape:window-y="0"
     inkscape:window-maximized="1"
     inkscape:current-layer="layer1"
     inkscape:document-rotation="0"
     showguides="false">
    <inkscape:grid
       type="xygrid"
       id="grid824" />
  </sodipodi:namedview>
  <defs
     id="defs2" />
  <g
     inkscape:label="Capa 1"
     inkscape:groupmode="layer"
     id="layer1">
    <rect
       style="stroke:none;stroke-width:1.63298"
       id="rect1417"
       width="4"
       height="4"
       x="-15"
       y="11"
       ry="2"
       transform="scale(-1,1)" />
    <path
       style="stroke:none"
       d="M 15,5 V 4 L 13,2 12,3 13,4 H 9 v 1 h 4 l -1,1 1,1 z"
       id="path1730" />
    <path
       id="rect1888"
       style="stroke:none"
       d="m 10,4 c 1.130832,0 2.171961,0.3716722 3.007813,1 H 10 7 6 C 3.784,5 2,6.784 2,9 c 0,2.216 1.784,4 4,4 h 1 1 v 1 H 6 C 3.23,14 1,11.77 1,9 1,6.23 3.23,4 6,4 Z m 3.007813,9 c -0.0026,0.002 -0.0052,0.0039 -0.0078,0.0059 V 13 Z" />
  </g>
</svg>
