<?xml version="1.0" encoding="UTF-8" standalone="no"?>
<svg
   width="16"
   height="16"
   viewBox="0 0 16 16"
   version="1.1"
   id="svg5"
   inkscape:version="1.1.1 (3bf5ae0d25, 2021-09-20, custom)"
   sodipodi:docname="edit-duplicate-symbolic.svg"
   xmlns:inkscape="http://www.inkscape.org/namespaces/inkscape"
   xmlns:sodipodi="http://sodipodi.sourceforge.net/DTD/sodipodi-0.dtd"
   xmlns="http://www.w3.org/2000/svg"
   xmlns:svg="http://www.w3.org/2000/svg"
   xmlns:rdf="http://www.w3.org/1999/02/22-rdf-syntax-ns#"
   xmlns:cc="http://creativecommons.org/ns#"
   xmlns:dc="http://purl.org/dc/elements/1.1/">
  <metadata
     id="metadata9">
    <rdf:RDF>
      <cc:Work
         rdf:about="">
        <dc:format>image/svg+xml</dc:format>
        <dc:type
           rdf:resource="http://purl.org/dc/dcmitype/StillImage" />
      </cc:Work>
    </rdf:RDF>
  </metadata>
  <sodipodi:namedview
     id="namedview7"
     pagecolor="#ffffff"
     bordercolor="#666666"
     borderopacity="1.0"
     inkscape:pageshadow="2"
     inkscape:pageopacity="0.0"
     inkscape:pagecheckerboard="0"
     inkscape:document-units="px"
     showgrid="false"
     inkscape:zoom="12.219689"
     inkscape:cx="3.7644166"
     inkscape:cy="7.9380089"
     inkscape:window-width="1366"
     inkscape:window-height="707"
     inkscape:window-x="0"
     inkscape:window-y="0"
     inkscape:window-maximized="1"
     inkscape:current-layer="layer1"
     inkscape:document-rotation="0">
    <inkscape:grid
       type="xygrid"
       id="grid928" />
  </sodipodi:namedview>
  <defs
     id="defs2" />
  <g
     inkscape:label="Capa 1"
     inkscape:groupmode="layer"
     id="layer1">
    <path
       id="rect1515"
       style="stroke-linecap:round;stroke-linejoin:round"
       d="m 12,0 c 1.662,0 3,1.338 3,3 v 6 c 0,1.662 -1.338,3 -3,3 H 7 C 5.338,12 4,10.662 4,9 V 3 C 4,1.338 5.338,0 7,0 Z m -0.5,1 h -4 C 6.115,1 5,2.115 5,3.5 v 5 C 5,9.885 6.115,11 7.5,11 h 4 C 12.885,11 14,9.885 14,8.5 v -5 C 14,2.115 12.885,1 11.5,1 Z" />
    <path
       id="rect1515-3"
       style="stroke-linecap:round;stroke-linejoin:round"
       d="m 3,4.1738281 v 1.328125 C 2.393213,5.9572599 2,6.6796309 2,7.5 v 5 C 2,13.885 3.115,15 4.5,15 h 4 c 1.2138601,0 2.219022,-0.855929 2.449219,-2 H 12 c 0,1.662 -1.338,3 -3,3 H 4 C 2.338,16 1,14.662 1,13 V 7 C 1,5.6895172 1.83335,4.5843366 3,4.1738281 Z m 9,6.7753909 V 11 h -0.5 c 0.17114,0 0.3387,-0.01833 0.5,-0.05078 z" />
  </g>
</svg>
