<?xml version="1.0" encoding="UTF-8" standalone="no"?>
<svg
   width="16"
   height="16"
   viewBox="0 0 16 16"
   version="1.1"
   id="svg5"
   inkscape:version="1.1.1 (3bf5ae0d25, 2021-09-20, custom)"
   sodipodi:docname="edit-copy-symbolic.svg"
   xmlns:inkscape="http://www.inkscape.org/namespaces/inkscape"
   xmlns:sodipodi="http://sodipodi.sourceforge.net/DTD/sodipodi-0.dtd"
   xmlns="http://www.w3.org/2000/svg"
   xmlns:svg="http://www.w3.org/2000/svg"
   xmlns:rdf="http://www.w3.org/1999/02/22-rdf-syntax-ns#"
   xmlns:cc="http://creativecommons.org/ns#"
   xmlns:dc="http://purl.org/dc/elements/1.1/">
  <metadata
     id="metadata9">
    <rdf:RDF>
      <cc:Work
         rdf:about="">
        <dc:format>image/svg+xml</dc:format>
        <dc:type
           rdf:resource="http://purl.org/dc/dcmitype/StillImage" />
      </cc:Work>
    </rdf:RDF>
  </metadata>
  <sodipodi:namedview
     id="namedview7"
     pagecolor="#ffffff"
     bordercolor="#666666"
     borderopacity="1.0"
     inkscape:pageshadow="2"
     inkscape:pageopacity="0.0"
     inkscape:pagecheckerboard="0"
     inkscape:document-units="px"
     showgrid="false"
     inkscape:zoom="12.219689"
     inkscape:cx="3.7644166"
     inkscape:cy="7.9380089"
     inkscape:window-width="1366"
     inkscape:window-height="707"
     inkscape:window-x="0"
     inkscape:window-y="0"
     inkscape:window-maximized="1"
     inkscape:current-layer="layer1"
     inkscape:document-rotation="0">
    <inkscape:grid
       type="xygrid"
       id="grid928" />
  </sodipodi:namedview>
  <defs
     id="defs2" />
  <g
     inkscape:label="Capa 1"
     inkscape:groupmode="layer"
     id="layer1">
    <path
       id="rect927"
       d="M 7 0 C 5.338 0 4 1.338 4 3 L 4 9 C 4 10.662 5.338 12 7 12 L 13 12 C 14.662 12 16 10.662 16 9 L 16 4 L 14.933594 2.9335938 L 13.066406 1.0664062 L 12 0 L 7 0 z M 7.5 1 L 11 1 L 11 5 L 15 5 L 15 8.5 C 15 9.885 13.885 11 12.5 11 L 7.5 11 C 6.115 11 5 9.885 5 8.5 L 5 3.5 C 5 2.115 6.115 1 7.5 1 z M 12 2 L 14 4 L 12 4 L 12 2 z " />
    <path
       id="rect927-6"
       d="M 3 4 C 1.338 4 0 5.338 0 7 L 0 13 C 0 14.662 1.338 16 3 16 L 9 16 C 10.662 16 12 14.662 12 13 L 12 11 L 11 11 L 11 12.5 C 11 13.885 9.885 15 8.5 15 L 3.5 15 C 2.115 15 1 13.885 1 12.5 L 1 7.5 C 1 6.115 2.115 5 3.5 5 L 5 5 L 5 4 L 3 4 z " />
  </g>
</svg>
