<?xml version="1.0" encoding="UTF-8" standalone="no"?>
<svg
   width="16"
   height="16"
   viewBox="0 0 16 16"
   version="1.1"
   id="svg5"
   inkscape:version="1.1.1 (3bf5ae0d25, 2021-09-20, custom)"
   sodipodi:docname="edit-select-symbolic.svg"
   xmlns:inkscape="http://www.inkscape.org/namespaces/inkscape"
   xmlns:sodipodi="http://sodipodi.sourceforge.net/DTD/sodipodi-0.dtd"
   xmlns="http://www.w3.org/2000/svg"
   xmlns:svg="http://www.w3.org/2000/svg"
   xmlns:rdf="http://www.w3.org/1999/02/22-rdf-syntax-ns#"
   xmlns:cc="http://creativecommons.org/ns#"
   xmlns:dc="http://purl.org/dc/elements/1.1/">
  <metadata
     id="metadata11">
    <rdf:RDF>
      <cc:Work
         rdf:about="">
        <dc:format>image/svg+xml</dc:format>
        <dc:type
           rdf:resource="http://purl.org/dc/dcmitype/StillImage" />
      </cc:Work>
    </rdf:RDF>
  </metadata>
  <sodipodi:namedview
     id="namedview7"
     pagecolor="#ffffff"
     bordercolor="#666666"
     borderopacity="1.0"
     inkscape:pageshadow="2"
     inkscape:pageopacity="0.0"
     inkscape:pagecheckerboard="0"
     inkscape:document-units="px"
     showgrid="false"
     inkscape:zoom="8.8776829"
     inkscape:cx="9.2366444"
     inkscape:cy="8.7860764"
     inkscape:window-width="1366"
     inkscape:window-height="707"
     inkscape:window-x="0"
     inkscape:window-y="0"
     inkscape:window-maximized="1"
     inkscape:current-layer="layer1"
     inkscape:document-rotation="0"
     showguides="false">
    <inkscape:grid
       type="xygrid"
       id="grid824" />
  </sodipodi:namedview>
  <defs
     id="defs2" />
  <g
     inkscape:label="Capa 1"
     inkscape:groupmode="layer"
     id="layer1">
    <path
       id="rect929"
       style="stroke-linecap:round;stroke-linejoin:round"
       d="M 3 0 C 1.338 0 0 1.338 0 3 L 0 4 L 1 4 C 1 2.338 2.338 1 4 1 L 4 0 L 3 0 z M 6 0 L 6 1 L 10 1 L 10 0 L 6 0 z M 12 0 L 12 1 C 13.662 1 15 2.338 15 4 L 16 4 L 16 3 C 16 1.338 14.662 0 13 0 L 12 0 z M 0 6 L 0 9 L 1 9 L 1 6 L 0 6 z M 15 6 L 15 9 L 16 9 L 16 6 L 15 6 z M 0 11 L 0 13 C 0 14.662 1.338 16 3 16 L 4 16 L 4 15 C 2.338 15 1 13.662 1 12 L 1 11 L 0 11 z M 15 11 L 15 12 C 15 13.662 13.662 15 12 15 L 12 16 L 13 16 C 14.662 16 16 14.662 16 13 L 16 11 L 15 11 z M 6 15 L 6 16 L 10 16 L 10 15 L 6 15 z " />
    <rect
       style="stroke-width:3.26595;stroke-linecap:round;stroke-linejoin:round"
       id="rect1277-2"
       width="8"
       height="8"
       x="4"
       y="4"
       ry="2" />
  </g>
</svg>
