<?xml version="1.0" encoding="UTF-8" standalone="no"?>
<svg
   width="16"
   height="16"
   viewBox="0 0 16 16"
   version="1.1"
   id="svg5"
   inkscape:version="1.1.1 (3bf5ae0d25, 2021-09-20, custom)"
   sodipodi:docname="edit-select-symbolic.svg"
   xmlns:inkscape="http://www.inkscape.org/namespaces/inkscape"
   xmlns:sodipodi="http://sodipodi.sourceforge.net/DTD/sodipodi-0.dtd"
   xmlns="http://www.w3.org/2000/svg"
   xmlns:svg="http://www.w3.org/2000/svg"
   xmlns:rdf="http://www.w3.org/1999/02/22-rdf-syntax-ns#"
   xmlns:cc="http://creativecommons.org/ns#"
   xmlns:dc="http://purl.org/dc/elements/1.1/">
  <metadata
     id="metadata9">
    <rdf:RDF>
      <cc:Work
         rdf:about="">
        <dc:format>image/svg+xml</dc:format>
        <dc:type
           rdf:resource="http://purl.org/dc/dcmitype/StillImage" />
      </cc:Work>
    </rdf:RDF>
  </metadata>
  <sodipodi:namedview
     id="namedview7"
     pagecolor="#ffffff"
     bordercolor="#666666"
     borderopacity="1.0"
     inkscape:pageshadow="2"
     inkscape:pageopacity="0.0"
     inkscape:pagecheckerboard="0"
     inkscape:document-units="px"
     showgrid="false"
     inkscape:zoom="17.28125"
     inkscape:cx="8.9692586"
     inkscape:cy="9.5768535"
     inkscape:window-width="1366"
     inkscape:window-height="703"
     inkscape:window-x="0"
     inkscape:window-y="0"
     inkscape:window-maximized="1"
     inkscape:current-layer="layer1"
     inkscape:document-rotation="0">
    <inkscape:grid
       type="xygrid"
       id="grid928" />
  </sodipodi:namedview>
  <defs
     id="defs2" />
  <g
     inkscape:label="Capa 1"
     inkscape:groupmode="layer"
     id="layer1">
    <path
       id="rect7992"
       d="M 3,0 C 1.338,0 0,1.338 0,3 v 10 c 0,1.662 1.338,3 3,3 h 10 c 1.662,0 3,-1.338 3,-3 V 3 C 16,1.338 14.662,0 13,0 Z m 0.625,1 h 8.75 C 13.82925,1 15,2.17075 15,3.625 v 8.75 C 15,13.82925 13.82925,15 12.375,15 H 3.625 C 2.17075,15 1,13.82925 1,12.375 V 3.625 C 1,2.17075 2.17075,1 3.625,1 Z" />
    <path
       id="rect9135"
       d="M 4,3 C 3.446,3 3,3.446 3,4 V 6 C 3,6.554 3.446,7 4,7 4.554,7 5,6.554 5,6 V 5 H 6 C 6.554,5 7,4.554 7,4 7,3.446 6.554,3 6,3 Z" />
    <path
       id="rect9135-9"
       d="m 12,3 c 0.554,0 1,0.446 1,1 V 6 C 13,6.554 12.554,7 12,7 11.446,7 11,6.554 11,6 V 5 H 10 C 9.446,5 9,4.554 9,4 9,3.446 9.446,3 10,3 Z" />
    <path
       id="rect9135-9-4"
       d="m 12,13 c 0.554,0 1,-0.446 1,-1 V 10 C 13,9.446 12.554,9 12,9 11.446,9 11,9.446 11,10 v 1 h -1 c -0.554,0 -1,0.446 -1,1 0,0.554 0.446,1 1,1 z" />
    <path
       id="rect9135-9-4-7"
       d="M 4,13 C 3.446,13 3,12.554 3,12 V 10 C 3,9.446 3.446,9 4,9 4.554,9 5,9.446 5,10 v 1 h 1 c 0.554,0 1,0.446 1,1 0,0.554 -0.446,1 -1,1 z" />
  </g>
</svg>
