<?xml version="1.0" encoding="UTF-8" standalone="no"?>
<svg
   width="16"
   height="16"
   viewBox="0 0 16 16"
   version="1.1"
   id="svg5"
   inkscape:version="1.1.1 (3bf5ae0d25, 2021-09-20, custom)"
   sodipodi:docname="folder-new-symbolic.svg"
   xmlns:inkscape="http://www.inkscape.org/namespaces/inkscape"
   xmlns:sodipodi="http://sodipodi.sourceforge.net/DTD/sodipodi-0.dtd"
   xmlns="http://www.w3.org/2000/svg"
   xmlns:svg="http://www.w3.org/2000/svg"
   xmlns:rdf="http://www.w3.org/1999/02/22-rdf-syntax-ns#"
   xmlns:cc="http://creativecommons.org/ns#"
   xmlns:dc="http://purl.org/dc/elements/1.1/">
  <metadata
     id="metadata10">
    <rdf:RDF>
      <cc:Work
         rdf:about="">
        <dc:format>image/svg+xml</dc:format>
        <dc:type
           rdf:resource="http://purl.org/dc/dcmitype/StillImage" />
      </cc:Work>
    </rdf:RDF>
  </metadata>
  <sodipodi:namedview
     id="namedview7"
     pagecolor="#ffffff"
     bordercolor="#666666"
     borderopacity="1.0"
     inkscape:pageshadow="2"
     inkscape:pageopacity="0.0"
     inkscape:pagecheckerboard="0"
     inkscape:document-units="px"
     showgrid="false"
     inkscape:zoom="26.539637"
     inkscape:cx="8.2141289"
     inkscape:cy="9.1937956"
     inkscape:window-width="1366"
     inkscape:window-height="707"
     inkscape:window-x="0"
     inkscape:window-y="0"
     inkscape:window-maximized="1"
     inkscape:current-layer="layer1"
     inkscape:document-rotation="0">
    <inkscape:grid
       type="xygrid"
       id="grid1468" />
  </sodipodi:namedview>
  <defs
     id="defs2" />
  <g
     inkscape:label="Capa 1"
     inkscape:groupmode="layer"
     id="layer1">
    <rect
       style="fill-opacity:1;stroke-width:1.09545"
       id="rect2992"
       width="2"
       height="6"
       x="7"
       y="7"
       ry="1.2" />
    <rect
       style="fill-opacity:1;stroke-width:1.09545"
       id="rect2992-2"
       width="2"
       height="6"
       x="9"
       y="-11"
       ry="1.2"
       transform="rotate(90)" />
    <path
       id="rect1727"
       style="stroke-width:1.00157;stroke-linecap:square"
       d="M 2 1 C 0.892 1 0 1.892 0 3 L 0 8 L 1 8 L 1 4.6054688 L 1 3.7324219 L 1 2.8007812 L 1 2.2929688 L 1 2.1992188 C 1 1.5344185 1.5344187 1 2.1992188 1 L 2 1 z M 6.8007812 1 C 7.3974423 1 7.8877799 1.431007 7.9824219 2 L 13.267578 2 C 14.227845 2 15 2.7721552 15 3.7324219 L 15 8 L 16 8 L 16 3 C 16 1.892 15.108 1 14 1 L 6.8007812 1 z " />
    <path
       id="rect1878"
       style="stroke-width:1.00157;stroke-linecap:square"
       d="M 2 0 C 0.892 0 0 0.892 0 2 L 0 3 C 0 3.7427756 0.40192288 4.3874457 1 4.7324219 L 1 4.7070312 L 1 3.7324219 L 1 2.8007812 L 1 2.3945312 L 1 2.1992188 C 1 1.5344185 1.5344187 1 2.1992188 1 L 6.8007812 1 C 7.3974424 1 7.8879089 1.4311359 7.9824219 2 L 9 2 C 9 0.892 8.108 0 7 0 L 2 0 z " />
    <path
       id="rect2516"
       style="stroke-width:1.11979;stroke-linecap:square"
       d="M 4 3 C 3.446 3 3 3.446 3 4 L 3 6 L 4.5 6 C 4.223 6 4 5.777 4 5.5 L 4 4.5 C 4 4.223 4.223 4 4.5 4 L 11.5 4 C 11.777 4 12 4.223 12 4.5 L 12 5.5 C 12 5.777 11.777 6 11.5 6 L 13 6 L 13 4 C 13 3.446 12.554 3 12 3 L 4 3 z " />
    <path
       id="rect2639"
       style="stroke-width:1.00157;stroke-linecap:square"
       d="M 2 5 C 0.892 5 0 5.892 0 7 L 0 14 C 0 15.108 0.892 16 2 16 L 14 16 C 15.108 16 16 15.108 16 14 L 16 7 C 16 5.892 15.108 5 14 5 L 2 5 z M 2.6367188 6 L 13.363281 6 C 14.269827 6 15 6.7301733 15 7.6367188 L 15 13.363281 C 15 14.269827 14.269827 15 13.363281 15 L 2.6367188 15 C 1.7301733 15 1 14.269827 1 13.363281 L 1 7.6367188 C 1 6.7301733 1.7301733 6 2.6367188 6 z " />
  </g>
</svg>
