<?xml version="1.0" encoding="UTF-8" standalone="no"?>
<svg
   width="16"
   height="16"
   viewBox="0 0 16 16"
   version="1.1"
   id="svg5"
   inkscape:version="1.1.1 (3bf5ae0d25, 2021-09-20, custom)"
   sodipodi:docname="object-flip-vertical-symbolic.svg"
   xmlns:inkscape="http://www.inkscape.org/namespaces/inkscape"
   xmlns:sodipodi="http://sodipodi.sourceforge.net/DTD/sodipodi-0.dtd"
   xmlns="http://www.w3.org/2000/svg"
   xmlns:svg="http://www.w3.org/2000/svg"
   xmlns:rdf="http://www.w3.org/1999/02/22-rdf-syntax-ns#"
   xmlns:cc="http://creativecommons.org/ns#"
   xmlns:dc="http://purl.org/dc/elements/1.1/">
  <metadata
     id="metadata11">
    <rdf:RDF>
      <cc:Work
         rdf:about="">
        <dc:format>image/svg+xml</dc:format>
        <dc:type
           rdf:resource="http://purl.org/dc/dcmitype/StillImage" />
      </cc:Work>
    </rdf:RDF>
  </metadata>
  <sodipodi:namedview
     id="namedview7"
     pagecolor="#ffffff"
     bordercolor="#666666"
     borderopacity="1.0"
     inkscape:pageshadow="2"
     inkscape:pageopacity="0.0"
     inkscape:pagecheckerboard="0"
     inkscape:document-units="px"
     showgrid="false"
     inkscape:zoom="17.755366"
     inkscape:cx="6.3642732"
     inkscape:cy="9.9969778"
     inkscape:window-width="1366"
     inkscape:window-height="703"
     inkscape:window-x="0"
     inkscape:window-y="0"
     inkscape:window-maximized="1"
     inkscape:current-layer="layer1"
     inkscape:document-rotation="0"
     showguides="false">
    <inkscape:grid
       type="xygrid"
       id="grid824" />
  </sodipodi:namedview>
  <defs
     id="defs2" />
  <g
     inkscape:label="Capa 1"
     inkscape:groupmode="layer"
     id="layer1">
    <path
       id="rect2687"
       style="fill-opacity:1;stroke-width:0.999991"
       d="m 10.999841,3.8611687 c 0.0063,-0.2969284 -0.10927,-0.596119 -0.347657,-0.828125 L 8.9314812,1.3572625 C 8.6833224,1.1157435 8.3519117,0.99829375 8.021325,1.0017937 c -0.0073,-10e-5 -0.014145,-0.001953 -0.021484,-0.001953 -0.019979,0 -0.038905,0.002706 -0.058594,0.003906 -0.064225,0.00373 -0.1271515,0.012144 -0.1875,0.027344 C 7.5429502,1.0768726 7.3416995,1.1731672 7.1736687,1.3240594 L 5.3826526,2.9334344 C 4.8863106,3.3791492 4.8707326,4.1120015 5.3474966,4.5760125 5.7920766,5.0086887 6.503392,5.050889 6.9998406,4.6932 v 1.3066406 1 3 1.3066414 c -0.4964486,-0.357689 -1.207764,-0.315553 -1.652344,0.117187 -0.476764,0.464012 -0.461186,1.196863 0.035156,1.642578 l 1.7910161,1.609375 c 0.1680308,0.150893 0.3692815,0.247189 0.5800781,0.292969 0.060348,0.0152 0.123275,0.02364 0.1875,0.02734 0.019689,0.0012 0.038615,0.0039 0.058594,0.0039 0.00734,0 0.014184,-0.0019 0.021484,-0.002 0.3305867,0.0035 0.6619974,-0.11395 0.9101562,-0.355469 l 1.7207028,-1.675781 c 0.238387,-0.232006 0.353997,-0.531195 0.347657,-0.828125 -0.0063,-0.296927 -0.134642,-0.591596 -0.382813,-0.814453 -0.450701,-0.404735 -1.1376114,-0.428273 -1.6171874,-0.08203 v -1.2421884 -3 -1 -1.2421875 c 0.479576,0.346241 1.1664864,0.3227028 1.6171874,-0.082031 0.248171,-0.222858 0.376469,-0.5175246 0.382813,-0.8144531 z" />
  </g>
</svg>
