<?xml version="1.0" encoding="UTF-8" standalone="no"?>
<svg
   width="16"
   height="16"
   viewBox="0 0 16 16"
   version="1.1"
   id="svg5"
   inkscape:version="1.1.1 (3bf5ae0d25, 2021-09-20, custom)"
   sodipodi:docname="object-flip-horizontal-symbolic.svg"
   xmlns:inkscape="http://www.inkscape.org/namespaces/inkscape"
   xmlns:sodipodi="http://sodipodi.sourceforge.net/DTD/sodipodi-0.dtd"
   xmlns="http://www.w3.org/2000/svg"
   xmlns:svg="http://www.w3.org/2000/svg"
   xmlns:rdf="http://www.w3.org/1999/02/22-rdf-syntax-ns#"
   xmlns:cc="http://creativecommons.org/ns#"
   xmlns:dc="http://purl.org/dc/elements/1.1/">
  <metadata
     id="metadata11">
    <rdf:RDF>
      <cc:Work
         rdf:about="">
        <dc:format>image/svg+xml</dc:format>
        <dc:type
           rdf:resource="http://purl.org/dc/dcmitype/StillImage" />
      </cc:Work>
    </rdf:RDF>
  </metadata>
  <sodipodi:namedview
     id="namedview7"
     pagecolor="#ffffff"
     bordercolor="#666666"
     borderopacity="1.0"
     inkscape:pageshadow="2"
     inkscape:pageopacity="0.0"
     inkscape:pagecheckerboard="0"
     inkscape:document-units="px"
     showgrid="false"
     inkscape:zoom="17.755366"
     inkscape:cx="6.3642732"
     inkscape:cy="9.9969778"
     inkscape:window-width="1366"
     inkscape:window-height="703"
     inkscape:window-x="0"
     inkscape:window-y="0"
     inkscape:window-maximized="1"
     inkscape:current-layer="layer1"
     inkscape:document-rotation="0"
     showguides="false">
    <inkscape:grid
       type="xygrid"
       id="grid824" />
  </sodipodi:namedview>
  <defs
     id="defs2" />
  <g
     inkscape:label="Capa 1"
     inkscape:groupmode="layer"
     id="layer1">
    <path
       id="rect2687"
       style="fill-opacity:1;stroke-width:0.999991"
       d="M 3.8613281 5 C 3.5643997 4.9936563 3.2652091 5.1092693 3.0332031 5.3476562 L 1.3574219 7.0683594 C 1.1159029 7.3165182 0.99845313 7.6479289 1.0019531 7.9785156 C 1.0018531 7.9858156 1 7.992661 1 8 C 1 8.019979 1.0027063 8.0389048 1.0039062 8.0585938 C 1.0076363 8.1228188 1.01605 8.1857453 1.03125 8.2460938 C 1.077032 8.4568904 1.1733266 8.6581411 1.3242188 8.8261719 L 2.9335938 10.617188 C 3.3793086 11.11353 4.1121609 11.129108 4.5761719 10.652344 C 5.0088481 10.207764 5.0510484 9.4964486 4.6933594 9 L 6 9 L 7 9 L 10 9 L 11.306641 9 C 10.948952 9.4964486 10.991088 10.207764 11.423828 10.652344 C 11.88784 11.129108 12.620691 11.11353 13.066406 10.617188 L 14.675781 8.8261719 C 14.826674 8.6581411 14.92297 8.4568904 14.96875 8.2460938 C 14.98395 8.1857453 14.992394 8.1228188 14.996094 8.0585938 C 14.997294 8.0389048 15 8.019979 15 8 C 15 7.992661 14.998147 7.9858156 14.998047 7.9785156 C 15.001548 7.6479289 14.884097 7.3165182 14.642578 7.0683594 L 12.966797 5.3476562 C 12.734791 5.1092693 12.435602 4.99366 12.138672 5 C 11.841745 5.0063439 11.547076 5.1346421 11.324219 5.3828125 C 10.919484 5.8335133 10.895946 6.520424 11.242188 7 L 10 7 L 7 7 L 6 7 L 4.7578125 7 C 5.1040535 6.520424 5.0805153 5.8335133 4.6757812 5.3828125 C 4.4529232 5.1346421 4.1582566 5.0063439 3.8613281 5 z " />
  </g>
</svg>
