<?xml version="1.0" encoding="UTF-8" standalone="no"?>
<svg
   width="16"
   height="16"
   viewBox="0 0 16 16"
   version="1.1"
   id="svg5"
   inkscape:version="1.1.1 (3bf5ae0d25, 2021-09-20, custom)"
   sodipodi:docname="object-unlocked-symbolic.svg"
   xmlns:inkscape="http://www.inkscape.org/namespaces/inkscape"
   xmlns:sodipodi="http://sodipodi.sourceforge.net/DTD/sodipodi-0.dtd"
   xmlns="http://www.w3.org/2000/svg"
   xmlns:svg="http://www.w3.org/2000/svg"
   xmlns:rdf="http://www.w3.org/1999/02/22-rdf-syntax-ns#"
   xmlns:cc="http://creativecommons.org/ns#"
   xmlns:dc="http://purl.org/dc/elements/1.1/">
  <metadata
     id="metadata9">
    <rdf:RDF>
      <cc:Work
         rdf:about="">
        <dc:format>image/svg+xml</dc:format>
        <dc:type
           rdf:resource="http://purl.org/dc/dcmitype/StillImage" />
      </cc:Work>
    </rdf:RDF>
  </metadata>
  <sodipodi:namedview
     id="namedview7"
     pagecolor="#ffffff"
     bordercolor="#666666"
     borderopacity="1.0"
     inkscape:pageshadow="2"
     inkscape:pageopacity="0.0"
     inkscape:pagecheckerboard="0"
     inkscape:document-units="px"
     showgrid="false"
     inkscape:zoom="17.28125"
     inkscape:cx="8.8535262"
     inkscape:cy="7.1464738"
     inkscape:window-width="1366"
     inkscape:window-height="703"
     inkscape:window-x="0"
     inkscape:window-y="0"
     inkscape:window-maximized="1"
     inkscape:current-layer="layer1"
     inkscape:document-rotation="0">
    <inkscape:grid
       type="xygrid"
       id="grid928" />
  </sodipodi:namedview>
  <defs
     id="defs2" />
  <g
     inkscape:label="Capa 1"
     inkscape:groupmode="layer"
     id="layer1"
     style="display:inline">
    <path
       id="rect968"
       style="fill:#000000;stroke-width:0.783349"
       d="M 4,6 C 2.892,6 2,6.892 2,8 v 5 c 0,1.108 0.892,2 2,2 h 8 c 1.108,0 2,-0.892 2,-2 V 8 C 14,6.892 13.108,6 12,6 Z M 4.5546875,7 H 11.445312 C 12.30709,7 13,7.6929097 13,8.5546875 V 12.445312 C 13,13.30709 12.30709,14 11.445312,14 H 4.5546875 C 3.6929097,14 3,13.30709 3,12.445312 V 8.5546875 C 3,7.6929097 3.6929097,7 4.5546875,7 Z" />
    <path
       id="rect968-2"
       style="fill:#000000;stroke-width:0.603023"
       d="M 7,2 C 5.338,2 4,3.338 4,5 V 7 C 4,7.034181 4.0008301,7.067664 4.00195,7.1015625 4.1739745,7.036334 4.3592537,7 4.5546875,7 H 5.0136719 C 5.0046635,6.917871 5,6.8346058 5,6.75 V 5.25 C 5,4.0035 6.0035,3 7.25,3 h 1.5 c 0.7831345,0 1.470341,0.3963943 1.873047,1 h 1.207031 C 11.419906,2.8327236 10.310929,2 9,2 Z m 3.986328,3 C 10.995337,5.082129 11,5.1653942 11,5.25 V 5 Z M 11,6 V 6.75 C 11,6.834606 10.9953,6.917871 10.98633,7 h 0.458984 c 0.195435,0 0.380713,0.036334 0.552735,0.1015625 C 11.99917,7.067664 12,7.0341814 12,7 V 6 Z" />
  </g>
</svg>
