<?xml version="1.0" encoding="UTF-8" standalone="no"?>
<svg
   width="16"
   height="16"
   viewBox="0 0 16 16"
   version="1.1"
   id="svg5"
   inkscape:version="1.1.1 (3bf5ae0d25, 2021-09-20, custom)"
   sodipodi:docname="object-rotate-right-symbolic.svg"
   xmlns:inkscape="http://www.inkscape.org/namespaces/inkscape"
   xmlns:sodipodi="http://sodipodi.sourceforge.net/DTD/sodipodi-0.dtd"
   xmlns="http://www.w3.org/2000/svg"
   xmlns:svg="http://www.w3.org/2000/svg"
   xmlns:rdf="http://www.w3.org/1999/02/22-rdf-syntax-ns#"
   xmlns:cc="http://creativecommons.org/ns#"
   xmlns:dc="http://purl.org/dc/elements/1.1/">
  <metadata
     id="metadata11">
    <rdf:RDF>
      <cc:Work
         rdf:about="">
        <dc:format>image/svg+xml</dc:format>
        <dc:type
           rdf:resource="http://purl.org/dc/dcmitype/StillImage" />
      </cc:Work>
    </rdf:RDF>
  </metadata>
  <sodipodi:namedview
     id="namedview7"
     pagecolor="#ffffff"
     bordercolor="#666666"
     borderopacity="1.0"
     inkscape:pageshadow="2"
     inkscape:pageopacity="0.0"
     inkscape:pagecheckerboard="0"
     inkscape:document-units="px"
     showgrid="false"
     inkscape:zoom="6.2774699"
     inkscape:cx="9.7172908"
     inkscape:cy="6.1330442"
     inkscape:window-width="1366"
     inkscape:window-height="703"
     inkscape:window-x="0"
     inkscape:window-y="0"
     inkscape:window-maximized="1"
     inkscape:current-layer="layer1"
     inkscape:document-rotation="0"
     showguides="false">
    <inkscape:grid
       type="xygrid"
       id="grid824" />
  </sodipodi:namedview>
  <defs
     id="defs2" />
  <g
     inkscape:label="Capa 1"
     inkscape:groupmode="layer"
     id="layer1">
    <path
       id="rect2687"
       style="fill-opacity:1;stroke-width:0.999991"
       d="m 11.138675,2 c 0.296928,-0.00634 0.596119,0.1092694 0.828125,0.3476562 l 1.675781,1.7207032 c 0.241519,0.2481588 0.358969,0.5795695 0.355469,0.9101562 1e-4,0.0073 0.002,0.014145 0.002,0.021484 0,0.019979 -0.0027,0.038905 -0.0039,0.058594 -0.0037,0.064225 -0.01214,0.1271515 -0.02734,0.1875 -0.04578,0.2107966 -0.142077,0.4120473 -0.292969,0.5800781 L 12.066402,7.6171873 C 11.843552,7.8653588 11.548885,7.9936577 11.251956,8 10.955027,8.0063423 10.655837,7.8907279 10.423831,7.6523438 9.9911479,7.2077681 9.9489547,6.4964486 10.306644,6 h -1.3066409 -1 V 4 h 1 1.2421879 C 9.8959496,3.520424 9.9194879,2.8335133 10.324222,2.3828125 10.54708,2.1346421 10.841746,2.0063439 11.138675,2 Z" />
    <path
       id="rect1607"
       style="fill-rule:evenodd"
       d="M 9,4 V 4.4140625 C 9.3599832,4.5705132 9.6982661,4.7673074 10.007813,5 H 9 V 6 H 7 C 5.338,6 4,7.338 4,9 c 0,1.662 1.338,3 3,3 1.662,0 3,-1.338 3,-3 h 2 C 12,11.77 9.77,14 7,14 4.23,14 2,11.77 2,9 2,6.23 4.23,4 7,4 Z" />
  </g>
</svg>
