<?xml version="1.0" encoding="UTF-8" standalone="no"?>
<svg
   width="16"
   height="16"
   viewBox="0 0 16 16"
   version="1.1"
   id="svg5"
   inkscape:version="1.1.1 (3bf5ae0d25, 2021-09-20, custom)"
   sodipodi:docname="paint-gradient-mesh-symbolic.svg"
   xmlns:inkscape="http://www.inkscape.org/namespaces/inkscape"
   xmlns:sodipodi="http://sodipodi.sourceforge.net/DTD/sodipodi-0.dtd"
   xmlns="http://www.w3.org/2000/svg"
   xmlns:svg="http://www.w3.org/2000/svg"
   xmlns:rdf="http://www.w3.org/1999/02/22-rdf-syntax-ns#"
   xmlns:cc="http://creativecommons.org/ns#"
   xmlns:dc="http://purl.org/dc/elements/1.1/">
  <metadata
     id="metadata9">
    <rdf:RDF>
      <cc:Work
         rdf:about="">
        <dc:format>image/svg+xml</dc:format>
        <dc:type
           rdf:resource="http://purl.org/dc/dcmitype/StillImage" />
      </cc:Work>
    </rdf:RDF>
  </metadata>
  <sodipodi:namedview
     id="namedview7"
     pagecolor="#ffffff"
     bordercolor="#666666"
     borderopacity="1.0"
     inkscape:pageshadow="2"
     inkscape:pageopacity="0.0"
     inkscape:pagecheckerboard="0"
     inkscape:document-units="px"
     showgrid="false"
     inkscape:zoom="24.439378"
     inkscape:cx="10.474898"
     inkscape:cy="8.6540664"
     inkscape:window-width="1366"
     inkscape:window-height="703"
     inkscape:window-x="0"
     inkscape:window-y="0"
     inkscape:window-maximized="1"
     inkscape:current-layer="layer1"
     inkscape:document-rotation="0">
    <inkscape:grid
       type="xygrid"
       id="grid928" />
  </sodipodi:namedview>
  <defs
     id="defs2" />
  <g
     inkscape:label="Capa 1"
     inkscape:groupmode="layer"
     id="layer1">
    <path
       id="rect3343"
       style="opacity:1"
       d="M 3 1 C 1.892 1 1 1.892 1 3 L 1 13 C 1 14.108 1.892 15 3 15 L 13 15 C 14.108 15 15 14.108 15 13 L 15 3 C 15 1.892 14.108 1 13 1 L 3 1 z M 3.7148438 2 L 12.285156 2 C 13.234871 2 14 2.7651295 14 3.7148438 L 14 12.285156 C 14 13.234871 13.234871 14 12.285156 14 L 3.7148438 14 C 2.7651295 14 2 13.234871 2 12.285156 L 2 3.7148438 C 2 2.7651295 2.7651295 2 3.7148438 2 z " />
    <rect
       style="opacity:1;stroke-width:0.707107"
       id="rect3589"
       width="6"
       height="3"
       x="2"
       y="2" />
    <rect
       style="stroke-width:0.707107;opacity:0.6"
       id="rect3589-6"
       width="6"
       height="3"
       x="2"
       y="5" />
    <rect
       style="opacity:0.6;stroke-width:0.707107"
       id="rect3589-6-2"
       width="6"
       height="3"
       x="8"
       y="8" />
    <rect
       style="opacity:0.4;stroke-width:1"
       id="rect3589-6-2-6"
       width="6"
       height="6"
       x="8"
       y="2" />
    <rect
       style="opacity:0.4;stroke-width:1"
       id="rect3589-6-2-6-1"
       width="6"
       height="6"
       x="2"
       y="8" />
    <rect
       id="rect3589-0"
       width="6"
       height="3"
       x="8"
       y="11"
       style="stroke-width:0.707107;opacity:1" />
  </g>
</svg>
