<?xml version="1.0" encoding="UTF-8" standalone="no"?>
<svg
   width="16"
   height="16"
   viewBox="0 0 16 16"
   version="1.1"
   id="svg5"
   inkscape:version="1.1.1 (3bf5ae0d25, 2021-09-20, custom)"
   sodipodi:docname="paint-gradient-mesh-symbolic.svg"
   xmlns:inkscape="http://www.inkscape.org/namespaces/inkscape"
   xmlns:sodipodi="http://sodipodi.sourceforge.net/DTD/sodipodi-0.dtd"
   xmlns="http://www.w3.org/2000/svg"
   xmlns:svg="http://www.w3.org/2000/svg"
   xmlns:rdf="http://www.w3.org/1999/02/22-rdf-syntax-ns#"
   xmlns:cc="http://creativecommons.org/ns#"
   xmlns:dc="http://purl.org/dc/elements/1.1/">
  <metadata
     id="metadata9">
    <rdf:RDF>
      <cc:Work
         rdf:about="">
        <dc:format>image/svg+xml</dc:format>
        <dc:type
           rdf:resource="http://purl.org/dc/dcmitype/StillImage" />
      </cc:Work>
    </rdf:RDF>
  </metadata>
  <sodipodi:namedview
     id="namedview7"
     pagecolor="#ffffff"
     bordercolor="#666666"
     borderopacity="1.0"
     inkscape:pageshadow="2"
     inkscape:pageopacity="0.0"
     inkscape:pagecheckerboard="0"
     inkscape:document-units="px"
     showgrid="false"
     inkscape:zoom="6.1098445"
     inkscape:cx="10.474898"
     inkscape:cy="8.6745252"
     inkscape:window-width="1366"
     inkscape:window-height="707"
     inkscape:window-x="0"
     inkscape:window-y="0"
     inkscape:window-maximized="1"
     inkscape:current-layer="layer1"
     inkscape:document-rotation="0">
    <inkscape:grid
       type="xygrid"
       id="grid928" />
  </sodipodi:namedview>
  <defs
     id="defs2" />
  <g
     inkscape:label="Capa 1"
     inkscape:groupmode="layer"
     id="layer1">
    <rect
       style="opacity:1;stroke-width:0.707107"
       id="rect3589"
       width="6"
       height="3"
       x="2"
       y="2" />
    <rect
       style="stroke-width:0.707107;opacity:0.6"
       id="rect3589-6"
       width="6"
       height="3"
       x="2"
       y="5" />
    <rect
       style="opacity:0.4;stroke-width:0.707107"
       id="rect3589-6-6"
       width="6"
       height="3"
       x="8"
       y="-5"
       transform="rotate(90)" />
    <rect
       style="opacity:0.4;stroke-width:0.707107"
       id="rect3589-6-6-7"
       width="6"
       height="3"
       x="2"
       y="-14"
       transform="rotate(90)" />
    <rect
       style="opacity:0.6;stroke-width:0.707107"
       id="rect3589-6-2"
       width="6"
       height="3"
       x="8"
       y="8" />
    <rect
       style="opacity:0.3;stroke-width:0.707107"
       id="rect3589-6-2-6-1"
       width="3"
       height="6"
       x="5"
       y="8" />
    <rect
       style="opacity:0.3;stroke-width:0.707107"
       id="rect3589-6-2-6-1-5"
       width="3"
       height="6"
       x="8"
       y="2" />
    <rect
       id="rect3589-0"
       width="6"
       height="3"
       x="8"
       y="11"
       style="stroke-width:0.707107;opacity:1" />
    <path
       id="rect1031"
       style="opacity:1;stroke-linecap:round;stroke-linejoin:round"
       d="M 4 1 C 2.338 1 1 2.338 1 4 L 1 12 C 1 13.662 2.338 15 4 15 L 12 15 C 13.662 15 15 13.662 15 12 L 15 4 C 15 2.338 13.662 1 12 1 L 4 1 z M 5 2 L 11 2 C 12.662 2 14 3.338 14 5 L 14 11 C 14 12.662 12.662 14 11 14 L 5 14 C 3.338 14 2 12.662 2 11 L 2 5 C 2 3.338 3.338 2 5 2 z " />
  </g>
</svg>
