<?xml version="1.0" encoding="UTF-8" standalone="no"?>
<svg
   width="16"
   height="16"
   viewBox="0 0 16 16"
   version="1.1"
   id="svg5"
   inkscape:version="1.1.1 (3bf5ae0d25, 2021-09-20, custom)"
   sodipodi:docname="paint-gradient-linear-symbolic.svg"
   xmlns:inkscape="http://www.inkscape.org/namespaces/inkscape"
   xmlns:sodipodi="http://sodipodi.sourceforge.net/DTD/sodipodi-0.dtd"
   xmlns="http://www.w3.org/2000/svg"
   xmlns:svg="http://www.w3.org/2000/svg"
   xmlns:rdf="http://www.w3.org/1999/02/22-rdf-syntax-ns#"
   xmlns:cc="http://creativecommons.org/ns#"
   xmlns:dc="http://purl.org/dc/elements/1.1/">
  <metadata
     id="metadata9">
    <rdf:RDF>
      <cc:Work
         rdf:about="">
        <dc:format>image/svg+xml</dc:format>
        <dc:type
           rdf:resource="http://purl.org/dc/dcmitype/StillImage" />
      </cc:Work>
    </rdf:RDF>
  </metadata>
  <sodipodi:namedview
     id="namedview7"
     pagecolor="#ffffff"
     bordercolor="#666666"
     borderopacity="1.0"
     inkscape:pageshadow="2"
     inkscape:pageopacity="0.0"
     inkscape:pagecheckerboard="0"
     inkscape:document-units="px"
     showgrid="false"
     inkscape:zoom="17.28125"
     inkscape:cx="10.473779"
     inkscape:cy="8.6220615"
     inkscape:window-width="1366"
     inkscape:window-height="707"
     inkscape:window-x="0"
     inkscape:window-y="0"
     inkscape:window-maximized="1"
     inkscape:current-layer="layer1"
     inkscape:document-rotation="0">
    <inkscape:grid
       type="xygrid"
       id="grid928" />
  </sodipodi:namedview>
  <defs
     id="defs2" />
  <g
     inkscape:label="Capa 1"
     inkscape:groupmode="layer"
     id="layer1">
    <path
       id="rect852"
       style="stroke-linecap:round;stroke-linejoin:round"
       d="M 3 1.1738281 C 1.8333496 1.5843366 1 2.6895172 1 4 L 1 12 C 1 13.310483 1.8333496 14.415663 3 14.826172 L 3 1.1738281 z " />
    <path
       id="rect852-35"
       style="stroke-linecap:round;stroke-linejoin:round;opacity:0.3"
       d="m 13,1.174 c 1.16665,0.4105085 2,1.5156891 2,2.8261719 v 8.0000001 c 0,1.310483 -0.83335,2.415663 -2,2.826172 z" />
    <path
       id="rect852-3"
       style="stroke-linecap:round;stroke-linejoin:round;opacity:0.8"
       d="M 4,1 C 3.6484828,1 3.3129364,1.0637154 3,1.1738281 V 14.826172 C 3.3129364,14.936285 3.6484828,15 4,15 H 5 V 1 Z" />
    <path
       id="rect852-3-6"
       style="opacity:0.4;stroke-linecap:round;stroke-linejoin:round"
       d="m 12,1 c 0.351517,0 0.687064,0.063715 1,0.1738281 V 14.826172 C 12.687064,14.936285 12.351517,15 12,15 H 11 V 1 Z" />
    <rect
       style="opacity:0.7;stroke-linecap:round;stroke-linejoin:round"
       id="rect2116"
       width="2"
       height="14"
       x="5"
       y="1"
       ry="0" />
    <rect
       style="opacity:0.6;stroke-linecap:round;stroke-linejoin:round"
       id="rect2116-2"
       width="2"
       height="14"
       x="7"
       y="1"
       ry="0" />
    <rect
       style="opacity:0.5;stroke-linecap:round;stroke-linejoin:round"
       id="rect2116-2-9"
       width="2"
       height="14"
       x="9"
       y="1"
       ry="0" />
  </g>
</svg>
