<?xml version="1.0" encoding="UTF-8" standalone="no"?>
<svg
   width="16"
   height="16"
   viewBox="0 0 16 16"
   version="1.1"
   id="svg5"
   inkscape:version="1.1.1 (3bf5ae0d25, 2021-09-20, custom)"
   sodipodi:docname="selection-raise-symbolic.svg"
   xmlns:inkscape="http://www.inkscape.org/namespaces/inkscape"
   xmlns:sodipodi="http://sodipodi.sourceforge.net/DTD/sodipodi-0.dtd"
   xmlns="http://www.w3.org/2000/svg"
   xmlns:svg="http://www.w3.org/2000/svg"
   xmlns:rdf="http://www.w3.org/1999/02/22-rdf-syntax-ns#"
   xmlns:cc="http://creativecommons.org/ns#"
   xmlns:dc="http://purl.org/dc/elements/1.1/">
  <metadata
     id="metadata11">
    <rdf:RDF>
      <cc:Work
         rdf:about="">
        <dc:format>image/svg+xml</dc:format>
        <dc:type
           rdf:resource="http://purl.org/dc/dcmitype/StillImage" />
      </cc:Work>
    </rdf:RDF>
  </metadata>
  <sodipodi:namedview
     id="namedview7"
     pagecolor="#ffffff"
     bordercolor="#666666"
     borderopacity="1.0"
     inkscape:pageshadow="2"
     inkscape:pageopacity="0.0"
     inkscape:pagecheckerboard="0"
     inkscape:document-units="px"
     showgrid="false"
     inkscape:zoom="17.755366"
     inkscape:cx="6.3642732"
     inkscape:cy="9.9969778"
     inkscape:window-width="1366"
     inkscape:window-height="703"
     inkscape:window-x="0"
     inkscape:window-y="0"
     inkscape:window-maximized="1"
     inkscape:current-layer="layer1"
     inkscape:document-rotation="0"
     showguides="false">
    <inkscape:grid
       type="xygrid"
       id="grid824" />
  </sodipodi:namedview>
  <defs
     id="defs2" />
  <g
     inkscape:label="Capa 1"
     inkscape:groupmode="layer"
     id="layer1">
    <path
       id="rect2687"
       style="fill-opacity:1;stroke-width:0.9804"
       d="m 11,14.000002 v -0.232792 -0.9612 -1.255945 c -0.496449,0.343811 -1.2077635,0.303248 -1.6523435,-0.112641 -0.4767634,-0.446007 -0.46119,-1.150429 0.03516,-1.5788469 L 11.173832,8.3116443 C 11.341863,8.1666056 11.543114,8.0740468 11.75391,8.030042 11.81426,8.015432 11.87718,8.007316 11.94141,8.00376 11.9611,8.00261 11.98002,8 12,8 c 0.0073,0 0.01418,0.00178 0.02148,0.00187 0.330587,-0.00336 0.661998,0.1095279 0.910157,0.3416766 l 1.720707,1.6107751 C 14.890731,10.177326 15.0063,10.464908 15,10.750317 14.9937,11.035724 14.865358,11.318958 14.617188,11.53317 14.166486,11.9222 13.479576,11.944826 13,11.612019 v 1.193991 0.961202 0.232791 z" />
    <rect
       id="rect1414"
       width="7"
       height="1"
       x="1"
       y="3"
       style="stroke-width:0.935414" />
    <rect
       id="rect1414-7"
       width="14"
       height="1"
       x="1"
       y="6"
       style="stroke-width:1.32288" />
    <rect
       id="rect1414-7-5"
       width="7"
       height="1"
       x="1"
       y="9"
       style="stroke-width:0.935417" />
    <rect
       id="rect1414-7-5-3"
       width="7"
       height="1"
       x="1"
       y="12"
       style="stroke-width:0.935414" />
  </g>
</svg>
