<?xml version="1.0" encoding="UTF-8" standalone="no"?>
<svg
   width="16"
   height="16"
   viewBox="0 0 16 16"
   version="1.1"
   id="svg5"
   inkscape:version="1.1.1 (3bf5ae0d25, 2021-09-20, custom)"
   sodipodi:docname="selection-lower-symbolic.svg"
   xmlns:inkscape="http://www.inkscape.org/namespaces/inkscape"
   xmlns:sodipodi="http://sodipodi.sourceforge.net/DTD/sodipodi-0.dtd"
   xmlns="http://www.w3.org/2000/svg"
   xmlns:svg="http://www.w3.org/2000/svg"
   xmlns:rdf="http://www.w3.org/1999/02/22-rdf-syntax-ns#"
   xmlns:cc="http://creativecommons.org/ns#"
   xmlns:dc="http://purl.org/dc/elements/1.1/">
  <metadata
     id="metadata11">
    <rdf:RDF>
      <cc:Work
         rdf:about="">
        <dc:format>image/svg+xml</dc:format>
        <dc:type
           rdf:resource="http://purl.org/dc/dcmitype/StillImage" />
      </cc:Work>
    </rdf:RDF>
  </metadata>
  <sodipodi:namedview
     id="namedview7"
     pagecolor="#ffffff"
     bordercolor="#666666"
     borderopacity="1.0"
     inkscape:pageshadow="2"
     inkscape:pageopacity="0.0"
     inkscape:pagecheckerboard="0"
     inkscape:document-units="px"
     showgrid="false"
     inkscape:zoom="17.755366"
     inkscape:cx="6.3642732"
     inkscape:cy="9.9969778"
     inkscape:window-width="1366"
     inkscape:window-height="703"
     inkscape:window-x="0"
     inkscape:window-y="0"
     inkscape:window-maximized="1"
     inkscape:current-layer="layer1"
     inkscape:document-rotation="0"
     showguides="false">
    <inkscape:grid
       type="xygrid"
       id="grid824" />
  </sodipodi:namedview>
  <defs
     id="defs2" />
  <g
     inkscape:label="Capa 1"
     inkscape:groupmode="layer"
     id="layer1">
    <path
       id="rect2687"
       style="fill-opacity:1;stroke-width:0.9804"
       d="M 10.999929,2 V 2.2327909 3.1939918 4.449936 C 10.50348,4.106125 9.7921655,4.146688 9.3475855,4.5625768 c -0.4767634,0.4460078 -0.46119,1.1504301 0.03516,1.5788477 l 1.7910155,1.5469328 c 0.168031,0.1450387 0.369282,0.2375975 0.580078,0.2816023 0.06035,0.01461 0.12327,0.022726 0.1875,0.026282 0.01969,0.00115 0.03861,0.00376 0.05859,0.00376 0.0073,0 0.01418,-0.00178 0.02148,-0.00187 0.330587,0.00336 0.661998,-0.1095279 0.910157,-0.3416766 L 14.652273,6.0456799 C 14.89066,5.8226755 15.006229,5.5350932 14.999929,5.2496853 14.993585,4.9642774 14.865287,4.6810437 14.617117,4.4668321 14.166415,4.077802 13.479505,4.0551765 12.999929,4.3879836 V 3.1939918 2.2327909 2 Z" />
    <rect
       id="rect1414"
       width="7"
       height="1"
       x="1"
       y="3"
       style="stroke-width:0.935414" />
    <rect
       id="rect1414-7"
       width="7"
       height="1"
       x="1"
       y="6"
       style="stroke-width:0.935414" />
    <rect
       id="rect1414-7-5"
       width="14"
       height="1"
       x="1"
       y="9"
       style="stroke-width:1.32288" />
    <rect
       id="rect1414-7-5-3"
       width="7"
       height="1"
       x="1"
       y="12"
       style="stroke-width:0.935414" />
  </g>
</svg>
