<?xml version="1.0" encoding="UTF-8" standalone="no"?>
<svg
   width="16"
   height="16"
   viewBox="0 0 16 16"
   version="1.1"
   id="svg5"
   inkscape:version="1.1.1 (3bf5ae0d25, 2021-09-20, custom)"
   sodipodi:docname="selection-top-symbolic.svg"
   xmlns:inkscape="http://www.inkscape.org/namespaces/inkscape"
   xmlns:sodipodi="http://sodipodi.sourceforge.net/DTD/sodipodi-0.dtd"
   xmlns="http://www.w3.org/2000/svg"
   xmlns:svg="http://www.w3.org/2000/svg"
   xmlns:rdf="http://www.w3.org/1999/02/22-rdf-syntax-ns#"
   xmlns:cc="http://creativecommons.org/ns#"
   xmlns:dc="http://purl.org/dc/elements/1.1/">
  <metadata
     id="metadata11">
    <rdf:RDF>
      <cc:Work
         rdf:about="">
        <dc:format>image/svg+xml</dc:format>
        <dc:type
           rdf:resource="http://purl.org/dc/dcmitype/StillImage" />
      </cc:Work>
    </rdf:RDF>
  </metadata>
  <sodipodi:namedview
     id="namedview7"
     pagecolor="#ffffff"
     bordercolor="#666666"
     borderopacity="1.0"
     inkscape:pageshadow="2"
     inkscape:pageopacity="0.0"
     inkscape:pagecheckerboard="0"
     inkscape:document-units="px"
     showgrid="false"
     inkscape:zoom="17.755366"
     inkscape:cx="6.3642732"
     inkscape:cy="9.9969778"
     inkscape:window-width="1366"
     inkscape:window-height="703"
     inkscape:window-x="0"
     inkscape:window-y="0"
     inkscape:window-maximized="1"
     inkscape:current-layer="layer1"
     inkscape:document-rotation="0"
     showguides="false">
    <inkscape:grid
       type="xygrid"
       id="grid824" />
  </sodipodi:namedview>
  <defs
     id="defs2" />
  <g
     inkscape:label="Capa 1"
     inkscape:groupmode="layer"
     id="layer1">
    <path
       id="rect2687"
       style="fill-opacity:1;stroke-width:0.9804"
       d="M 12 6 C 11.98002 6 11.961096 6.0027563 11.941406 6.0039062 C 11.877176 6.0074623 11.814256 6.0146869 11.753906 6.0292969 C 11.54311 6.0733017 11.341859 6.1674613 11.173828 6.3125 L 9.3828125 7.859375 C 8.8864625 8.2877929 8.8708929 8.991493 9.3476562 9.4375 C 9.7922363 9.853389 10.503551 9.8945923 11 9.5507812 L 11 10.806641 L 11 11 L 11 11.767578 L 11 12 L 11 14 L 13 14 L 13 12 L 13 11 L 13 10.806641 L 13 9.6113281 C 13.479576 9.9441351 14.166486 9.9222331 14.617188 9.5332031 C 14.865358 9.3189911 14.9937 9.035407 15 8.75 C 15.0063 8.464591 14.890731 8.1780824 14.652344 7.9550781 L 12.931641 6.34375 C 12.683482 6.1116013 12.352071 5.9985931 12.021484 6.0019531 C 12.014184 6.0018631 12.0073 6 12 6 z " />
    <rect
       id="rect1414"
       width="14"
       height="1"
       x="1"
       y="3"
       style="stroke-width:1.32288" />
    <rect
       id="rect1414-7"
       width="7"
       height="1"
       x="1"
       y="6"
       style="stroke-width:0.935417" />
    <rect
       id="rect1414-7-5"
       width="7"
       height="1"
       x="1"
       y="9"
       style="stroke-width:0.935417" />
    <rect
       id="rect1414-7-5-3"
       width="7"
       height="1"
       x="1"
       y="12"
       style="stroke-width:0.935414" />
  </g>
</svg>
