<?xml version="1.0" encoding="UTF-8" standalone="no"?>
<svg
   width="16"
   height="16"
   viewBox="0 0 16 16"
   version="1.1"
   id="svg5"
   inkscape:version="1.1.1 (3bf5ae0d25, 2021-09-20, custom)"
   sodipodi:docname="edit-find-symbolic.svg"
   xmlns:inkscape="http://www.inkscape.org/namespaces/inkscape"
   xmlns:sodipodi="http://sodipodi.sourceforge.net/DTD/sodipodi-0.dtd"
   xmlns="http://www.w3.org/2000/svg"
   xmlns:svg="http://www.w3.org/2000/svg"
   xmlns:rdf="http://www.w3.org/1999/02/22-rdf-syntax-ns#"
   xmlns:cc="http://creativecommons.org/ns#"
   xmlns:dc="http://purl.org/dc/elements/1.1/">
  <metadata
     id="metadata9">
    <rdf:RDF>
      <cc:Work
         rdf:about="">
        <dc:format>image/svg+xml</dc:format>
        <dc:type
           rdf:resource="http://purl.org/dc/dcmitype/StillImage" />
        <dc:title />
      </cc:Work>
    </rdf:RDF>
  </metadata>
  <sodipodi:namedview
     id="namedview7"
     pagecolor="#ffffff"
     bordercolor="#666666"
     borderopacity="1.0"
     inkscape:pageshadow="2"
     inkscape:pageopacity="0.0"
     inkscape:pagecheckerboard="0"
     inkscape:document-units="px"
     showgrid="true"
     inkscape:zoom="24.439378"
     inkscape:cx="10.965909"
     inkscape:cy="9.7588408"
     inkscape:window-width="1366"
     inkscape:window-height="703"
     inkscape:window-x="0"
     inkscape:window-y="0"
     inkscape:window-maximized="1"
     inkscape:current-layer="layer1"
     inkscape:document-rotation="0">
    <inkscape:grid
       type="xygrid"
       id="grid928" />
  </sodipodi:namedview>
  <defs
     id="defs2" />
  <g
     inkscape:label="Capa 1"
     inkscape:groupmode="layer"
     id="layer1">
    <path
       id="rect1007"
       style="fill-rule:evenodd;stroke-width:1.07692"
       d="M 7 0 C 3.122 0 0 3.122 0 7 C 0 10.878 3.122 14 7 14 C 8.5970498 14 10.064869 13.469891 11.240234 12.576172 L 14.296875 15.701172 C 14.668933 16.081433 15.286602 16.102197 15.683594 15.748047 L 15.689453 15.744141 C 16.086445 15.38999 16.106433 14.798229 15.734375 14.417969 L 12.597656 11.212891 C 13.478642 10.042204 14 8.5844789 14 7 C 14 3.122 10.878 0 7 0 z M 7 1 C 10.324 1 13 3.676 13 7 C 13 8.3029364 12.586899 9.5046574 11.886719 10.486328 C 11.839842 10.55205 11.791578 10.615952 11.742188 10.679688 C 11.692797 10.743423 11.641686 10.807476 11.589844 10.869141 C 11.498304 10.978025 11.403606 11.083481 11.304688 11.185547 C 11.291564 11.199088 11.278875 11.213146 11.265625 11.226562 C 11.262383 11.229835 11.259109 11.233063 11.255859 11.236328 C 11.202406 11.290205 11.147264 11.342721 11.091797 11.394531 C 11.038043 11.444741 10.983332 11.492813 10.927734 11.541016 C 10.922486 11.545566 10.917374 11.550156 10.912109 11.554688 C 10.905101 11.560707 10.897662 11.566278 10.890625 11.572266 C 10.855062 11.602593 10.81949 11.632618 10.783203 11.662109 C 10.732447 11.703295 10.681025 11.743667 10.628906 11.783203 C 10.59715 11.807308 10.565464 11.831998 10.533203 11.855469 C 9.5432906 12.575657 8.3232196 13 7 13 C 3.676 13 1 10.324 1 7 C 1 3.676 3.676 1 7 1 z " />
  </g>
</svg>
