<?xml version="1.0" encoding="UTF-8" standalone="no"?>
<!-- Created with Inkscape (http://www.inkscape.org/) -->

<svg
   width="16"
   height="16"
   viewBox="0 0 16 16"
   version="1.1"
   id="svg5"
   inkscape:version="1.1.1 (3bf5ae0d25, 2021-09-20, custom)"
   sodipodi:docname="view-app-grid-symbolic.svg"
   xmlns:inkscape="http://www.inkscape.org/namespaces/inkscape"
   xmlns:sodipodi="http://sodipodi.sourceforge.net/DTD/sodipodi-0.dtd"
   xmlns="http://www.w3.org/2000/svg"
   xmlns:svg="http://www.w3.org/2000/svg">
  <sodipodi:namedview
     id="namedview7"
     pagecolor="#ffffff"
     bordercolor="#666666"
     borderopacity="1.0"
     inkscape:pageshadow="2"
     inkscape:pageopacity="0.0"
     inkscape:pagecheckerboard="0"
     inkscape:document-units="px"
     showgrid="false"
     inkscape:zoom="8.640625"
     inkscape:cx="17.822785"
     inkscape:cy="7.9855335"
     inkscape:window-width="1366"
     inkscape:window-height="707"
     inkscape:window-x="0"
     inkscape:window-y="0"
     inkscape:window-maximized="1"
     inkscape:current-layer="layer2">
    <inkscape:grid
       type="xygrid"
       id="grid824" />
  </sodipodi:namedview>
  <defs
     id="defs2" />
  <g
     inkscape:label="Base"
     inkscape:groupmode="layer"
     id="layer1">
    <path
       id="rect848"
       style="fill-opacity:1;stroke:none;stroke-width:0.571429;stroke-linecap:round;stroke-linejoin:round"
       d="M 2 0 C 0.892 0 0 0.892 0 2 L 0 14 C 0 15.108 0.892 16 2 16 L 14 16 C 15.108 16 16 15.108 16 14 L 16 2 C 16 0.892 15.108 0 14 0 L 2 0 z M 2.75 1 L 13.25 1 C 14.2195 1 15 1.7805 15 2.75 L 15 13.25 C 15 14.2195 14.2195 15 13.25 15 L 2.75 15 C 1.7805 15 1 14.2195 1 13.25 L 1 2.75 C 1 1.7805 1.7805 1 2.75 1 z " />
  </g>
  <g
     inkscape:groupmode="layer"
     id="layer2"
     inkscape:label="ícono">
    <rect
       style="stroke-width:1.00157;stroke-linecap:square"
       id="rect1927"
       width="3"
       height="3"
       x="4"
       y="4"
       ry="1" />
    <rect
       style="stroke-width:1.00157;stroke-linecap:square"
       id="rect1927-6"
       width="3"
       height="3"
       x="4"
       y="9"
       ry="1" />
    <rect
       style="stroke-width:1.00157;stroke-linecap:square"
       id="rect1927-6-2"
       width="3"
       height="3"
       x="9"
       y="9"
       ry="1" />
    <rect
       style="stroke-width:1.00157;stroke-linecap:square"
       id="rect1927-6-2-9"
       width="3"
       height="3"
       x="9"
       y="4"
       ry="1" />
  </g>
</svg>
