<?xml version="1.0" encoding="UTF-8" standalone="no"?>
<svg
   width="16"
   height="16"
   viewBox="0 0 16 16"
   version="1.1"
   id="svg5"
   inkscape:version="1.1.1 (3bf5ae0d25, 2021-09-20, custom)"
   sodipodi:docname="view-fullscreen-symbolic.svg"
   xmlns:inkscape="http://www.inkscape.org/namespaces/inkscape"
   xmlns:sodipodi="http://sodipodi.sourceforge.net/DTD/sodipodi-0.dtd"
   xmlns="http://www.w3.org/2000/svg"
   xmlns:svg="http://www.w3.org/2000/svg"
   xmlns:rdf="http://www.w3.org/1999/02/22-rdf-syntax-ns#"
   xmlns:cc="http://creativecommons.org/ns#"
   xmlns:dc="http://purl.org/dc/elements/1.1/">
  <metadata
     id="metadata9">
    <rdf:RDF>
      <cc:Work
         rdf:about="">
        <dc:format>image/svg+xml</dc:format>
        <dc:type
           rdf:resource="http://purl.org/dc/dcmitype/StillImage" />
      </cc:Work>
    </rdf:RDF>
  </metadata>
  <sodipodi:namedview
     id="namedview7"
     pagecolor="#ffffff"
     bordercolor="#666666"
     borderopacity="1.0"
     inkscape:pageshadow="2"
     inkscape:pageopacity="0.0"
     inkscape:pagecheckerboard="0"
     inkscape:document-units="px"
     showgrid="false"
     inkscape:zoom="17.28125"
     inkscape:cx="8.8535263"
     inkscape:cy="9.4900543"
     inkscape:window-width="1366"
     inkscape:window-height="707"
     inkscape:window-x="0"
     inkscape:window-y="0"
     inkscape:window-maximized="1"
     inkscape:current-layer="layer1"
     inkscape:document-rotation="0">
    <inkscape:grid
       type="xygrid"
       id="grid928" />
  </sodipodi:namedview>
  <defs
     id="defs2" />
  <g
     inkscape:label="Capa 1"
     inkscape:groupmode="layer"
     id="layer1">
    <path
       id="rect930"
       style="stroke-linecap:round;stroke-linejoin:round"
       d="M 3 0 C 1.338 0 0 1.338 0 3 L 0 4 L 1 4 C 1 2.338 2.338 1 4 1 L 4 0 L 3 0 z M 12 0 L 12 1 C 13.662 1 15 2.338 15 4 L 16 4 L 16 3 C 16 1.338 14.662 0 13 0 L 12 0 z M 0 12 L 0 13 C 0 14.662 1.338 16 3 16 L 4 16 L 4 15 C 2.338 15 1 13.662 1 12 L 0 12 z M 15 12 C 15 13.662 13.662 15 12 15 L 12 16 L 13 16 C 14.662 16 16 14.662 16 13 L 16 12 L 15 12 z " />
    <path
       id="rect1341"
       style="stroke-linecap:round;stroke-linejoin:round"
       d="M 5 3 C 3.892 3 3 3.892 3 5 L 3 11 C 3 12.108 3.892 13 5 13 L 11 13 C 12.108 13 13 12.108 13 11 L 13 5 C 13 3.892 12.108 3 11 3 L 5 3 z M 6 4 L 10 4 C 11.108 4 12 4.892 12 6 L 12 10 C 12 11.108 11.108 12 10 12 L 6 12 C 4.892 12 4 11.108 4 10 L 4 6 C 4 4.892 4.892 4 6 4 z " />
  </g>
</svg>
