<?xml version="1.0" encoding="UTF-8" standalone="no"?>
<svg
   width="16"
   height="16"
   viewBox="0 0 16 16"
   version="1.1"
   id="svg5"
   inkscape:version="1.1.1 (3bf5ae0d25, 2021-09-20, custom)"
   sodipodi:docname="window-new-symbolic.svg"
   xmlns:inkscape="http://www.inkscape.org/namespaces/inkscape"
   xmlns:sodipodi="http://sodipodi.sourceforge.net/DTD/sodipodi-0.dtd"
   xmlns="http://www.w3.org/2000/svg"
   xmlns:svg="http://www.w3.org/2000/svg"
   xmlns:rdf="http://www.w3.org/1999/02/22-rdf-syntax-ns#"
   xmlns:cc="http://creativecommons.org/ns#"
   xmlns:dc="http://purl.org/dc/elements/1.1/">
  <metadata
     id="metadata9">
    <rdf:RDF>
      <cc:Work
         rdf:about="">
        <dc:format>image/svg+xml</dc:format>
        <dc:type
           rdf:resource="http://purl.org/dc/dcmitype/StillImage" />
      </cc:Work>
    </rdf:RDF>
  </metadata>
  <sodipodi:namedview
     id="namedview7"
     pagecolor="#ffffff"
     bordercolor="#666666"
     borderopacity="1.0"
     inkscape:pageshadow="2"
     inkscape:pageopacity="0.0"
     inkscape:pagecheckerboard="0"
     inkscape:document-units="px"
     showgrid="false"
     inkscape:zoom="24.439378"
     inkscape:cx="9.1655359"
     inkscape:cy="7.4469979"
     inkscape:window-width="1366"
     inkscape:window-height="707"
     inkscape:window-x="0"
     inkscape:window-y="0"
     inkscape:window-maximized="1"
     inkscape:current-layer="layer1"
     inkscape:document-rotation="0">
    <inkscape:grid
       type="xygrid"
       id="grid928" />
  </sodipodi:namedview>
  <defs
     id="defs2" />
  <g
     inkscape:label="Capa 1"
     inkscape:groupmode="layer"
     id="layer1">
    <path
       id="rect928"
       style="stroke-linecap:round;stroke-linejoin:round"
       d="M 3 0 C 1.338 0 0 1.338 0 3 L 0 13 C 0 14.662 1.338 16 3 16 L 8.3320312 16 C 7.9282857 15.715934 7.5632123 15.380224 7.25 15 L 4 15 C 2.338 15 1 13.662 1 12 L 1 6 L 3 6 L 13 6 L 15 6 L 15 7.25 C 15.380224 7.5632123 15.715934 7.9282857 16 8.3320312 L 16 3 C 16 1.338 14.662 0 13 0 L 3 0 z M 2 2 L 4 2 L 4 4 L 2 4 L 2 2 z M 5 2 L 7 2 L 7 4 L 5 4 L 5 2 z M 8 2 L 10 2 L 10 4 L 8 4 L 8 2 z " />
    <path
       id="rect849"
       style="stroke-linecap:round;stroke-linejoin:round;stroke-dasharray:4, 4"
       d="M 11.5,7 C 9.007,7 7,9.007 7,11.5 7,13.993 9.007,16 11.5,16 13.993,16 16,13.993 16,11.5 16,9.007 13.993,7 11.5,7 Z M 11,9 h 1 v 2 h 2 v 1 h -2 v 2 H 11 V 12 H 9 v -1 h 2 z" />
  </g>
</svg>
