<?xml version="1.0" encoding="UTF-8" standalone="no"?>
<!-- Created with Inkscape (http://www.inkscape.org/) -->

<svg
   width="16"
   height="16"
   viewBox="0 0 16 16"
   version="1.1"
   id="svg5"
   inkscape:version="1.1.1 (3bf5ae0d25, 2021-09-20, custom)"
   sodipodi:docname="window-close-symbolic.svg"
   xmlns:inkscape="http://www.inkscape.org/namespaces/inkscape"
   xmlns:sodipodi="http://sodipodi.sourceforge.net/DTD/sodipodi-0.dtd"
   xmlns="http://www.w3.org/2000/svg"
   xmlns:svg="http://www.w3.org/2000/svg">
  <sodipodi:namedview
     id="namedview7"
     pagecolor="#ffffff"
     bordercolor="#666666"
     borderopacity="1.0"
     inkscape:pageshadow="2"
     inkscape:pageopacity="0.0"
     inkscape:pagecheckerboard="0"
     inkscape:document-units="px"
     showgrid="false"
     inkscape:zoom="17.28125"
     inkscape:cx="10.76311"
     inkscape:cy="8.0433996"
     inkscape:window-width="1366"
     inkscape:window-height="707"
     inkscape:window-x="0"
     inkscape:window-y="0"
     inkscape:window-maximized="1"
     inkscape:current-layer="layer2">
    <inkscape:grid
       type="xygrid"
       id="grid824" />
  </sodipodi:namedview>
  <defs
     id="defs2" />
  <g
     inkscape:label="Base"
     inkscape:groupmode="layer"
     id="layer1">
    <path
       id="rect928"
       style="stroke-linecap:round;stroke-linejoin:round;stroke-dasharray:4, 4"
       d="M 8 0 C 3.568 0 0 3.568 0 8 C 0 12.432 3.568 16 8 16 C 12.432 16 16 12.432 16 8 C 16 3.568 12.432 0 8 0 z M 8 1 C 11.878 1 15 4.122 15 8 C 15 11.878 11.878 15 8 15 C 4.122 15 1 11.878 1 8 C 1 4.122 4.122 1 8 1 z " />
  </g>
  <g
     inkscape:groupmode="layer"
     id="layer2"
     inkscape:label="ícono">
    <path
       style="fill-opacity:1;stroke:none;stroke-width:1px;stroke-linecap:butt;stroke-linejoin:miter;stroke-opacity:1"
       d="m 4,5 1,-1 7,7 -1,1 z"
       id="path938"
       sodipodi:nodetypes="ccccc" />
    <path
       style="fill-opacity:1;stroke:none;stroke-width:1px;stroke-linecap:butt;stroke-linejoin:miter;stroke-opacity:1"
       d="M 12,5 11,4 4,11 5,12 Z"
       id="path938-3"
       sodipodi:nodetypes="ccccc" />
  </g>
</svg>
