<?xml version="1.0" encoding="UTF-8" standalone="no"?>
<svg
   width="16"
   height="16"
   viewBox="0 0 16 16"
   version="1.1"
   id="svg5"
   inkscape:version="1.1.1 (3bf5ae0d25, 2021-09-20, custom)"
   sodipodi:docname="zoom-original-symbolic.svg"
   xmlns:inkscape="http://www.inkscape.org/namespaces/inkscape"
   xmlns:sodipodi="http://sodipodi.sourceforge.net/DTD/sodipodi-0.dtd"
   xmlns="http://www.w3.org/2000/svg"
   xmlns:svg="http://www.w3.org/2000/svg"
   xmlns:rdf="http://www.w3.org/1999/02/22-rdf-syntax-ns#"
   xmlns:cc="http://creativecommons.org/ns#"
   xmlns:dc="http://purl.org/dc/elements/1.1/">
  <metadata
     id="metadata9">
    <rdf:RDF>
      <cc:Work
         rdf:about="">
        <dc:format>image/svg+xml</dc:format>
        <dc:type
           rdf:resource="http://purl.org/dc/dcmitype/StillImage" />
      </cc:Work>
    </rdf:RDF>
  </metadata>
  <sodipodi:namedview
     id="namedview7"
     pagecolor="#ffffff"
     bordercolor="#666666"
     borderopacity="1.0"
     inkscape:pageshadow="2"
     inkscape:pageopacity="0.0"
     inkscape:pagecheckerboard="0"
     inkscape:document-units="px"
     showgrid="false"
     inkscape:zoom="12.219689"
     inkscape:cx="7.1196575"
     inkscape:cy="10.024805"
     inkscape:window-width="1366"
     inkscape:window-height="703"
     inkscape:window-x="0"
     inkscape:window-y="0"
     inkscape:window-maximized="1"
     inkscape:current-layer="layer1"
     inkscape:document-rotation="0">
    <inkscape:grid
       type="xygrid"
       id="grid928" />
  </sodipodi:namedview>
  <defs
     id="defs2" />
  <g
     inkscape:label="Capa 1"
     inkscape:groupmode="layer"
     id="layer1">
    <path
       id="rect7992"
       d="M 3 0 C 1.338 0 0 1.338 0 3 L 0 13 C 0 14.662 1.338 16 3 16 L 13 16 C 14.662 16 16 14.662 16 13 L 16 3 C 16 1.338 14.662 0 13 0 L 3 0 z M 3.625 1 L 12.375 1 C 13.82925 1 15 2.17075 15 3.625 L 15 12.375 C 15 13.82925 13.82925 15 12.375 15 L 3.625 15 C 2.17075 15 1 13.82925 1 12.375 L 1 3.625 C 1 2.17075 2.17075 1 3.625 1 z " />
    <path
       id="rect9135-9"
       d="m 9,6 c 0.554,0 1,0.446 1,1 V 9 C 10,9.554 9.554,10 9,10 8.446,10 8,9.554 8,9 V 8 H 7 C 6.446,8 6,7.554 6,7 6,6.446 6.446,6 7,6 Z" />
    <path
       id="rect10845"
       d="M 8 3 C 5.23 3 3 5.23 3 8 C 3 10.77 5.23 13 8 13 C 10.77 13 13 10.77 13 8 C 13 5.23 10.77 3 8 3 z M 8 4 C 10.216 4 12 5.784 12 8 C 12 10.216 10.216 12 8 12 C 5.784 12 4 10.216 4 8 C 4 5.784 5.784 4 8 4 z " />
    <path
       id="rect11212"
       style="stroke-width:1.20001"
       d="M 8 8 C 6.338 8 5 9.338 5 11 C 5 11.351071 5.0600767 11.6874 5.1699219 12 L 6.265625 12 C 6.0965031 11.706242 6 11.36464 6 11 C 6 9.892 6.892 9 8 9 C 8.3646402 9 8.7062424 9.0965031 9 9.265625 L 9 8.1699219 C 8.6874002 8.0600767 8.3510705 8 8 8 z " />
  </g>
</svg>
